<svg width="36" height="36" viewBox="0 0 36 36" fill="none" xmlns="http://www.w3.org/2000/svg">
<g clip-path="url(#clip0_1123_52)">
<path d="M36 18C36 8.05887 27.9411 0 18 0C8.05887 0 0 8.05887 0 18C0 27.9411 8.05887 36 18 36C27.9411 36 36 27.9411 36 18Z" fill="#0D80BB" fill-opacity="0.1"/>
<path d="M11.25 13.5C11.0511 13.5 10.8603 13.579 10.7197 13.7197C10.579 13.8603 10.5 14.0511 10.5 14.25C10.5 14.4489 10.579 14.6397 10.7197 14.7803C10.8603 14.921 11.0511 15 11.25 15H21.75C21.9489 15 22.1397 14.921 22.2803 14.7803C22.421 14.6397 22.5 14.4489 22.5 14.25C22.5 14.0511 22.421 13.8603 22.2803 13.7197C22.1397 13.579 21.9489 13.5 21.75 13.5H11.25ZM11.25 16.5C11.0511 16.5 10.8603 16.579 10.7197 16.7197C10.579 16.8603 10.5 17.0511 10.5 17.25V20.25C10.5 20.4489 10.579 20.6397 10.7197 20.7803C10.8603 20.921 11.0511 21 11.25 21H14.25C14.4489 21 14.6397 20.921 14.7803 20.7803C14.921 20.6397 15 20.4489 15 20.25V17.25C15 17.0511 14.921 16.8603 14.7803 16.7197C14.6397 16.579 14.4489 16.5 14.25 16.5H11.25ZM12 19.5V18H13.5V19.5H12ZM17.25 16.5C17.0511 16.5 16.8603 16.579 16.7197 16.7197C16.579 16.8603 16.5 17.0511 16.5 17.25C16.5 17.4489 16.579 17.6397 16.7197 17.7803C16.8603 17.921 17.0511 18 17.25 18H21.75C21.9489 18 22.1397 17.921 22.2803 17.7803C22.421 17.6397 22.5 17.4489 22.5 17.25C22.5 17.0511 22.421 16.8603 22.2803 16.7197C22.1397 16.579 21.9489 16.5 21.75 16.5H17.25ZM17.25 19.5C17.0511 19.5 16.8603 19.579 16.7197 19.7197C16.579 19.8603 16.5 20.0511 16.5 20.25C16.5 20.4489 16.579 20.6397 16.7197 20.7803C16.8603 20.921 17.0511 21 17.25 21H21.75C21.9489 21 22.1397 20.921 22.2803 20.7803C22.421 20.6397 22.5 20.4489 22.5 20.25C22.5 20.0511 22.421 19.8603 22.2803 19.7197C22.1397 19.579 21.9489 19.5 21.75 19.5H17.25ZM7.5 12C7.5 11.2044 7.81607 10.4413 8.37868 9.87868C8.94129 9.31607 9.70435 9 10.5 9H22.5C23.2956 9 24.0587 9.31607 24.6213 9.87868C25.1839 10.4413 25.5 11.2044 25.5 12C26.2956 12 27.0587 12.3161 27.6213 12.8787C28.1839 13.4413 28.5 14.2044 28.5 15V21.75C28.5 22.7446 28.1049 23.6984 27.4017 24.4017C26.6984 25.1049 25.7446 25.5 24.75 25.5H11.25C10.2554 25.5 9.30161 25.1049 8.59835 24.4017C7.89509 23.6984 7.5 22.7446 7.5 21.75V12ZM24.75 21.75C24.5511 21.75 24.3603 21.671 24.2197 21.5303C24.079 21.3897 24 21.1989 24 21V12C24 11.6022 23.842 11.2206 23.5607 10.9393C23.2794 10.658 22.8978 10.5 22.5 10.5H10.5C10.1022 10.5 9.72064 10.658 9.43934 10.9393C9.15804 11.2206 9 11.6022 9 12V21.75C9 22.3467 9.23705 22.919 9.65901 23.341C10.081 23.7629 10.6533 24 11.25 24H24.75C25.3467 24 25.919 23.7629 26.341 23.341C26.7629 22.919 27 22.3467 27 21.75V15C27 14.6022 26.842 14.2206 26.5607 13.9393C26.2794 13.658 25.8978 13.5 25.5 13.5V21C25.5 21.1989 25.421 21.3897 25.2803 21.5303C25.1397 21.671 24.9489 21.75 24.75 21.75Z" fill="#0D80BB"/>
</g>
<defs>
<clipPath id="clip0_1123_52">
<rect width="36" height="36" fill="white"/>
</clipPath>
</defs>
</svg>
