<svg width="36" height="36" viewBox="0 0 36 36" fill="none" xmlns="http://www.w3.org/2000/svg">
<rect width="36" height="36" rx="18" fill="white" fill-opacity="0.2"/>
<path d="M13.6253 26.3333C13.467 26.3333 13.3145 26.2731 13.1988 26.165C13.0831 26.0569 13.0128 25.9089 13.002 25.7509C12.9912 25.5929 13.0408 25.4368 13.1407 25.3139C13.2406 25.1911 13.3835 25.1108 13.5403 25.0892L13.6253 25.0833H15.0828V23.0017H11.542C11.0669 23.0017 10.6095 22.8214 10.2622 22.4972C9.91492 22.173 9.70368 21.729 9.67116 21.255L9.66699 21.1267V12.375C9.66693 11.8999 9.84724 11.4425 10.1715 11.0952C10.4957 10.7479 10.9397 10.5367 11.4137 10.5042L11.542 10.5H24.4578C24.9329 10.4999 25.3903 10.6802 25.7376 11.0045C26.0849 11.3287 26.2961 11.7727 26.3287 12.2467L26.3328 12.375V21.1267C26.3329 21.6018 26.1526 22.0592 25.8284 22.4065C25.5041 22.7537 25.0602 22.965 24.5862 22.9975L24.4578 23.0017H20.9162V25.0833H22.3753C22.5348 25.0817 22.6889 25.1411 22.806 25.2494C22.9231 25.3577 22.9944 25.5066 23.0052 25.6657C23.0161 25.8248 22.9657 25.9821 22.8644 26.1053C22.7631 26.2285 22.6185 26.3083 22.4603 26.3283L22.3753 26.3333H13.6253ZM19.6653 23.0017H16.332L16.3328 25.0833H19.6662L19.6653 23.0017ZM24.457 11.75H11.542C11.391 11.75 11.245 11.8047 11.1312 11.904C11.0174 12.0032 10.9434 12.1404 10.9228 12.29L10.917 12.375V21.1267C10.917 21.4433 11.152 21.705 11.457 21.7458L11.542 21.7517H24.4578C24.6089 21.7517 24.7548 21.697 24.8686 21.5977C24.9824 21.4984 25.0565 21.3613 25.077 21.2117L25.0828 21.1267V12.375C25.0828 12.224 25.0281 12.078 24.9289 11.9642C24.8296 11.8504 24.6925 11.7764 24.5428 11.7558L24.457 11.75Z" fill="white"/>
</svg>
