<svg width="32" height="32" viewBox="0 0 32 32" fill="none" xmlns="http://www.w3.org/2000/svg">
<rect width="32" height="32" rx="3" fill="#0D80BB"/>
<path d="M17.4004 24.3364C19.4177 24.0798 21.2615 23.0646 22.5572 21.4972C23.8529 19.9299 24.5031 17.928 24.3758 15.8984C24.2484 13.8688 23.3531 11.9639 21.8716 10.5708C20.3902 9.17771 18.4339 8.40096 16.4004 8.39844C14.3644 8.39692 12.4043 9.17178 10.9197 10.5651C9.43512 11.9585 8.53763 13.8654 8.41013 15.8975C8.28264 17.9295 8.93473 19.9337 10.2335 21.5017C11.5323 23.0697 13.3801 24.0835 15.4004 24.3364V18.3984H13.4004V16.3984H15.4004V14.7444C15.4004 13.4074 15.5404 12.9224 15.8004 12.4334C16.0565 11.9496 16.4523 11.5541 16.9364 11.2984C17.3184 11.0934 17.7934 10.9704 18.6234 10.9174C18.9524 10.8964 19.3784 10.9224 19.9014 10.9974V12.8974H19.4014C18.4844 12.8974 18.1054 12.9404 17.8794 13.0614C17.7446 13.1309 17.6348 13.2406 17.5654 13.3754C17.4454 13.6014 17.4014 13.8254 17.4014 14.7434V16.3984H19.9014L19.4014 18.3984H17.4014L17.4004 24.3364ZM16.4004 26.3984C10.8774 26.3984 6.40039 21.9214 6.40039 16.3984C6.40039 10.8754 10.8774 6.39844 16.4004 6.39844C21.9234 6.39844 26.4004 10.8754 26.4004 16.3984C26.4004 21.9214 21.9234 26.3984 16.4004 26.3984Z" fill="white"/>
</svg>
