<svg width="24" height="24" viewBox="0 0 24 24" fill="none" xmlns="http://www.w3.org/2000/svg">
<rect width="24" height="24" rx="12" fill="white"/>
<path d="M12.75 17.9535C14.263 17.761 15.6459 16.9996 16.6176 15.8241C17.5894 14.6486 18.077 13.1472 17.9815 11.625C17.886 10.1028 17.2145 8.67412 16.1034 7.62929C14.9924 6.58445 13.5252 6.00189 12 6C10.473 5.99886 9.00296 6.58 7.8895 7.62501C6.77605 8.67001 6.10293 10.1002 6.00731 11.6243C5.91168 13.1483 6.40075 14.6515 7.37486 15.8274C8.34896 17.0034 9.7348 17.7638 11.25 17.9535V13.5H9.75V12H11.25V10.7595C11.25 9.75675 11.355 9.393 11.55 9.02625C11.742 8.66336 12.0389 8.36673 12.402 8.175C12.6885 8.02125 13.0448 7.929 13.6673 7.88925C13.914 7.8735 14.2335 7.893 14.6258 7.94925V9.37425H14.2508C13.563 9.37425 13.2788 9.4065 13.1093 9.49725C13.0081 9.54931 12.9258 9.63164 12.8738 9.73275C12.7838 9.90225 12.7508 10.0703 12.7508 10.7588V12H14.6258L14.2508 13.5H12.7508L12.75 17.9535ZM12 19.5C7.85775 19.5 4.5 16.1423 4.5 12C4.5 7.85775 7.85775 4.5 12 4.5C16.1423 4.5 19.5 7.85775 19.5 12C19.5 16.1423 16.1423 19.5 12 19.5Z" fill="black"/>
</svg>
