<svg width="24" height="24" viewBox="0 0 24 24" fill="none" xmlns="http://www.w3.org/2000/svg">
<rect width="24" height="24" rx="12" fill="white"/>
<path d="M9.20065 5.33398H14.8007C16.934 5.33398 18.6673 7.06732 18.6673 9.20065V14.8007C18.6673 15.8262 18.2599 16.8097 17.5348 17.5348C16.8097 18.2599 15.8262 18.6673 14.8007 18.6673H9.20065C7.06732 18.6673 5.33398 16.934 5.33398 14.8007V9.20065C5.33398 8.17515 5.74136 7.19165 6.4665 6.4665C7.19165 5.74136 8.17515 5.33398 9.20065 5.33398ZM9.06732 6.66732C8.4308 6.66732 7.82035 6.92017 7.37026 7.37026C6.92017 7.82035 6.66732 8.4308 6.66732 9.06732V14.934C6.66732 16.2607 7.74065 17.334 9.06732 17.334H14.934C15.5705 17.334 16.181 17.0811 16.631 16.631C17.0811 16.181 17.334 15.5705 17.334 14.934V9.06732C17.334 7.74065 16.2607 6.66732 14.934 6.66732H9.06732ZM15.5007 7.66732C15.7217 7.66732 15.9336 7.75511 16.0899 7.9114C16.2462 8.06768 16.334 8.27964 16.334 8.50065C16.334 8.72166 16.2462 8.93363 16.0899 9.08991C15.9336 9.24619 15.7217 9.33398 15.5007 9.33398C15.2796 9.33398 15.0677 9.24619 14.9114 9.08991C14.7551 8.93363 14.6673 8.72166 14.6673 8.50065C14.6673 8.27964 14.7551 8.06768 14.9114 7.9114C15.0677 7.75511 15.2796 7.66732 15.5007 7.66732ZM12.0007 8.66732C12.8847 8.66732 13.7326 9.01851 14.3577 9.64363C14.9828 10.2687 15.334 11.1166 15.334 12.0007C15.334 12.8847 14.9828 13.7326 14.3577 14.3577C13.7326 14.9828 12.8847 15.334 12.0007 15.334C11.1166 15.334 10.2687 14.9828 9.64363 14.3577C9.01851 13.7326 8.66732 12.8847 8.66732 12.0007C8.66732 11.1166 9.01851 10.2687 9.64363 9.64363C10.2687 9.01851 11.1166 8.66732 12.0007 8.66732ZM12.0007 10.0007C11.4702 10.0007 10.9615 10.2114 10.5864 10.5864C10.2114 10.9615 10.0007 11.4702 10.0007 12.0007C10.0007 12.5311 10.2114 13.0398 10.5864 13.4149C10.9615 13.7899 11.4702 14.0007 12.0007 14.0007C12.5311 14.0007 13.0398 13.7899 13.4149 13.4149C13.7899 13.0398 14.0007 12.5311 14.0007 12.0007C14.0007 11.4702 13.7899 10.9615 13.4149 10.5864C13.0398 10.2114 12.5311 10.0007 12.0007 10.0007Z" fill="black"/>
</svg>
