<svg width="32" height="32" viewBox="0 0 32 32" fill="none" xmlns="http://www.w3.org/2000/svg">
<rect width="32" height="32" rx="3" fill="#0D80BB"/>
<path d="M12.2669 7.11328H19.7336C22.578 7.11328 24.8891 9.42439 24.8891 12.2688V19.7355C24.8891 21.1028 24.3459 22.4142 23.3791 23.381C22.4122 24.3479 21.1009 24.8911 19.7336 24.8911H12.2669C9.42244 24.8911 7.11133 22.5799 7.11133 19.7355V12.2688C7.11133 10.9015 7.6545 9.59016 8.62136 8.62331C9.58821 7.65645 10.8995 7.11328 12.2669 7.11328ZM12.0891 8.89106C11.2404 8.89106 10.4265 9.2282 9.82636 9.82832C9.22625 10.4284 8.88911 11.2424 8.88911 12.0911V19.9133C8.88911 21.6822 10.3202 23.1133 12.0891 23.1133H19.9113C20.76 23.1133 21.574 22.7761 22.1741 22.176C22.7742 21.5759 23.1113 20.762 23.1113 19.9133V12.0911C23.1113 10.3222 21.6802 8.89106 19.9113 8.89106H12.0891ZM20.6669 10.2244C20.9616 10.2244 21.2442 10.3415 21.4526 10.5498C21.6609 10.7582 21.778 11.0408 21.778 11.3355C21.778 11.6302 21.6609 11.9128 21.4526 12.1212C21.2442 12.3296 20.9616 12.4466 20.6669 12.4466C20.3722 12.4466 20.0896 12.3296 19.8812 12.1212C19.6728 11.9128 19.5558 11.6302 19.5558 11.3355C19.5558 11.0408 19.6728 10.7582 19.8812 10.5498C20.0896 10.3415 20.3722 10.2244 20.6669 10.2244ZM16.0002 11.5577C17.179 11.5577 18.3094 12.026 19.1429 12.8595C19.9764 13.693 20.4447 14.8234 20.4447 16.0022C20.4447 17.1809 19.9764 18.3114 19.1429 19.1449C18.3094 19.9784 17.179 20.4466 16.0002 20.4466C14.8215 20.4466 13.691 19.9784 12.8575 19.1449C12.024 18.3114 11.5558 17.1809 11.5558 16.0022C11.5558 14.8234 12.024 13.693 12.8575 12.8595C13.691 12.026 14.8215 11.5577 16.0002 11.5577ZM16.0002 13.3355C15.293 13.3355 14.6147 13.6165 14.1146 14.1166C13.6145 14.6166 13.3335 15.2949 13.3335 16.0022C13.3335 16.7094 13.6145 17.3877 14.1146 17.8878C14.6147 18.3879 15.293 18.6688 16.0002 18.6688C16.7075 18.6688 17.3857 18.3879 17.8858 17.8878C18.3859 17.3877 18.6669 16.7094 18.6669 16.0022C18.6669 15.2949 18.3859 14.6166 17.8858 14.1166C17.3857 13.6165 16.7075 13.3355 16.0002 13.3355Z" fill="white"/>
</svg>
