<svg width="32" height="32" viewBox="0 0 32 32" fill="none" xmlns="http://www.w3.org/2000/svg">
<rect width="32" height="32" rx="3" fill="#0D80BB"/>
<path d="M22.6527 8.80646C21.755 7.89968 20.6857 7.18072 19.5072 6.69151C18.3288 6.20231 17.0647 5.95264 15.7887 5.95709C10.4425 5.95709 6.08517 10.3144 6.08517 15.6606C6.08517 17.3742 6.53559 19.0388 7.37767 20.5075L6.00684 25.5404L11.1475 24.1892C12.5673 24.9627 14.1633 25.374 15.7887 25.374C21.135 25.374 25.4923 21.0167 25.4923 15.6704C25.4923 13.0756 24.4837 10.6375 22.6527 8.80646ZM15.7887 23.729C14.3395 23.729 12.9198 23.3373 11.6762 22.6029L11.3825 22.4267L8.32746 23.2296L9.14017 20.2529L8.94434 19.9494C8.13921 18.6637 7.7117 17.1776 7.71059 15.6606C7.71059 11.2152 11.3335 7.5923 15.7789 7.5923C17.9331 7.5923 19.96 8.43438 21.4777 9.96188C22.2292 10.7099 22.8247 11.5997 23.2298 12.5796C23.6349 13.5595 23.8414 14.6101 23.8375 15.6704C23.857 20.1158 20.2341 23.729 15.7887 23.729ZM20.2145 17.6973C19.9698 17.5798 18.7752 16.9923 18.5598 16.9042C18.3345 16.8258 18.1779 16.7867 18.0114 17.0217C17.845 17.2665 17.3848 17.8148 17.2477 17.9715C17.1106 18.1379 16.9637 18.1575 16.7189 18.0302C16.4741 17.9127 15.6908 17.6483 14.7704 16.8258C14.0458 16.1796 13.566 15.3865 13.4191 15.1417C13.282 14.8969 13.3995 14.7696 13.5268 14.6423C13.6345 14.5346 13.7716 14.3583 13.8891 14.2213C14.0066 14.0842 14.0556 13.9765 14.1339 13.8198C14.2123 13.6533 14.1731 13.5163 14.1143 13.3988C14.0556 13.2813 13.566 12.0867 13.3702 11.5971C13.1743 11.1271 12.9687 11.1858 12.8218 11.176H12.3518C12.1854 11.176 11.9308 11.2348 11.7056 11.4796C11.4902 11.7244 10.8635 12.3119 10.8635 13.5065C10.8635 14.701 11.735 15.8565 11.8525 16.0131C11.97 16.1796 13.566 18.6275 15.9943 19.6752C16.572 19.9298 17.0225 20.0767 17.375 20.1844C17.9527 20.3704 18.4814 20.341 18.9025 20.2823C19.3725 20.2138 20.3418 19.6948 20.5377 19.1269C20.7433 18.559 20.7433 18.0792 20.6748 17.9715C20.6062 17.8638 20.4593 17.8148 20.2145 17.6973Z" fill="white"/>
</svg>
