<svg width="32" height="32" viewBox="0 0 32 32" fill="none" xmlns="http://www.w3.org/2000/svg">
<rect width="32" height="32" rx="3" fill="#0D80BB"/>
<path d="M23.1847 23.13L18.1014 15.1467L23.0781 9.6725C23.2527 9.47565 23.3427 9.21791 23.3286 8.95515C23.3144 8.69239 23.1973 8.44579 23.0025 8.26882C22.8078 8.09185 22.5512 7.99876 22.2883 8.00974C22.0253 8.02073 21.7774 8.1349 21.5981 8.3275L16.9922 13.3975L13.8514 8.46333C13.7611 8.32141 13.6365 8.20455 13.4891 8.12356C13.3417 8.04258 13.1763 8.00008 13.0081 8H9.00806C8.82893 8.00008 8.65311 8.04828 8.49897 8.13956C8.34484 8.23084 8.21805 8.36184 8.13187 8.51888C8.04568 8.67592 8.00326 8.85323 8.00905 9.03227C8.01483 9.21131 8.06859 9.38551 8.16473 9.53667L13.2481 17.52L8.26806 22.9942C8.1779 23.091 8.10785 23.2048 8.06199 23.3289C8.01612 23.4531 7.99535 23.5851 8.00087 23.7173C8.0064 23.8495 8.03811 23.9793 8.09417 24.0992C8.15023 24.219 8.22952 24.3266 8.32745 24.4156C8.42538 24.5046 8.54001 24.5733 8.66468 24.6176C8.78934 24.662 8.92158 24.6812 9.05372 24.6741C9.18586 24.667 9.31527 24.6337 9.43446 24.5762C9.55365 24.5187 9.66025 24.4382 9.74806 24.3392L14.3572 19.2692L17.4981 24.2033C17.5883 24.3453 17.7129 24.4621 17.8603 24.5431C18.0077 24.6241 18.1732 24.6666 18.3414 24.6667H22.3414C22.5205 24.6666 22.6964 24.6184 22.8505 24.5271C23.0046 24.4358 23.1314 24.3048 23.2176 24.1478C23.3038 23.9907 23.3462 23.8134 23.3404 23.6344C23.3346 23.4554 23.2809 23.2812 23.1847 23.13ZM18.8906 22.6667L10.8297 10H12.4589L20.5197 22.6667H18.8906Z" fill="white"/>
</svg>
