<svg width="24" height="24" viewBox="0 0 24 24" fill="none" xmlns="http://www.w3.org/2000/svg">
<rect width="24" height="24" rx="12" fill="white"/>
<path d="M17.6327 17.0975L13.8202 11.11L17.5527 7.00437C17.6837 6.85674 17.7512 6.66343 17.7406 6.46636C17.73 6.26929 17.6421 6.08435 17.4961 5.95161C17.35 5.81888 17.1575 5.74907 16.9603 5.75731C16.7632 5.76555 16.5772 5.85117 16.4427 5.99563L12.9883 9.79812L10.6327 6.0975C10.565 5.99106 10.4715 5.90341 10.361 5.84267C10.2504 5.78193 10.1263 5.75006 10.0002 5.75H7.00019C6.86584 5.75006 6.73397 5.78621 6.61837 5.85467C6.50277 5.92313 6.40768 6.02138 6.34304 6.13916C6.2784 6.25694 6.24659 6.38992 6.25092 6.5242C6.25526 6.65848 6.29559 6.78914 6.36769 6.9025L10.1802 12.89L6.44519 16.9956C6.37756 17.0683 6.32503 17.1536 6.29063 17.2467C6.25623 17.3398 6.24065 17.4388 6.24479 17.538C6.24894 17.6371 6.27272 17.7345 6.31477 17.8244C6.35681 17.9143 6.41628 17.9949 6.48973 18.0617C6.56318 18.1284 6.64915 18.18 6.74265 18.2132C6.83615 18.2465 6.93533 18.2609 7.03443 18.2556C7.13354 18.2502 7.2306 18.2253 7.31999 18.1822C7.40938 18.1391 7.48932 18.0786 7.55519 18.0044L11.0121 14.2019L13.3677 17.9025C13.4354 18.0089 13.5288 18.0966 13.6394 18.1573C13.75 18.2181 13.874 18.2499 14.0002 18.25H17.0002C17.1345 18.2499 17.2664 18.2138 17.382 18.1453C17.4976 18.0769 17.5927 17.9786 17.6573 17.8608C17.722 17.7431 17.7538 17.6101 17.7495 17.4758C17.7451 17.3415 17.7048 17.2109 17.6327 17.0975ZM14.4121 16.75L8.36644 7.25H9.58831L15.6339 16.75H14.4121Z" fill="black"/>
</svg>
