<svg width="24" height="24" viewBox="0 0 24 24" fill="none" xmlns="http://www.w3.org/2000/svg">
<rect width="24" height="24" rx="12" fill="white"/>
<path d="M13.3333 11.9974L11 13.3307V10.6641L13.3333 11.9974Z" fill="black" stroke="black" stroke-width="1.5" stroke-linecap="round" stroke-linejoin="round"/>
<path d="M5.33301 12.471V11.527C5.33301 9.59696 5.33301 8.63162 5.93634 8.01096C6.54034 7.38963 7.49101 7.36296 9.39167 7.30896C10.2917 7.28363 11.2117 7.26562 11.9997 7.26562C12.7877 7.26562 13.707 7.28363 14.6077 7.30896C16.5083 7.36296 17.459 7.38963 18.0623 8.01096C18.6657 8.63229 18.6663 9.59762 18.6663 11.527V12.4703C18.6663 14.401 18.6663 15.3656 18.063 15.987C17.459 16.6076 16.509 16.635 14.6077 16.6883C13.7077 16.7143 12.7877 16.7323 11.9997 16.7323C11.2117 16.7323 10.2923 16.7143 9.39167 16.6883C7.49101 16.635 6.54034 16.6083 5.93634 15.987C5.33234 15.3656 5.33301 14.4003 5.33301 12.471Z" stroke="black" stroke-width="1.5"/>
</svg>
