<svg width="120" height="120" viewBox="0 0 120 120" fill="none" xmlns="http://www.w3.org/2000/svg">
<path d="M68.7993 66.02C69.5384 66.6851 69.9831 67.6166 70.0356 68.6095C70.0882 69.6025 69.7441 70.5756 69.0793 71.315L63.5243 77.495H74.9043C75.6108 77.4941 76.3031 77.6928 76.9016 78.0682C77.5001 78.4437 77.9804 78.9805 78.2871 79.6169C78.5938 80.2534 78.7145 80.9635 78.6353 81.6655C78.5561 82.3676 78.2801 83.0329 77.8393 83.585L61.7793 103.74C61.1501 104.487 60.2543 104.959 59.2824 105.056C58.3106 105.152 57.3394 104.866 56.5754 104.258C55.8114 103.649 55.3148 102.767 55.1914 101.798C55.0679 100.829 55.3273 99.8505 55.9143 99.07L67.1243 84.995H55.1093C54.3849 84.9949 53.676 84.7849 53.0683 84.3905C52.4606 83.9962 51.9802 83.4342 51.6851 82.7726C51.39 82.111 51.2929 81.3781 51.4054 80.6624C51.5179 79.9468 51.8354 79.2791 52.3193 78.74L63.4993 66.3C63.8287 65.9333 64.2272 65.6351 64.6719 65.4225C65.1167 65.2099 65.599 65.0871 66.0912 65.0611C66.5835 65.0351 67.076 65.1064 67.5407 65.271C68.0054 65.4355 68.4331 65.69 68.7993 66.02ZM65.0093 25.045C80.8493 25.045 89.8393 35.53 91.1443 48.195H91.5443C93.9656 48.1917 96.3639 48.6655 98.6021 49.5892C100.84 50.5129 102.875 51.8685 104.589 53.5786C106.303 55.2886 107.664 57.3196 108.593 59.5556C109.522 61.7916 110.002 64.1887 110.004 66.61C110.001 69.0309 109.521 71.4275 108.591 73.6629C107.662 75.8982 106.301 77.9287 104.587 79.6382C102.873 81.3477 100.839 82.7029 98.601 83.6263C96.3631 84.5497 93.9652 85.0233 91.5443 85.02H82.8093C85.5243 79.455 81.5493 72.495 74.9093 72.495H74.2293C75.1172 70.5928 75.2916 68.4348 74.7208 66.4146C74.1499 64.3945 72.8718 62.6469 71.1197 61.4908C69.3675 60.3346 67.2581 59.8469 65.1763 60.1166C63.0944 60.3863 61.1789 61.3955 59.7793 62.96L48.6043 75.395C47.4343 76.6761 46.6765 78.2795 46.4296 79.9968C46.1826 81.7142 46.4577 83.4661 47.2193 85.025H38.4693C36.0479 85.0283 33.6497 84.5545 31.4114 83.6308C29.1732 82.7071 27.1389 81.3515 25.4247 79.6414C23.7104 77.9314 22.3499 75.9004 21.4207 73.6644C20.4915 71.4284 20.0119 69.0313 20.0093 66.61C20.0119 64.1887 20.4915 61.7916 21.4207 59.5556C22.3499 57.3196 23.7104 55.2886 25.4247 53.5786C27.1389 51.8685 29.1732 50.5129 31.4114 49.5892C33.6497 48.6655 36.0479 48.1917 38.4693 48.195H38.8693C40.1843 35.445 49.1693 25.045 65.0093 25.045ZM49.9993 10C58.0843 10 65.2493 14.075 69.4993 20.31C68.0088 20.1375 66.5097 20.049 65.0093 20.045C50.0393 20.045 39.1543 28.43 35.3243 41.11L34.9843 42.31L34.6943 43.5L33.6643 43.695C29.722 44.5328 26.063 46.3747 23.0417 49.0421C20.0204 51.7095 17.7392 55.112 16.4193 58.92C13.7611 56.8813 11.7906 54.0779 10.7724 50.8864C9.75424 47.6949 9.73721 44.2683 10.7236 41.0669C11.71 37.8654 13.6526 35.0426 16.2903 32.9775C18.9281 30.9125 22.1347 29.7042 25.4793 29.515L26.7643 29.485C27.7311 24.0251 30.5896 19.0799 34.8382 15.517C39.0869 11.954 44.4544 10.0008 49.9993 10Z" fill="#0D80BB"/>
</svg>
