<svg width="120" height="120" viewBox="0 0 120 120" fill="none" xmlns="http://www.w3.org/2000/svg">
<path d="M50.7 10.0312C54.235 10.0312 56.25 13.5512 56.25 17.0863V38.7512H51.775C50.9047 36.5999 49.3133 34.8182 47.2735 33.7116C45.2337 32.6049 42.8725 32.2421 40.5946 32.6854C38.3166 33.1287 36.2638 34.3504 34.7878 36.1413C33.3119 37.9321 32.5048 40.1806 32.5048 42.5012C32.5048 44.8219 33.3119 47.0704 34.7878 48.8612C36.2638 50.6521 38.3166 51.8738 40.5946 52.3171C42.8725 52.7604 45.2337 52.3976 47.2735 51.2909C49.3133 50.1843 50.9047 48.4026 51.775 46.2512H56.25V100.741C56.25 103.721 54.99 106.686 52.335 108.041C49.9274 109.302 47.2527 109.967 44.535 109.981C36.985 109.981 31.37 106.161 27.755 101.641C25.2559 98.5192 23.5106 94.8627 22.655 90.9562C20.3203 90.2668 18.1579 89.0911 16.31 87.5062C12.76 84.4512 10 79.5512 10 72.3312C10 68.5562 10.27 65.2662 10.95 62.5012H32C35.39 62.5012 38.2 65.0013 38.675 68.2563C36.5321 69.1428 34.7639 70.7465 33.6731 72.793C32.5823 74.8395 32.2367 77.2015 32.6954 79.4748C33.1541 81.748 34.3887 83.7911 36.1877 85.2545C37.9868 86.7178 40.2385 87.5104 42.5575 87.4965C44.8766 87.4827 47.1187 86.6633 48.9001 85.1785C50.6816 83.6938 51.8916 81.6361 52.3232 79.3575C52.7547 77.079 52.3809 74.7213 51.2657 72.688C50.1505 70.6546 48.3633 69.0721 46.21 68.2112C45.9473 64.6219 44.3363 61.2648 41.7003 58.8144C39.0644 56.364 35.599 55.0018 32 55.0012H15.2C15.9473 54.3804 16.781 53.8717 17.675 53.4912C17.1643 51.653 16.8657 49.7624 16.785 47.8563C16.62 44.1813 17.17 40.3562 18.26 36.9512C19.34 33.6012 21.05 30.3363 23.45 28.0813C24.9515 26.6088 26.8606 25.6211 28.93 25.2462C29.925 21.0462 32.46 17.5763 35.695 15.0613C39.85 11.8213 45.295 10.0312 50.695 10.0312M63.75 85.0012H72C75.7793 85.0012 79.4039 83.4999 82.0763 80.8275C84.7487 78.1551 86.25 74.5306 86.25 70.7512V61.7762C88.4013 60.906 90.183 59.3146 91.2897 57.2748C92.3964 55.235 92.7592 52.8738 92.3159 50.5958C91.8726 48.3179 90.6508 46.265 88.86 44.7891C87.0691 43.3131 84.8207 42.506 82.5 42.506C80.1793 42.506 77.9309 43.3131 76.14 44.7891C74.3492 46.265 73.1274 48.3179 72.6841 50.5958C72.2408 52.8738 72.6036 55.235 73.7103 57.2748C74.817 59.3146 76.5987 60.906 78.75 61.7762V70.7512C78.75 72.5415 78.0388 74.2584 76.773 75.5242C75.5071 76.7901 73.7902 77.5012 72 77.5012H63.75V17.0863C63.75 13.5512 65.765 10.0312 69.3 10.0312C74.71 10.0312 80.15 11.8213 84.305 15.0613C87.54 17.5763 90.075 21.0512 91.07 25.2462C93.17 25.5962 95.04 26.6663 96.55 28.0813C98.95 30.3363 100.66 33.5962 101.74 36.9512C102.83 40.3562 103.38 44.1813 103.215 47.8563C103.13 49.7363 102.855 51.6562 102.325 53.4912L102.655 53.6413C104.505 54.5113 106.005 55.8762 107.125 57.6912C109.25 61.1162 110 66.0462 110 72.3312C110 79.5562 107.24 84.4612 103.69 87.5062C101.841 89.0917 99.6765 90.2675 97.34 90.9562C96.4858 94.8623 94.7423 98.5187 92.245 101.641C88.63 106.161 83.015 109.981 75.46 109.981C72.7427 109.969 70.068 109.305 67.66 108.046C65.01 106.686 63.75 103.721 63.75 100.741V85.0012ZM40 42.5012C40 41.8382 40.2634 41.2023 40.7322 40.7335C41.2011 40.2646 41.837 40.0012 42.5 40.0012C43.163 40.0012 43.7989 40.2646 44.2678 40.7335C44.7366 41.2023 45 41.8382 45 42.5012C45 43.1643 44.7366 43.8002 44.2678 44.269C43.7989 44.7379 43.163 45.0012 42.5 45.0012C41.837 45.0012 41.2011 44.7379 40.7322 44.269C40.2634 43.8002 40 43.1643 40 42.5012ZM42.5 75.0012C41.837 75.0012 41.2011 75.2646 40.7322 75.7335C40.2634 76.2023 40 76.8382 40 77.5012C40 78.1643 40.2634 78.8002 40.7322 79.269C41.2011 79.7379 41.837 80.0012 42.5 80.0012C43.163 80.0012 43.7989 79.7379 44.2678 79.269C44.7366 78.8002 45 78.1643 45 77.5012C45 76.8382 44.7366 76.2023 44.2678 75.7335C43.7989 75.2646 43.163 75.0012 42.5 75.0012ZM80 52.5012C80 53.1643 80.2634 53.8002 80.7322 54.269C81.2011 54.7379 81.837 55.0012 82.5 55.0012C83.163 55.0012 83.7989 54.7379 84.2678 54.269C84.7366 53.8002 85 53.1643 85 52.5012C85 51.8382 84.7366 51.2023 84.2678 50.7335C83.7989 50.2646 83.163 50.0012 82.5 50.0012C81.837 50.0012 81.2011 50.2646 80.7322 50.7335C80.2634 51.2023 80 51.8382 80 52.5012Z" fill="#0D80BB"/>
</svg>
