<svg width="120" height="120" viewBox="0 0 120 120" fill="none" xmlns="http://www.w3.org/2000/svg">
<path d="M26.25 15C21.9402 15 17.807 16.712 14.7595 19.7595C11.712 22.807 10 26.9402 10 31.25V76.25C10 80.5598 11.712 84.693 14.7595 87.7405C17.807 90.788 21.9402 92.5 26.25 92.5H78.75C83.0598 92.5 87.193 90.788 90.2405 87.7405C93.288 84.693 95 80.5598 95 76.25V31.25C95 26.9402 93.288 22.807 90.2405 19.7595C87.193 16.712 83.0598 15 78.75 15H26.25ZM40 66.25V38.755C40.0002 38.0819 40.1816 37.4214 40.5251 36.8425C40.8685 36.2637 41.3615 35.788 41.9521 35.4653C42.5428 35.1426 43.2094 34.9849 43.882 35.0086C44.5547 35.0323 45.2085 35.2366 45.775 35.6L68.865 50.395C69.218 50.6212 69.5085 50.9325 69.7097 51.3004C69.9109 51.6682 70.0163 52.0807 70.0163 52.5C70.0163 52.9193 69.9109 53.3318 69.7097 53.6996C69.5085 54.0675 69.218 54.3788 68.865 54.605L45.775 69.4C45.2085 69.7634 44.5547 69.9677 43.882 69.9914C43.2094 70.0151 42.5428 69.8574 41.9521 69.5347C41.3615 69.212 40.8685 68.7363 40.5251 68.1575C40.1816 67.5786 40.0002 66.9181 40 66.245M38.75 105C36.0203 105.001 33.3343 104.315 30.9399 103.004C28.5455 101.693 26.5198 99.8002 25.05 97.5H81.25C86.2228 97.5 90.9919 95.5246 94.5083 92.0083C98.0246 88.4919 100 83.7228 100 78.75V30.05C102.3 31.5198 104.193 33.5455 105.504 35.9399C106.815 38.3343 107.501 41.0203 107.5 43.75V78.75C107.5 93.25 95.75 105 81.25 105H38.75Z" fill="#0D80BB"/>
</svg>
