<svg width="120" height="120" viewBox="0 0 120 120" fill="none" xmlns="http://www.w3.org/2000/svg">
<path d="M33.75 110C32.7999 110 31.8853 109.639 31.191 108.99C30.4968 108.341 30.0746 107.454 30.0099 106.506C29.9451 105.558 30.2426 104.621 30.8422 103.884C31.4417 103.146 32.2987 102.665 33.24 102.535L33.75 102.5H42.495V90.01H21.25C18.3994 90.0104 15.6549 88.9285 13.5712 86.9832C11.4876 85.0378 10.2201 82.3739 10.025 79.53L10 78.76V26.25C9.99965 23.3994 11.0815 20.6549 13.0268 18.5712C14.9722 16.4876 17.6361 15.2201 20.48 15.025L21.25 15H98.745C101.596 14.9996 104.34 16.0815 106.424 18.0268C108.507 19.9722 109.775 22.6361 109.97 25.48L109.995 26.25V78.76C109.995 80.62 109.545 82.375 108.745 83.92L85.27 57.895C84.086 56.5811 82.5316 55.6569 80.8118 55.2442C79.0919 54.8315 77.2874 54.9497 75.6361 55.5832C73.9848 56.2166 72.5642 57.3356 71.5616 58.7927C70.559 60.2497 70.0216 61.9763 70.02 63.745L70.01 90.01H49.99L49.995 102.5H70.005V110H33.75ZM77.43 60.25C78.1378 59.9782 78.9114 59.9273 79.6487 60.104C80.386 60.2807 81.0524 60.6768 81.56 61.24L113.385 96.53C113.923 97.1265 114.255 97.8798 114.332 98.6791C114.41 99.4784 114.228 100.281 113.815 100.97C113.402 101.659 112.779 102.196 112.037 102.504C111.295 102.812 110.474 102.874 109.695 102.68L92.01 98.29L81.86 113.36C81.4109 114.027 80.7596 114.531 80.0021 114.799C79.2445 115.068 78.4208 115.086 77.6523 114.85C76.8838 114.615 76.2113 114.139 75.7337 113.493C75.2562 112.846 74.999 112.064 75 111.26L75.025 63.75C75.0247 62.9925 75.2539 62.2526 75.6823 61.6278C76.1107 61.0031 76.7183 60.5227 77.425 60.25" fill="#0D80BB"/>
</svg>
