<svg width="120" height="120" viewBox="0 0 120 120" fill="none" xmlns="http://www.w3.org/2000/svg">
<path d="M35 31.2656V35.0006H21.25C18.2663 35.0006 15.4048 36.1859 13.295 38.2957C11.1853 40.4055 10 43.2669 10 46.2506V57.5006H32.5V53.7506C32.5 52.7561 32.8951 51.8022 33.5983 51.099C34.3016 50.3957 35.2554 50.0006 36.25 50.0006C37.2446 50.0006 38.1984 50.3957 38.9017 51.099C39.6049 51.8022 40 52.7561 40 53.7506V57.5006H80V53.7506C80 52.7561 80.3951 51.8022 81.0983 51.099C81.8016 50.3957 82.7554 50.0006 83.75 50.0006C84.7446 50.0006 85.6984 50.3957 86.4017 51.099C87.1049 51.8022 87.5 52.7561 87.5 53.7506V57.5006H110V46.2506C110 43.2669 108.815 40.4055 106.705 38.2957C104.595 36.1859 101.734 35.0006 98.75 35.0006H85V31.2656C85 28.2819 83.8147 25.4205 81.705 23.3107C79.5952 21.2009 76.7337 20.0156 73.75 20.0156H46.25C43.2663 20.0156 40.4048 21.2009 38.295 23.3107C36.1853 25.4205 35 28.2819 35 31.2656ZM46.25 27.5156H73.75C74.7446 27.5156 75.6984 27.9107 76.4016 28.614C77.1049 29.3172 77.5 30.2711 77.5 31.2656V35.0006H42.5V31.2656C42.5 30.2711 42.8951 29.3172 43.5984 28.614C44.3016 27.9107 45.2554 27.5156 46.25 27.5156ZM110 65.0006H87.5V71.2506C87.5 72.2452 87.1049 73.199 86.4017 73.9023C85.6984 74.6055 84.7446 75.0006 83.75 75.0006C82.7554 75.0006 81.8016 74.6055 81.0983 73.9023C80.3951 73.199 80 72.2452 80 71.2506V65.0006H40V71.2506C40 72.2452 39.6049 73.199 38.9017 73.9023C38.1984 74.6055 37.2446 75.0006 36.25 75.0006C35.2554 75.0006 34.3016 74.6055 33.5983 73.9023C32.8951 73.199 32.5 72.2452 32.5 71.2506V65.0006H10V88.7356C10 91.7193 11.1853 94.5808 13.295 96.6906C15.4048 98.8004 18.2663 99.9856 21.25 99.9856H98.75C101.734 99.9856 104.595 98.8004 106.705 96.6906C108.815 94.5808 110 91.7193 110 88.7356V65.0006Z" fill="#0D80BB"/>
</svg>
