<svg width="120" height="120" viewBox="0 0 120 120" fill="none" xmlns="http://www.w3.org/2000/svg">
<path d="M10 107.5V15C10 13.6739 10.5268 12.4021 11.4645 11.4645C12.4021 10.5268 13.6739 10 15 10C16.3261 10 17.5979 10.5268 18.5355 11.4645C19.4732 12.4021 20 13.6739 20 15V19.775H104.89C106.218 19.8165 107.478 20.3734 108.403 21.3276C109.328 22.2819 109.845 23.5586 109.845 24.8875C109.845 26.2164 109.328 27.4931 108.403 28.4474C107.478 29.4016 106.218 29.9585 104.89 30H20V107.5C20 108.163 19.7366 108.799 19.2678 109.268C18.7989 109.737 18.163 110 17.5 110H12.5C11.837 110 11.2011 109.737 10.7322 109.268C10.2634 108.799 10 108.163 10 107.5ZM25 37.5C25 36.837 25.2634 36.2011 25.7322 35.7322C26.2011 35.2634 26.837 35 27.5 35H97.5C98.163 35 98.7989 35.2634 99.2678 35.7322C99.7366 36.2011 100 36.837 100 37.5V76.25C100 81.2228 98.0246 85.9919 94.5083 89.5083C90.9919 93.0246 86.2228 95 81.25 95H43.75C38.7772 95 34.0081 93.0246 30.4917 89.5083C26.9754 85.9919 25 81.2228 25 76.25V37.5ZM46.75 58.5C46.2012 58.9694 45.7606 59.5522 45.4585 60.2082C45.1564 60.8642 45 61.5778 45 62.3V77.5C45 78.163 45.2634 78.7989 45.7322 79.2678C46.2011 79.7366 46.837 80 47.5 80H56.25C56.5815 80 56.8995 79.8683 57.1339 79.6339C57.3683 79.3995 57.5 79.0815 57.5 78.75V72.5C57.5 71.837 57.7634 71.2011 58.2322 70.7322C58.7011 70.2634 59.337 70 60 70H65C65.663 70 66.2989 70.2634 66.7678 70.7322C67.2366 71.2011 67.5 71.837 67.5 72.5V78.75C67.5 79.44 68.06 80 68.75 80H77.5C78.163 80 78.7989 79.7366 79.2678 79.2678C79.7366 78.7989 80 78.163 80 77.5V62.3C80 61.5778 79.8436 60.8642 79.5415 60.2082C79.2394 59.5522 78.7988 58.9694 78.25 58.5L64.125 46.4C63.6722 46.0127 63.0959 45.7998 62.5 45.7998C61.9041 45.7998 61.3278 46.0127 60.875 46.4L46.75 58.5Z" fill="#0D80BB"/>
</svg>
