<svg width="120" height="120" viewBox="0 0 120 120" fill="none" xmlns="http://www.w3.org/2000/svg">
<path d="M40 22.5C40 19.1848 41.317 16.0054 43.6612 13.6612C46.0054 11.317 49.1848 10 52.5 10C55.8152 10 58.9946 11.317 61.3388 13.6612C63.683 16.0054 65 19.1848 65 22.5V30H81.895C84.877 30.0013 87.7364 31.1864 89.845 33.295L103.9 47.345C104.248 47.6933 104.525 48.1068 104.714 48.5619C104.902 49.017 104.999 49.5048 104.999 49.9975C104.999 50.4902 104.902 50.978 104.714 51.4331C104.525 51.8882 104.248 52.3017 103.9 52.65L89.85 66.705C88.8053 67.7497 87.5651 68.5783 86.2002 69.1437C84.8353 69.709 83.3724 70 81.895 70H65V103.75C65 107.2 62.2 110 58.75 110H46.25C42.8 110 40 107.2 40 103.75V70H26.25C23.2663 70 20.4048 68.8147 18.295 66.705C16.1853 64.5952 15 61.7337 15 58.75V41.25C15 38.2663 16.1853 35.4048 18.295 33.295C20.4048 31.1853 23.2663 30 26.25 30H40V22.5ZM57.5 22.5C57.5 21.1739 56.9732 19.9021 56.0355 18.9645C55.0979 18.0268 53.8261 17.5 52.5 17.5C51.1739 17.5 49.9021 18.0268 48.9645 18.9645C48.0268 19.9021 47.5 21.1739 47.5 22.5V30H57.5V22.5ZM47.5 102.5H57.5V70H47.5V102.5Z" fill="#0D80BB"/>
</svg>
