<svg width="120" height="120" viewBox="0 0 120 120" fill="none" xmlns="http://www.w3.org/2000/svg">
<path d="M82.501 10C78.3409 9.99911 74.2348 10.9421 70.492 12.7578C66.7491 14.5736 63.4669 17.2149 60.8926 20.4828C58.3184 23.7507 56.519 27.5601 55.6301 31.6241C54.7413 35.6881 54.786 39.9008 55.761 43.945L14.206 85.5C12.8509 86.828 11.7725 88.4115 11.0331 90.1588C10.2938 91.9062 9.9082 93.7827 9.89862 95.68C9.88904 97.5773 10.2557 99.4577 10.9773 101.212C11.699 102.967 12.7613 104.561 14.1029 105.903C15.4445 107.245 17.0388 108.307 18.7935 109.029C20.5483 109.75 22.4286 110.117 24.3259 110.107C26.2232 110.098 28.0998 109.712 29.8472 108.973C31.5945 108.234 33.178 107.155 34.506 105.8L76.071 64.245C78.141 64.745 80.2843 64.9967 82.501 65C86.8619 65.0017 91.1607 63.9663 95.0425 61.9792C98.9244 59.9921 102.278 57.1103 104.827 53.5716C107.375 50.033 109.046 45.939 109.7 41.6274C110.355 37.3159 109.975 32.9106 108.591 28.775C108.388 28.1689 108.034 27.6247 107.562 27.194C107.09 26.7633 106.515 26.4604 105.893 26.3141C105.271 26.1679 104.622 26.183 104.007 26.3582C103.392 26.5334 102.833 26.8627 102.381 27.315L90.161 39.535C89.4578 40.2373 88.5047 40.6317 87.511 40.6317C86.5172 40.6317 85.5641 40.2373 84.861 39.535L80.466 35.145C79.7637 34.4419 79.3693 33.4888 79.3693 32.495C79.3693 31.5013 79.7637 30.5481 80.466 29.845L92.691 17.62C93.142 17.168 93.4701 16.6083 93.6442 15.994C93.8183 15.3797 93.8327 14.7311 93.686 14.1096C93.5393 13.4882 93.2363 12.9145 92.8058 12.4429C92.3753 11.9714 91.8315 11.6176 91.226 11.415C88.413 10.476 85.4666 9.99813 82.501 10Z" fill="#0D80BB"/>
</svg>
