<svg width="120" height="120" viewBox="0 0 120 120" fill="none" xmlns="http://www.w3.org/2000/svg">
<path d="M18.75 15C17.7554 15 16.8016 15.3951 16.0983 16.0983C15.3951 16.8016 15 17.7554 15 18.75C15 19.7446 15.3951 20.6984 16.0983 21.4017C16.8016 22.1049 17.7554 22.5 18.75 22.5H23.96L10.275 56.085C10.0984 56.5361 10.0052 57.0156 10 57.5C10 59.7981 10.4527 62.0738 11.3321 64.197C12.2116 66.3202 13.5006 68.2493 15.1256 69.8744C16.7507 71.4994 18.6798 72.7884 20.803 73.6679C22.9262 74.5474 25.2019 75 27.5 75C29.7981 75 32.0738 74.5474 34.197 73.6679C36.3202 72.7884 38.2493 71.4994 39.8744 69.8744C41.4994 68.2493 42.7884 66.3202 43.6679 64.197C44.5474 62.0738 45 59.7981 45 57.5C44.9948 57.0156 44.9016 56.5361 44.725 56.085L31.04 22.5H56.25V82.5H36.265C33.2813 82.5 30.4198 83.6853 28.31 85.795C26.2003 87.9048 25.015 90.7663 25.015 93.75C25.015 96.7337 26.2003 99.5952 28.31 101.705C30.4198 103.815 33.2813 105 36.265 105H83.75C86.7337 105 89.5952 103.815 91.705 101.705C93.8147 99.5952 95 96.7337 95 93.75C95 90.7663 93.8147 87.9048 91.705 85.795C89.5952 83.6853 86.7337 82.5 83.75 82.5H63.75V22.5H88.96L75.275 56.085C75.0984 56.5361 75.0052 57.0156 75 57.5C75 62.1413 76.8437 66.5925 80.1256 69.8744C83.4075 73.1563 87.8587 75 92.5 75C97.1413 75 101.592 73.1563 104.874 69.8744C108.156 66.5925 110 62.1413 110 57.5C109.995 57.0156 109.902 56.5361 109.725 56.085L96.04 22.5H101.25C102.245 22.5 103.198 22.1049 103.902 21.4017C104.605 20.6984 105 19.7446 105 18.75C105 17.7554 104.605 16.8016 103.902 16.0983C103.198 15.3951 102.245 15 101.25 15H18.75ZM27.5 33.69L35.675 53.75H19.325L27.5 33.69ZM84.325 53.75L92.5 33.69L100.675 53.75H84.325Z" fill="#0D80BB"/>
</svg>
