<svg width="120" height="120" viewBox="0 0 120 120" fill="none" xmlns="http://www.w3.org/2000/svg">
<path d="M10 40V31.25C10 26.9402 11.712 22.807 14.7595 19.7595C17.807 16.712 21.9402 15 26.25 15H40.645C43.627 15.0013 46.4864 16.1864 48.595 18.295L56.25 25.945L43.295 38.9C42.5924 39.6035 41.6392 39.9991 40.645 40H10ZM10 47.5V88.75C10 93.0598 11.712 97.193 14.7595 100.24C17.807 103.288 21.9402 105 26.25 105H55.75C55.2466 103.168 54.9943 101.275 55 99.375C55 92.485 59.72 85.6 67.06 85.035C65.3608 83.2728 64.0817 81.1495 63.3182 78.8236C62.5547 76.4978 62.3266 74.0295 62.6508 71.6031C62.9751 69.1767 63.8433 66.8549 65.1907 64.8111C66.5382 62.7673 68.3299 61.0544 70.4322 59.8002C72.5345 58.546 74.893 57.783 77.3315 57.5682C79.77 57.3533 82.2256 57.6922 84.5148 58.5595C86.804 59.4268 88.8676 60.8 90.5516 62.5767C92.2357 64.3535 93.4965 66.4877 94.24 68.82C96.7964 66.3643 100.205 64.995 103.75 65C106 65 108.125 65.54 110 66.5V43.75C110 41.616 109.58 39.5029 108.763 37.5314C107.946 35.5599 106.749 33.7685 105.24 32.2595C103.732 30.7506 101.94 29.5536 99.9686 28.737C97.9971 27.9203 95.884 27.5 93.75 27.5H65.3L48.6 44.205C47.5553 45.2497 46.3151 46.0783 44.9502 46.6437C43.5853 47.209 42.1224 47.5 40.645 47.5H10ZM90 73.75C90 76.7337 88.8147 79.5952 86.705 81.705C84.5952 83.8147 81.7337 85 78.75 85C75.7663 85 72.9048 83.8147 70.795 81.705C68.6853 79.5952 67.5 76.7337 67.5 73.75C67.5 70.7663 68.6853 67.9048 70.795 65.795C72.9048 63.6853 75.7663 62.5 78.75 62.5C81.7337 62.5 84.5952 63.6853 86.705 65.795C88.8147 67.9048 90 70.7663 90 73.75ZM97.5 99.375C97.5 107.155 92.145 115 78.75 115C65.355 115 60 107.185 60 99.375C60 94.2 63.6 90 68.035 90H89.465C93.9 90 97.5 94.2 97.5 99.375ZM103.75 87.5C106.071 87.5 108.296 86.5781 109.937 84.9372C111.578 83.2962 112.5 81.0706 112.5 78.75C112.5 76.4294 111.578 74.2038 109.937 72.5628C108.296 70.9219 106.071 70 103.75 70C101.429 70 99.2038 70.9219 97.5628 72.5628C95.9219 74.2038 95 76.4294 95 78.75C95 81.0706 95.9219 83.2962 97.5628 84.9372C99.2038 86.5781 101.429 87.5 103.75 87.5ZM102.49 99.375C102.517 103.115 101.51 106.791 99.58 109.995L100.02 110C110.735 110 115.02 104.51 115.02 99.065C115.02 95.44 112.145 92.5 108.59 92.5H100.89C101.93 94.62 102.49 97 102.49 99.375Z" fill="#0D80BB"/>
</svg>
