<svg width="120" height="120" viewBox="0 0 120 120" fill="none" xmlns="http://www.w3.org/2000/svg">
<path d="M54.7251 10.235L54.7501 10.27C56.4767 10.09 58.2267 10 60.0001 10C87.1951 10 109.32 31.71 109.985 58.75C104.155 57.54 95.7451 56.785 83.8451 58.365C80.8155 58.7649 77.8588 59.5967 75.0651 60.835L74.9601 60.3C74.798 59.3854 74.5725 58.4832 74.2851 57.6L74.1901 57.415L73.8701 56.89C73.509 56.3495 73.1305 55.8209 72.7351 55.305L72.1851 54.59C71.3851 53.53 70.4201 52.275 69.6051 51.03C68.6251 49.54 67.5201 47.59 67.1701 45.51C66.9468 44.2833 67.0415 43.0198 67.4451 41.84C67.9101 40.52 68.7651 39.43 69.8751 38.595C72.2951 36.785 75.8451 32.735 78.9951 28.8C80.4301 27.005 81.7151 25.325 82.6751 24.05C75.6621 19.6109 67.4982 17.333 59.2001 17.5C59.8101 18.725 60.4701 20.165 61.0651 21.75C62.8001 26.365 64.3951 33.16 61.5651 39.185C58.9551 44.75 54.4451 46.185 51.1151 47.05L50.6901 47.155C47.4101 48.005 46.1501 48.33 45.2301 49.725C44.3801 51.01 44.5101 52.635 45.5351 55.975L45.7651 56.715C46.1701 58.005 46.6651 59.565 46.9151 61.03C47.2351 62.85 47.3201 65.165 46.1551 67.405C45.1675 69.3989 43.5984 71.0464 41.6551 72.13C39.9501 73.055 38.1851 73.41 36.8651 73.64L36.4001 73.725C33.8251 74.175 32.5951 74.395 31.4001 75.675C30.4651 76.675 29.8651 78.44 29.5101 81.07C29.3701 82.14 29.2851 83.205 29.1951 84.3L29.1451 84.885C29.0451 86.095 28.9251 87.49 28.6501 88.685V88.695C35.9454 96.6781 46.0155 101.572 56.8001 102.375C55.9251 104.89 55.3501 107.375 55.1101 109.76C48.3513 109.096 41.7985 107.063 35.8515 103.783C29.9045 100.504 24.688 96.0469 20.5201 90.685H20.5051V90.67C13.6806 81.9045 9.98294 71.1089 10.0001 60C10.0001 34.19 29.5551 12.95 54.6601 10.28L54.7251 10.235ZM60.0251 111.03C60.3251 106.2 62.5001 100.32 66.1901 94.77C67.4722 92.6069 68.9554 90.5696 70.6201 88.685C76.5527 81.9354 84.3898 77.14 93.1001 74.93C93.7391 74.7651 94.2869 74.3541 94.6242 73.7869C94.9614 73.2196 95.0607 72.542 94.9003 71.9018C94.7399 71.2617 94.3329 70.7109 93.7681 70.3696C93.2032 70.0283 92.5264 69.9242 91.8851 70.08C82.1904 72.537 73.4674 77.8729 66.8651 85.385C65.5506 86.8747 64.3363 88.4498 63.2301 90.1C62.7401 88.4443 62.4908 86.7267 62.4901 85C62.4901 80.42 64.8251 75.435 68.5251 71.49C72.7456 67.002 78.3908 64.115 84.5001 63.32C98.5001 61.47 107.19 63.02 112.315 64.455C113.006 64.6497 113.627 65.0386 114.103 65.5756C114.579 66.1125 114.892 66.7749 115.003 67.4841C115.114 68.1933 115.019 68.9195 114.73 69.5764C114.44 70.2333 113.968 70.7934 113.37 71.19C113.085 71.38 112.625 71.84 112.07 72.89C111.416 74.215 110.88 75.5954 110.47 77.015C110.035 78.44 109.62 79.975 109.17 81.645L108.88 82.705C108.325 84.755 107.71 86.955 106.97 89.135C105.51 93.445 103.45 98.04 99.9851 101.575C96.3901 105.24 91.5101 107.525 84.9901 107.525C78.3451 107.525 73.7051 104.83 70.7401 101.73C68.7201 105.43 67.6701 108.915 67.5101 111.485C67.4887 111.983 67.3684 112.471 67.1562 112.922C66.944 113.372 66.6442 113.776 66.2742 114.109C65.9043 114.443 65.4716 114.699 65.0014 114.864C64.5313 115.028 64.0331 115.097 63.536 115.067C63.0388 115.037 62.5527 114.908 62.1059 114.688C61.6592 114.468 61.2607 114.161 60.9339 113.785C60.607 113.409 60.3583 112.972 60.2023 112.499C60.0463 112.026 59.986 111.527 60.0251 111.03Z" fill="#0D80BB"/>
</svg>
