<svg width="120" height="120" viewBox="0 0 120 120" fill="none" xmlns="http://www.w3.org/2000/svg">
<path d="M35 80C36.3261 80 37.5979 79.4732 38.5355 78.5355C39.4732 77.5979 40 76.3261 40 75C40 73.6739 39.4732 72.4021 38.5355 71.4645C37.5979 70.5268 36.3261 70 35 70C33.6739 70 32.4021 70.5268 31.4645 71.4645C30.5268 72.4021 30 73.6739 30 75C30 76.3261 30.5268 77.5979 31.4645 78.5355C32.4021 79.4732 33.6739 80 35 80ZM40 90C40 91.3261 39.4732 92.5979 38.5355 93.5355C37.5979 94.4732 36.3261 95 35 95C33.6739 95 32.4021 94.4732 31.4645 93.5355C30.5268 92.5979 30 91.3261 30 90C30 88.6739 30.5268 87.4021 31.4645 86.4645C32.4021 85.5268 33.6739 85 35 85C36.3261 85 37.5979 85.5268 38.5355 86.4645C39.4732 87.4021 40 88.6739 40 90ZM35 65C36.3261 65 37.5979 64.4732 38.5355 63.5355C39.4732 62.5979 40 61.3261 40 60C40 58.6739 39.4732 57.4021 38.5355 56.4645C37.5979 55.5268 36.3261 55 35 55C33.6739 55 32.4021 55.5268 31.4645 56.4645C30.5268 57.4021 30 58.6739 30 60C30 61.3261 30.5268 62.5979 31.4645 63.5355C32.4021 64.4732 33.6739 65 35 65ZM40 45C40 46.3261 39.4732 47.5979 38.5355 48.5355C37.5979 49.4732 36.3261 50 35 50C33.6739 50 32.4021 49.4732 31.4645 48.5355C30.5268 47.5979 30 46.3261 30 45C30 43.6739 30.5268 42.4021 31.4645 41.4645C32.4021 40.5268 33.6739 40 35 40C36.3261 40 37.5979 40.5268 38.5355 41.4645C39.4732 42.4021 40 43.6739 40 45ZM35 35C36.3261 35 37.5979 34.4732 38.5355 33.5355C39.4732 32.5979 40 31.3261 40 30C40 28.6739 39.4732 27.4021 38.5355 26.4645C37.5979 25.5268 36.3261 25 35 25C33.6739 25 32.4021 25.5268 31.4645 26.4645C30.5268 27.4021 30 28.6739 30 30C30 31.3261 30.5268 32.5979 31.4645 33.5355C32.4021 34.4732 33.6739 35 35 35ZM70 21.25V25H93.75C96.7337 25 99.5952 26.1853 101.705 28.295C103.815 30.4048 105 33.2663 105 36.25V103.75C105 104.745 104.605 105.698 103.902 106.402C103.198 107.105 102.245 107.5 101.25 107.5H86.25V93.75C86.25 93.087 85.9866 92.4511 85.5178 91.9822C85.0489 91.5134 84.413 91.25 83.75 91.25H71.25C70.587 91.25 69.9511 91.5134 69.4822 91.9822C69.0134 92.4511 68.75 93.087 68.75 93.75V107.5H18.75C17.7554 107.5 16.8016 107.105 16.0983 106.402C15.3951 105.698 15 104.745 15 103.75V21.25C15 18.2663 16.1853 15.4048 18.295 13.295C20.4048 11.1853 23.2663 10 26.25 10H58.75C61.7337 10 64.5952 11.1853 66.705 13.295C68.8147 15.4048 70 18.2663 70 21.25ZM26.25 17.5C25.2554 17.5 24.3016 17.8951 23.5983 18.5983C22.8951 19.3016 22.5 20.2554 22.5 21.25V100H50V36.25C50 33.2663 51.1853 30.4048 53.295 28.295C55.4048 26.1853 58.2663 25 61.25 25H62.5V21.25C62.5 20.2554 62.1049 19.3016 61.4016 18.5983C60.6984 17.8951 59.7446 17.5 58.75 17.5H26.25ZM90 75C90 73.6739 89.4732 72.4021 88.5355 71.4645C87.5979 70.5268 86.3261 70 85 70C83.6739 70 82.4021 70.5268 81.4645 71.4645C80.5268 72.4021 80 73.6739 80 75C80 76.3261 80.5268 77.5979 81.4645 78.5355C82.4021 79.4732 83.6739 80 85 80C86.3261 80 87.5979 79.4732 88.5355 78.5355C89.4732 77.5979 90 76.3261 90 75ZM70 80C71.3261 80 72.5979 79.4732 73.5355 78.5355C74.4732 77.5979 75 76.3261 75 75C75 73.6739 74.4732 72.4021 73.5355 71.4645C72.5979 70.5268 71.3261 70 70 70C68.6739 70 67.4021 70.5268 66.4645 71.4645C65.5268 72.4021 65 73.6739 65 75C65 76.3261 65.5268 77.5979 66.4645 78.5355C67.4021 79.4732 68.6739 80 70 80ZM90 60C90 58.6739 89.4732 57.4021 88.5355 56.4645C87.5979 55.5268 86.3261 55 85 55C83.6739 55 82.4021 55.5268 81.4645 56.4645C80.5268 57.4021 80 58.6739 80 60C80 61.3261 80.5268 62.5979 81.4645 63.5355C82.4021 64.4732 83.6739 65 85 65C86.3261 65 87.5979 64.4732 88.5355 63.5355C89.4732 62.5979 90 61.3261 90 60ZM70 65C71.3261 65 72.5979 64.4732 73.5355 63.5355C74.4732 62.5979 75 61.3261 75 60C75 58.6739 74.4732 57.4021 73.5355 56.4645C72.5979 55.5268 71.3261 55 70 55C68.6739 55 67.4021 55.5268 66.4645 56.4645C65.5268 57.4021 65 58.6739 65 60C65 61.3261 65.5268 62.5979 66.4645 63.5355C67.4021 64.4732 68.6739 65 70 65ZM90 45C90 43.6739 89.4732 42.4021 88.5355 41.4645C87.5979 40.5268 86.3261 40 85 40C83.6739 40 82.4021 40.5268 81.4645 41.4645C80.5268 42.4021 80 43.6739 80 45C80 46.3261 80.5268 47.5979 81.4645 48.5355C82.4021 49.4732 83.6739 50 85 50C86.3261 50 87.5979 49.4732 88.5355 48.5355C89.4732 47.5979 90 46.3261 90 45ZM70 50C71.3261 50 72.5979 49.4732 73.5355 48.5355C74.4732 47.5979 75 46.3261 75 45C75 43.6739 74.4732 42.4021 73.5355 41.4645C72.5979 40.5268 71.3261 40 70 40C68.6739 40 67.4021 40.5268 66.4645 41.4645C65.5268 42.4021 65 43.6739 65 45C65 46.3261 65.5268 47.5979 66.4645 48.5355C67.4021 49.4732 68.6739 50 70 50Z" fill="#0D80BB"/>
</svg>
