<svg width="120" height="120" viewBox="0 0 120 120" fill="none" xmlns="http://www.w3.org/2000/svg">
<path d="M64.1741 15.8056C64.4503 15.5921 64.6974 15.3433 64.9091 15.0656H77.7191L77.8941 15.0606C78.8017 15.0111 79.7114 15.0111 80.6191 15.0606H80.8091C83.656 15.0512 86.4686 15.6818 89.0391 16.9056C93.7364 18.7497 97.7998 21.9136 100.739 26.0156C102.966 29.1212 104.48 32.6794 105.175 36.437C105.87 40.1946 105.728 44.0591 104.759 47.7556L88.3541 31.5706C87.6519 30.8781 86.7052 30.4901 85.7191 30.4906H61.8441C61.078 30.5217 60.3398 30.787 59.7291 31.2506L50.3091 38.3906C49.2862 39.1677 47.9968 39.5073 46.7238 39.3349C45.4508 39.1624 44.2983 38.4919 43.5191 37.4706C43.1346 36.9728 42.8529 36.4036 42.6902 35.7961C42.5275 35.1885 42.4871 34.5547 42.5712 33.9314C42.6554 33.3082 42.8626 32.7078 43.1806 32.1652C43.4987 31.6226 43.9214 31.1485 44.4241 30.7706L64.1741 15.8056ZM39.4941 71.1756L39.4241 71.2406L34.5541 76.0806L34.4891 76.1406C33.6362 76.9516 32.5012 77.3988 31.3244 77.3876C30.1476 77.3764 29.0213 76.9076 28.1841 76.0806C27.7646 75.6666 27.4315 75.1735 27.2041 74.6297C26.9768 74.086 26.8597 73.5025 26.8597 72.9131C26.8597 72.3237 26.9768 71.7402 27.2041 71.1965C27.4315 70.6527 27.7646 70.1596 28.1841 69.7456L33.0541 64.9056C33.9023 64.0656 35.0478 63.5944 36.2416 63.5944C37.4353 63.5944 38.5808 64.0656 39.4291 64.9056C40.2652 65.7306 40.7413 66.8527 40.7535 68.0272C40.7656 69.2017 40.3129 70.3335 39.4941 71.1756ZM38.0391 79.6656C37.2202 80.5077 36.7675 81.6394 36.7797 82.814C36.7919 83.9885 37.2679 85.1106 38.1041 85.9356C39.8641 87.6856 42.7191 87.6856 44.4791 85.9356L49.3491 81.0956C49.8212 80.6275 50.1826 80.0597 50.407 79.4339C50.6314 78.808 50.713 78.14 50.6459 77.4785C50.5788 76.8171 50.3646 76.179 50.0192 75.611C49.6737 75.043 49.2056 74.5594 48.6491 74.1956C47.7948 73.6335 46.7755 73.377 45.7569 73.4678C44.7384 73.5585 43.7805 73.9913 43.0391 74.6956L42.9741 74.7656L38.1041 79.6006L38.0391 79.6656ZM27.4991 57.0356C27.9186 57.4496 28.2517 57.9427 28.479 58.4865C28.7064 59.0302 28.8235 59.6137 28.8235 60.2031C28.8235 60.7925 28.7064 61.376 28.479 61.9197C28.2517 62.4635 27.9186 62.9566 27.4991 63.3706L22.6291 68.2106C21.7808 69.0506 20.6353 69.5218 19.4416 69.5218C18.2478 69.5218 17.1023 69.0506 16.2541 68.2106C15.8346 67.7966 15.5015 67.3035 15.2741 66.7597C15.0468 66.216 14.9297 65.6325 14.9297 65.0431C14.9297 64.4537 15.0468 63.8702 15.2741 63.3265C15.5015 62.7827 15.8346 62.2896 16.2541 61.8756L21.1241 57.0356C21.9723 56.1956 23.1178 55.7244 24.3116 55.7244C25.5053 55.7244 26.6508 56.1956 27.4991 57.0356ZM59.2641 84.6206C59.6836 85.0346 60.0167 85.5277 60.244 86.0715C60.4714 86.6152 60.5885 87.1987 60.5885 87.7881C60.5885 88.3775 60.4714 88.961 60.244 89.5047C60.0167 90.0485 59.6836 90.5416 59.2641 90.9556L54.3941 95.7956C53.5458 96.6356 52.4003 97.1068 51.2066 97.1068C50.0128 97.1068 48.8673 96.6356 48.0191 95.7956C47.3536 95.138 46.9123 94.2874 46.7579 93.3646C46.6036 92.4419 46.7439 91.494 47.1591 90.6556L47.1641 90.6456C47.3826 90.2066 47.6714 89.8064 48.0191 89.4606L52.8891 84.6206C53.7373 83.7806 54.8828 83.3094 56.0766 83.3094C57.2703 83.3094 58.4158 83.7806 59.2641 84.6206ZM26.7191 24.1506C30.0392 20.8526 34.065 18.3518 38.4928 16.8369C42.9205 15.322 47.6346 14.8326 52.2791 15.4056L39.8991 24.7906C38.6085 25.7653 37.5236 26.986 36.7072 28.3822C35.8908 29.7784 35.3589 31.3224 35.1423 32.9252C34.9257 34.5279 35.0286 36.1578 35.4451 37.7206C35.8617 39.2834 36.5835 40.7482 37.5691 42.0306C39.5563 44.6209 42.4874 46.3202 45.7228 46.7576C48.9582 47.1951 52.2353 46.3352 54.8391 44.3656L63.2591 37.9906H84.1841L101.719 55.2906L101.899 55.4906L107.649 61.2406C108.943 62.5521 109.684 64.3097 109.72 66.1513C109.756 67.993 109.085 69.7784 107.844 71.1398C106.603 72.5011 104.887 73.3347 103.05 73.4688C101.213 73.6029 99.3945 73.0273 97.9691 71.8606L97.4891 71.3806L97.1891 71.1206L91.7241 65.6606C91.4935 65.4218 91.2176 65.2314 90.9126 65.1003C90.6076 64.9693 90.2795 64.9004 89.9476 64.8975C89.6156 64.8946 89.2864 64.9578 88.9792 65.0835C88.6719 65.2092 88.3928 65.3949 88.1581 65.6296C87.9234 65.8643 87.7377 66.1435 87.612 66.4507C87.4863 66.7579 87.4231 67.0871 87.4259 67.4191C87.4288 67.751 87.4978 68.0791 87.6288 68.3841C87.7598 68.6891 87.9503 68.965 88.1891 69.1956L93.9391 74.9456C94.1491 75.1523 94.3624 75.3506 94.5791 75.5406L94.7991 75.7606C95.2806 76.2318 95.6638 76.7938 95.9266 77.4142C96.1895 78.0345 96.3267 78.7008 96.3303 79.3745C96.3339 80.0482 96.2039 80.7159 95.9478 81.339C95.6917 81.9621 95.3145 82.5282 94.8381 83.0046C94.3617 83.481 93.7956 83.8582 93.1725 84.1143C92.5494 84.3704 91.8816 84.5005 91.2079 84.4968C90.5343 84.4932 89.868 84.356 89.2476 84.0932C88.6273 83.8303 88.0653 83.4471 87.5941 82.9656L86.7441 82.1206C86.3915 81.7689 85.9419 81.5306 85.4529 81.4361C84.964 81.3416 84.458 81.3954 83.9997 81.5904C83.5415 81.7854 83.152 82.1128 82.881 82.5306C82.6101 82.9484 82.4701 83.4377 82.4791 83.9356C82.4718 84.2737 82.5332 84.6097 82.6595 84.9234C82.7858 85.2371 82.9745 85.5219 83.2141 85.7606L84.3291 86.8756C84.7886 87.3082 85.1565 87.8287 85.4111 88.4062C85.6657 88.9837 85.8018 89.6064 85.8113 90.2375C85.8208 90.8685 85.7035 91.495 85.4664 92.0799C85.2293 92.6648 84.8771 93.1961 84.4309 93.6424C83.9846 94.0886 83.4533 94.4408 82.8684 94.6779C82.2835 94.915 81.657 95.0323 81.0259 95.0228C80.3949 95.0133 79.7722 94.8773 79.1947 94.6227C78.6172 94.368 78.0967 94.0001 77.6641 93.5406H77.6591L77.5991 93.4756L76.5491 92.4256C76.318 92.1917 76.0427 92.0061 75.7393 91.8793C75.4359 91.7526 75.1104 91.6874 74.7816 91.6874C74.4528 91.6874 74.1272 91.7526 73.8238 91.8793C73.5204 92.0061 73.2452 92.1917 73.0141 92.4256C72.5454 92.8944 72.2821 93.5302 72.2821 94.1931C72.2821 94.856 72.5454 95.4918 73.0141 95.9606L74.1041 97.0556C74.5529 97.4988 74.91 98.0261 75.155 98.6073C75.4 99.1885 75.5282 99.8123 75.5321 100.443C75.536 101.074 75.4157 101.699 75.178 102.283C74.9403 102.868 74.5898 103.399 74.1466 103.848C73.7034 104.297 73.1761 104.654 72.5949 104.899C72.0137 105.144 71.3899 105.272 70.7591 105.276C70.1284 105.28 69.503 105.16 68.9188 104.922C68.3346 104.684 67.8029 104.334 67.3541 103.891L60.1991 97.0906L62.8241 94.4806C63.7083 93.6047 64.4102 92.5623 64.8892 91.4136C65.3682 90.2649 65.6148 89.0327 65.6148 87.7881C65.6148 86.5435 65.3682 85.3113 64.8892 84.1626C64.4102 83.0139 63.7083 81.9715 62.8241 81.0956C61.8899 80.1648 60.7722 79.4388 59.5421 78.9636C58.3119 78.4884 56.9964 78.2745 55.6791 78.3356C55.7374 77.0236 55.5201 75.7139 55.0413 74.4911C54.5625 73.2682 53.8327 72.1592 52.8991 71.2356C51.9655 70.3055 50.8486 69.5798 49.6194 69.1046C48.3902 68.6295 47.0755 68.4152 45.7591 68.4756C45.8167 67.1644 45.5991 65.8557 45.1203 64.6338C44.6415 63.4118 43.9121 62.3036 42.9791 61.3806C41.7914 60.2007 40.3144 59.3537 38.6962 58.9245C37.078 58.4954 35.3754 58.4992 33.7591 58.9356C33.4812 56.8782 32.5301 54.9706 31.0541 53.5106C29.4092 51.8802 27.2288 50.9016 24.9174 50.7563C22.6059 50.6111 20.3202 51.309 18.4841 52.7206C17.3051 47.6515 17.4429 42.365 18.8844 37.3642C20.3258 32.3633 23.0229 27.8145 26.7191 24.1506Z" fill="#0D80BB"/>
</svg>
