<svg width="120" height="120" viewBox="0 0 120 120" fill="none" xmlns="http://www.w3.org/2000/svg">
<path d="M37.5 40C41.4782 40 45.2936 38.4196 48.1066 35.6066C50.9196 32.7936 52.5 28.9782 52.5 25C52.5 21.0218 50.9196 17.2064 48.1066 14.3934C45.2936 11.5804 41.4782 10 37.5 10C33.5218 10 29.7064 11.5804 26.8934 14.3934C24.0804 17.2064 22.5 21.0218 22.5 25C22.5 28.9782 24.0804 32.7936 26.8934 35.6066C29.7064 38.4196 33.5218 40 37.5 40ZM10 53.84C10 48.95 13.955 45 18.84 45H42.675C40.9212 48.0408 39.9986 51.4897 40 55C39.9998 57.8374 40.6034 60.6424 41.7707 63.2286C42.9379 65.8148 44.6421 68.123 46.77 70H41.34C38.522 70.0001 35.7711 70.8598 33.4545 72.4644C31.1379 74.0689 29.3659 76.3419 28.375 78.98C20.885 77.15 16.24 73.065 13.505 68.515C10 62.68 10 56.68 10 55.635V53.84ZM80 55C80.0014 51.4897 79.0788 48.0408 77.325 45H101.16C106.05 45 110 48.955 110 53.84V55.64C110 56.675 110 62.68 106.5 68.515C103.76 73.065 99.115 77.15 91.625 78.98C90.6341 76.3419 88.8621 74.0689 86.5455 72.4644C84.2289 70.8598 81.478 70.0001 78.66 70H73.23C75.3579 68.123 77.0621 65.8148 78.2293 63.2286C79.3966 60.6424 80.0002 57.8374 80 55ZM97.5 25C97.5 28.9782 95.9196 32.7936 93.1066 35.6066C90.2936 38.4196 86.4782 40 82.5 40C78.5218 40 74.7064 38.4196 71.8934 35.6066C69.0804 32.7936 67.5 28.9782 67.5 25C67.5 21.0218 69.0804 17.2064 71.8934 14.3934C74.7064 11.5804 78.5218 10 82.5 10C86.4782 10 90.2936 11.5804 93.1066 14.3934C95.9196 17.2064 97.5 21.0218 97.5 25ZM32.5 83.84C32.5 78.95 36.455 75 41.34 75H78.66C83.545 75 87.5 78.955 87.5 83.84V85.64C87.5 86.675 87.5 92.68 84 98.515C80.285 104.685 73.065 110 60 110C46.935 110 39.71 104.685 36 98.515C32.5 92.68 32.5 86.68 32.5 85.635V83.84ZM60 70C61.9698 70 63.9204 69.612 65.7403 68.8582C67.5601 68.1044 69.2137 66.9995 70.6066 65.6066C71.9995 64.2137 73.1044 62.5601 73.8582 60.7403C74.612 58.9204 75 56.9698 75 55C75 53.0302 74.612 51.0796 73.8582 49.2597C73.1044 47.4399 71.9995 45.7863 70.6066 44.3934C69.2137 43.0005 67.5601 41.8956 65.7403 41.1418C63.9204 40.388 61.9698 40 60 40C56.0218 40 52.2064 41.5804 49.3934 44.3934C46.5804 47.2064 45 51.0218 45 55C45 58.9782 46.5804 62.7936 49.3934 65.6066C52.2064 68.4196 56.0218 70 60 70Z" fill="#0D80BB"/>
</svg>
