<svg width="120" height="120" viewBox="0 0 120 120" fill="none" xmlns="http://www.w3.org/2000/svg">
<path d="M17.5 10C15.5109 10 13.6032 10.7902 12.1967 12.1967C10.7902 13.6032 10 15.5109 10 17.5V82.5C10 84.4891 10.7902 86.3968 12.1967 87.8033C13.6032 89.2098 15.5109 90 17.5 90H45V73.42C45 69.605 46.58 65.97 49.37 63.37L70 44.105V42.5C70 40.5109 69.2098 38.6032 67.8033 37.1967C66.3968 35.7902 64.4891 35 62.5 35H55V17.5C55 15.5109 54.2098 13.6032 52.8033 12.1967C51.3968 10.7902 49.4891 10 47.5 10H17.5ZM30 28.75C30 29.7446 29.6049 30.6984 28.9017 31.4017C28.1984 32.1049 27.2446 32.5 26.25 32.5C25.2554 32.5 24.3016 32.1049 23.5983 31.4017C22.8951 30.6984 22.5 29.7446 22.5 28.75C22.5 27.7554 22.8951 26.8016 23.5983 26.0983C24.3016 25.3951 25.2554 25 26.25 25C27.2446 25 28.1984 25.3951 28.9017 26.0983C29.6049 26.8016 30 27.7554 30 28.75ZM26.25 47.5C25.2554 47.5 24.3016 47.1049 23.5983 46.4016C22.8951 45.6984 22.5 44.7446 22.5 43.75C22.5 42.7554 22.8951 41.8016 23.5983 41.0984C24.3016 40.3951 25.2554 40 26.25 40C27.2446 40 28.1984 40.3951 28.9017 41.0984C29.6049 41.8016 30 42.7554 30 43.75C30 44.7446 29.6049 45.6984 28.9017 46.4016C28.1984 47.1049 27.2446 47.5 26.25 47.5ZM30 58.75C30 59.7446 29.6049 60.6984 28.9017 61.4016C28.1984 62.1049 27.2446 62.5 26.25 62.5C25.2554 62.5 24.3016 62.1049 23.5983 61.4016C22.8951 60.6984 22.5 59.7446 22.5 58.75C22.5 57.7554 22.8951 56.8016 23.5983 56.0984C24.3016 55.3951 25.2554 55 26.25 55C27.2446 55 28.1984 55.3951 28.9017 56.0984C29.6049 56.8016 30 57.7554 30 58.75ZM38.75 32.5C37.7554 32.5 36.8016 32.1049 36.0983 31.4017C35.3951 30.6984 35 29.7446 35 28.75C35 27.7554 35.3951 26.8016 36.0983 26.0983C36.8016 25.3951 37.7554 25 38.75 25C39.7446 25 40.6984 25.3951 41.4016 26.0983C42.1049 26.8016 42.5 27.7554 42.5 28.75C42.5 29.7446 42.1049 30.6984 41.4016 31.4017C40.6984 32.1049 39.7446 32.5 38.75 32.5ZM42.5 43.75C42.5 44.7446 42.1049 45.6984 41.4016 46.4016C40.6984 47.1049 39.7446 47.5 38.75 47.5C37.7554 47.5 36.8016 47.1049 36.0983 46.4016C35.3951 45.6984 35 44.7446 35 43.75C35 42.7554 35.3951 41.8016 36.0983 41.0984C36.8016 40.3951 37.7554 40 38.75 40C39.7446 40 40.6984 40.3951 41.4016 41.0984C42.1049 41.8016 42.5 42.7554 42.5 43.75ZM38.75 62.5C38.2575 62.5 37.7699 62.403 37.3149 62.2145C36.86 62.0261 36.4466 61.7499 36.0983 61.4016C35.7501 61.0534 35.4739 60.64 35.2855 60.1851C35.097 59.7301 35 59.2425 35 58.75C35 58.2575 35.097 57.7699 35.2855 57.3149C35.4739 56.86 35.7501 56.4466 36.0983 56.0984C36.4466 55.7501 36.86 55.4739 37.3149 55.2855C37.7699 55.097 38.2575 55 38.75 55C39.7446 55 40.6984 55.3951 41.4016 56.0984C42.1049 56.8016 42.5 57.7554 42.5 58.75C42.5 59.7446 42.1049 60.6984 41.4016 61.4016C40.6984 62.1049 39.7446 62.5 38.75 62.5ZM85.97 47.195C84.3498 45.6829 82.2162 44.842 80 44.842C77.7838 44.842 75.6502 45.6829 74.03 47.195L52.78 67.025C51.9024 67.844 51.2027 68.8349 50.7244 69.9359C50.2462 71.0369 49.9996 72.2246 50 73.425V102.5C50 104.489 50.7902 106.397 52.1967 107.803C53.6032 109.21 55.5109 110 57.5 110H67.5C69.4891 110 71.3968 109.21 72.8033 107.803C74.2098 106.397 75 104.489 75 102.5V90H85V102.5C85 104.489 85.7902 106.397 87.1967 107.803C88.6032 109.21 90.5109 110 92.5 110H102.5C104.489 110 106.397 109.21 107.803 107.803C109.21 106.397 110 104.489 110 102.5V73.425C110 72.2246 109.754 71.0369 109.276 69.9359C108.797 68.8349 108.098 67.844 107.22 67.025L85.97 47.195ZM79.145 52.675C79.3767 52.4578 79.6824 52.3369 80 52.3369C80.3176 52.3369 80.6233 52.4578 80.855 52.675L102.105 72.51C102.23 72.6273 102.33 72.769 102.398 72.9264C102.466 73.0838 102.5 73.2536 102.5 73.425V102.5H92.5V90C92.5 88.0109 91.7098 86.1032 90.3033 84.6967C88.8968 83.2902 86.9891 82.5 85 82.5H75C73.0109 82.5 71.1032 83.2902 69.6967 84.6967C68.2902 86.1032 67.5 88.0109 67.5 90V102.5H57.5V73.425C57.5002 73.2532 57.5358 73.0833 57.6047 72.9258C57.6735 72.7684 57.774 72.6268 57.9 72.51L79.145 52.675Z" fill="#0D80BB"/>
</svg>
