<svg width="120" height="120" viewBox="0 0 120 120" fill="none" xmlns="http://www.w3.org/2000/svg">
<path d="M63.75 13.7305C63.75 12.7359 63.3549 11.7821 62.6516 11.0788C61.9484 10.3756 60.9946 9.98047 60 9.98047C59.0054 9.98047 58.0516 10.3756 57.3484 11.0788C56.6451 11.7821 56.25 12.7359 56.25 13.7305V20.0005H46.25C43.9294 20.0005 41.7038 20.9223 40.0628 22.5633C38.4219 24.2042 37.5 26.4298 37.5 28.7505V39.5255C45.1 38.8355 52.5 44.7055 52.5 53.2405V106.25C52.5 106.384 52.4967 106.514 52.49 106.64V110H67.49V103.75H67.5V66.2505C67.5 62.6037 68.9487 59.1064 71.5273 56.5277C74.1059 53.9491 77.6033 52.5005 81.25 52.5005H82.5V28.7505C82.5 26.4298 81.5781 24.2042 79.9372 22.5633C78.2962 20.9223 76.0706 20.0005 73.75 20.0005H63.75V13.7305ZM72.49 110H93.75C96.0706 110 98.2962 109.079 99.9372 107.438C101.578 105.797 102.5 103.571 102.5 101.25V66.2505C102.5 63.9298 101.578 61.7042 99.9372 60.0633C98.2962 58.4223 96.0706 57.5005 93.75 57.5005H81.25C78.9294 57.5005 76.7038 58.4223 75.0628 60.0633C73.4219 61.7042 72.5 63.9298 72.5 66.2505V103.75H72.49V110ZM47.5 103.75H47.49V110H26.25C23.9294 110 21.7038 109.079 20.0628 107.438C18.4219 105.797 17.5 103.571 17.5 101.25V61.4505C17.5 58.5005 18.985 55.7505 21.45 54.1355L33.95 45.9305C39.765 42.1055 47.5 46.2805 47.5 53.2405V103.75Z" fill="#0D80BB"/>
</svg>
