<svg width="120" height="120" viewBox="0 0 120 120" fill="none" xmlns="http://www.w3.org/2000/svg">
<path d="M19.1951 29.2886C33.8951 9.70856 64.3451 4.01356 86.0151 17.4886C107.415 30.7886 115.285 56.3736 106.515 80.3736C98.2401 103.039 76.4351 112.014 60.7201 100.614C54.8351 96.3436 52.5501 90.9886 51.4501 82.2936L50.9201 77.3586L50.6951 75.3686C50.0801 70.6986 49.1401 68.6086 47.1701 67.5086C44.4951 66.0186 42.7101 65.9836 39.1951 67.3436L37.4401 68.0736L36.5451 68.4636C31.4751 70.6636 28.1051 71.4386 23.8401 70.5436L22.8401 70.3086L22.0201 70.0736C8.07514 65.7536 6.01014 46.8386 19.1951 29.2886ZM83.8351 52.8986C84.0476 53.6914 84.414 54.4347 84.9137 55.0859C85.4134 55.7371 86.0364 56.2835 86.7472 56.694C87.4581 57.1044 88.2428 57.3708 89.0566 57.478C89.8704 57.5851 90.6973 57.531 91.4901 57.3186C92.283 57.1061 93.0262 56.7396 93.6775 56.24C94.3287 55.7403 94.8751 55.1173 95.2855 54.4065C95.696 53.6956 95.9624 52.9109 96.0695 52.0971C96.1767 51.2833 96.1225 50.4564 95.9101 49.6636C95.4811 48.0623 94.4336 46.6971 92.998 45.8682C91.5625 45.0392 89.8564 44.8146 88.2551 45.2436C86.6539 45.6725 85.2886 46.7201 84.4597 48.1556C83.6308 49.5912 83.4062 51.2973 83.8351 52.8986ZM86.3101 70.3386C86.5056 71.1494 86.8614 71.9129 87.3566 72.5841C87.8517 73.2553 88.4762 73.8205 89.1932 74.2466C89.9102 74.6727 90.7053 74.951 91.5315 75.065C92.3577 75.179 93.1984 75.1265 94.0041 74.9106C94.8097 74.6947 95.5639 74.3197 96.2224 73.8077C96.8808 73.2958 97.4302 72.6572 97.838 71.9297C98.2458 71.2021 98.5039 70.4003 98.597 69.5714C98.6901 68.7426 98.6164 67.9035 98.3801 67.1036C97.9184 65.5401 96.8641 64.2189 95.442 63.4218C94.0199 62.6246 92.3427 62.4147 90.768 62.8368C89.1934 63.2588 87.8459 64.2794 87.0131 65.6809C86.1803 67.0823 85.928 68.7537 86.3101 70.3386ZM73.9401 37.8836C74.1526 38.6764 74.519 39.4197 75.0187 40.0709C75.5184 40.7221 76.1414 41.2685 76.8522 41.679C77.5631 42.0894 78.3478 42.3558 79.1616 42.463C79.9754 42.5701 80.8023 42.516 81.5951 42.3036C82.388 42.0911 83.1313 41.7246 83.7825 41.225C84.4337 40.7253 84.9801 40.1023 85.3905 39.3915C85.801 38.6806 86.0674 37.8959 86.1746 37.0821C86.2817 36.2683 86.2275 35.4414 86.0151 34.6486C85.5861 33.0473 84.5386 31.6821 83.1031 30.8532C81.6675 30.0242 79.9614 29.7996 78.3601 30.2286C76.7589 30.6575 75.3936 31.7051 74.5647 33.1406C73.7358 34.5762 73.5112 36.2823 73.9401 37.8836ZM73.8001 82.8736C74.2291 84.4748 75.2766 85.84 76.7122 86.669C78.1478 87.4979 79.8539 87.7225 81.4551 87.2936C83.0564 86.8646 84.4216 85.8171 85.2505 84.3815C86.0795 82.9459 86.3041 81.2398 85.8751 79.6386C85.4461 78.0373 84.3986 76.6721 82.9631 75.8432C81.5275 75.0142 79.8214 74.7896 78.2201 75.2186C76.6189 75.6475 75.2536 76.6951 74.4247 78.1306C73.5958 79.5662 73.3712 81.2723 73.8001 82.8736ZM56.3151 33.0236C56.5216 33.8226 56.8842 34.5728 57.3821 35.231C57.88 35.8892 58.5033 36.4422 59.216 36.8582C59.9288 37.2742 60.7169 37.5449 61.5348 37.6547C62.3527 37.7645 63.1843 37.7113 63.9815 37.498C64.7788 37.2848 65.5259 36.9157 66.1798 36.4122C66.8336 35.9087 67.3813 35.2807 67.7912 34.5644C68.201 33.8481 68.465 33.0577 68.5678 32.2389C68.6706 31.42 68.6102 30.5889 68.3901 29.7936C67.9506 28.2049 66.9012 26.8543 65.4706 26.0356C64.0399 25.217 62.3438 24.9966 60.7514 25.4226C59.1591 25.8485 57.7995 26.8863 56.9686 28.3098C56.1377 29.7334 55.9029 31.4276 56.3151 33.0236Z" fill="#0D80BB"/>
</svg>
