<svg width="120" height="120" viewBox="0 0 120 120" fill="none" xmlns="http://www.w3.org/2000/svg">
<path d="M95 35C95 48.805 79.33 60 60 60C40.67 60 25 48.805 25 35C25 21.195 40.67 10 60 10C79.33 10 95 21.195 95 35ZM93.1 51.85C85.9 59.79 73.76 65 60 65C46.24 65 34.1 59.785 26.9 51.85C25.6591 54.3883 25.0095 57.1747 25 60C25 73.805 40.67 85 60 85C79.33 85 95 73.805 95 60C95 57.15 94.33 54.405 93.1 51.85ZM93.1 76.85C85.9 84.79 73.76 90 60 90C46.24 90 34.1 84.785 26.9 76.85C25.6591 79.3883 25.0095 82.1747 25 85C25 98.805 40.67 110 60 110C79.33 110 95 98.805 95 85C95 82.15 94.33 79.405 93.1 76.85Z" fill="#0D80BB"/>
</svg>
