<svg width="120" height="120" viewBox="0 0 120 120" fill="none" xmlns="http://www.w3.org/2000/svg">
<path d="M39.9882 28.7514C39.9899 25.202 40.9984 21.7259 42.8967 18.7268C44.795 15.7277 47.5051 13.3286 50.7124 11.8082C53.9196 10.2879 57.4924 9.70854 61.0158 10.1376C64.5392 10.5666 67.8685 11.9863 70.6172 14.2319C73.3659 16.4776 75.4212 19.4569 76.5443 22.8239C77.6674 26.1909 77.8123 29.8074 76.9621 33.2535C76.112 36.6996 74.3016 39.8338 71.7414 42.292C69.1811 44.7503 65.976 46.4319 62.4982 47.1414V57.5014H78.7482C81.7319 57.5014 84.5934 58.6867 86.7032 60.7964C88.813 62.9062 89.9982 65.7677 89.9982 68.7514V72.8764C94.5431 73.8175 98.5781 76.409 101.324 80.1506C104.07 83.8923 105.333 88.5187 104.868 93.1366C104.403 97.7546 102.244 102.036 98.8069 105.156C95.3701 108.275 90.8995 110.01 86.2582 110.026C81.6007 110.04 77.1049 108.32 73.6453 105.201C70.1857 102.083 68.0097 97.7894 67.5407 93.1555C67.0717 88.5217 68.3432 83.8791 71.1078 80.1308C73.8725 76.3826 77.9325 73.7967 82.4982 72.8764V68.7514C82.4982 67.7568 82.1031 66.803 81.3999 66.0997C80.6966 65.3965 79.7428 65.0014 78.7482 65.0014H38.7482C37.7537 65.0014 36.7998 65.3965 36.0966 66.0997C35.3933 66.803 34.9982 67.7568 34.9982 68.7514V72.8764C39.5431 73.8175 43.5781 76.409 46.3243 80.1506C49.0704 83.8923 50.3329 88.5187 49.868 93.1366C49.4031 97.7546 47.2438 102.036 43.8069 105.156C40.3701 108.275 35.8995 110.01 31.2582 110.026C26.6007 110.04 22.1049 108.32 18.6453 105.201C15.1857 102.083 13.0097 97.7894 12.5407 93.1555C12.0717 88.5217 13.3432 83.8791 16.1078 80.1308C18.8725 76.3826 22.9326 73.7967 27.4982 72.8764V68.7514C27.4982 65.7677 28.6835 62.9062 30.7933 60.7964C32.9031 58.6867 35.7645 57.5014 38.7482 57.5014H54.9982V47.1414C50.7605 46.2749 46.952 43.9714 44.217 40.6205C41.4819 37.2695 39.9881 33.0768 39.9882 28.7514Z" fill="#0D80BB"/>
</svg>
