<svg width="120" height="120" viewBox="0 0 120 120" fill="none" xmlns="http://www.w3.org/2000/svg">
<path d="M37.5 13.75C37.5 12.7554 37.1049 11.8016 36.4017 11.0983C35.6984 10.3951 34.7446 10 33.75 10C32.7554 10 31.8016 10.3951 31.0983 11.0983C30.3951 11.8016 30 12.7554 30 13.75V28.75C29.9997 30.8917 30.7848 32.9591 32.2066 34.5606C33.6285 36.1622 35.5884 37.1867 37.715 37.44L32.635 49.965C31.6286 52.4801 31.1615 55.1786 31.264 57.8857C31.3665 60.5928 32.0363 63.2482 33.23 65.68L53.18 105.43C53.925 106.92 54.995 108.105 56.25 108.895V61.5C54.8202 60.6745 53.7027 59.4003 53.0709 57.8749C52.4391 56.3496 52.3282 54.6584 52.7556 53.0637C53.1829 51.4689 54.1245 50.0597 55.4343 49.0547C56.7441 48.0496 58.349 47.5048 60 47.5048C61.651 47.5048 63.2559 48.0496 64.5657 49.0547C65.8755 50.0597 66.8171 51.4689 67.2444 53.0637C67.6718 54.6584 67.5609 56.3496 66.9291 57.8749C66.2973 59.4003 65.1798 60.6745 63.75 61.5V108.9C65.005 108.11 66.075 106.925 66.825 105.44L86.775 65.685C89.18 60.885 89.405 55 87.365 49.97L82.285 37.445C84.4125 37.1916 86.373 36.1664 87.795 34.5638C89.217 32.9612 90.0016 30.8925 90 28.75V13.75C90 12.7554 89.6049 11.8016 88.9017 11.0983C88.1984 10.3951 87.2446 10 86.25 10C85.2554 10 84.3016 10.3951 83.5983 11.0983C82.8951 11.8016 82.5 12.7554 82.5 13.75V28.75C82.5 29.0815 82.3683 29.3995 82.1339 29.6339C81.8995 29.8683 81.5815 30 81.25 30H38.75C38.4185 30 38.1005 29.8683 37.8661 29.6339C37.6317 29.3995 37.5 29.0815 37.5 28.75V13.75Z" fill="#0D80BB"/>
</svg>
