<svg width="120" height="120" viewBox="0 0 120 120" fill="none" xmlns="http://www.w3.org/2000/svg">
<path d="M41.585 16.2954C41.0845 15.7173 40.4192 15.306 39.6784 15.1167C38.9375 14.9274 38.1565 14.9691 37.44 15.2363C36.7235 15.5034 36.1058 15.9831 35.6697 16.6112C35.2336 17.2393 34.9999 17.9857 35 18.7504V51.5304C33.4582 48.3015 31.5489 45.2614 29.31 42.4704C26.95 39.5854 24.735 37.7954 23.005 36.6954C22.3179 36.2504 21.5954 35.8624 20.845 35.5354C20.5362 35.4012 20.2208 35.2827 19.9 35.1804L19.81 35.1504L19.77 35.1404H19.755L19.745 35.1354H19.735C19.179 34.984 18.5957 34.9628 18.0302 35.0734C17.4648 35.184 16.9324 35.4234 16.4744 35.7731C16.0164 36.1227 15.6452 36.5732 15.3895 37.0895C15.1338 37.6059 15.0005 38.1742 15 38.7504V88.7504C15 93.0601 16.712 97.1934 19.7595 100.241C22.807 103.288 26.9402 105 31.25 105H88.75C93.0598 105 97.193 103.288 100.24 100.241C103.288 97.1934 105 93.0601 105 88.7504V38.7504C105 38.1738 104.868 37.6049 104.612 37.0879C104.357 36.5709 103.986 36.1198 103.528 35.7696C103.07 35.4194 102.537 35.1795 101.971 35.0686C101.405 34.9578 100.821 34.9789 100.265 35.1304H100.255L100.245 35.1354L100.23 35.1404L100.19 35.1504L100.1 35.1804C99.7752 35.2756 99.4577 35.3942 99.15 35.5354C98.403 35.8629 97.6839 36.2509 97 36.6954C95.265 37.7954 93.05 39.5854 90.69 42.4704C88.4511 45.2614 86.5418 48.3015 85 51.5304V18.7504C85.0001 17.9857 84.7664 17.2393 84.3303 16.6112C83.8942 15.9831 83.2765 15.5034 82.56 15.2363C81.8435 14.9691 81.0625 14.9274 80.3216 15.1167C79.5808 15.306 78.9155 15.7173 78.415 16.2954L78.41 16.3054L78.395 16.3204L78.35 16.3704L78.195 16.5554L77.63 17.2404C77.15 17.8304 76.465 18.6904 75.635 19.7954C73.378 22.8076 71.264 25.9244 69.3 29.1354C65.6125 35.1166 62.4987 41.433 60 48.0004C57.5013 41.433 54.3875 35.1166 50.7 29.1354C48.7359 25.9261 46.6218 22.811 44.365 19.8004C43.5366 18.7009 42.683 17.6206 41.805 16.5604L41.65 16.3754L41.605 16.3254L41.59 16.3104L41.585 16.2954Z" fill="#0D80BB"/>
</svg>
