<svg width="120" height="120" viewBox="0 0 120 120" fill="none" xmlns="http://www.w3.org/2000/svg">
<path d="M62.5 13.75C62.5 12.7554 62.1049 11.8016 61.4016 11.0983C60.6984 10.3951 59.7446 10 58.75 10C57.7554 10 56.8016 10.3951 56.0984 11.0983C55.3951 11.8016 55 12.7554 55 13.75V15H26.25C21.9402 15 17.807 16.712 14.7595 19.7595C11.712 22.807 10 26.9402 10 31.25V78.75C10 83.0598 11.712 87.193 14.7595 90.2405C17.807 93.288 21.9402 95 26.25 95H38.24L30.865 103.85C30.2285 104.614 29.9217 105.601 30.0122 106.591C30.1027 107.582 30.583 108.496 31.3475 109.132C32.112 109.769 33.098 110.076 34.0887 109.985C35.0793 109.895 35.9935 109.414 36.63 108.65L48 95H65.54C67.21 89.22 72.54 85 78.86 85H80.245C78.1857 82.9799 76.6578 80.4821 75.7971 77.7288C74.9364 74.9755 74.7697 72.0521 75.3118 69.2188C75.8539 66.3855 77.0879 63.7302 78.9042 61.489C80.7205 59.2479 83.0626 57.4905 85.7221 56.3733C88.3816 55.256 91.2761 54.8135 94.148 55.0852C97.0199 55.3568 99.78 56.3342 102.183 57.9303C104.586 59.5264 106.557 61.6918 107.921 64.2337C109.284 66.7757 109.999 69.6153 110 72.5V31.25C110 29.116 109.58 27.0029 108.763 25.0314C107.946 23.0599 106.749 21.2685 105.24 19.7595C103.732 18.2506 101.94 17.0536 99.9686 16.237C97.9971 15.4203 95.884 15 93.75 15H62.5V13.75ZM30 38.75C30 37.7554 30.3951 36.8016 31.0983 36.0983C31.8016 35.3951 32.7554 35 33.75 35H53.75C54.7446 35 55.6984 35.3951 56.4016 36.0983C57.1049 36.8016 57.5 37.7554 57.5 38.75C57.5 39.7446 57.1049 40.6984 56.4016 41.4016C55.6984 42.1049 54.7446 42.5 53.75 42.5H33.75C32.7554 42.5 31.8016 42.1049 31.0983 41.4016C30.3951 40.6984 30 39.7446 30 38.75ZM33.75 50H66.25C67.2446 50 68.1984 50.3951 68.9016 51.0984C69.6049 51.8016 70 52.7554 70 53.75C70 54.7446 69.6049 55.6984 68.9016 56.4016C68.1984 57.1049 67.2446 57.5 66.25 57.5H33.75C32.7554 57.5 31.8016 57.1049 31.0983 56.4016C30.3951 55.6984 30 54.7446 30 53.75C30 52.7554 30.3951 51.8016 31.0983 51.0984C31.8016 50.3951 32.7554 50 33.75 50ZM33.75 65H61.25C62.2446 65 63.1984 65.3951 63.9016 66.0984C64.6049 66.8016 65 67.7554 65 68.75C65 69.7446 64.6049 70.6984 63.9016 71.4016C63.1984 72.1049 62.2446 72.5 61.25 72.5H33.75C32.7554 72.5 31.8016 72.1049 31.0983 71.4016C30.3951 70.6984 30 69.7446 30 68.75C30 67.7554 30.3951 66.8016 31.0983 66.0984C31.8016 65.3951 32.7554 65 33.75 65ZM105 72.5C105 75.8152 103.683 78.9946 101.339 81.3388C98.9946 83.683 95.8152 85 92.5 85C89.1848 85 86.0054 83.683 83.6612 81.3388C81.317 78.9946 80 75.8152 80 72.5C80 69.1848 81.317 66.0054 83.6612 63.6612C86.0054 61.317 89.1848 60 92.5 60C95.8152 60 98.9946 61.317 101.339 63.6612C103.683 66.0054 105 69.1848 105 72.5ZM115 99.375C115 107.155 108.57 115 92.5 115C76.43 115 70 107.185 70 99.375V98.86C70 93.96 73.97 90 78.865 90H106.135C111.035 90 115 93.965 115 98.86V99.375Z" fill="#0D80BB"/>
</svg>
