<svg width="120" height="120" viewBox="0 0 120 120" fill="none" xmlns="http://www.w3.org/2000/svg">
<path d="M68.75 10H51.25C48.4828 10.0001 45.8127 11.02 43.7502 12.8649C41.6877 14.7097 40.3775 17.2499 40.07 20H31.25C28.2663 20 25.4048 21.1853 23.295 23.295C21.1853 25.4048 20 28.2663 20 31.25V98.75C20 101.734 21.1853 104.595 23.295 106.705C25.4048 108.815 28.2663 110 31.25 110H88.75C90.2274 110 91.6903 109.709 93.0552 109.144C94.4201 108.578 95.6603 107.75 96.705 106.705C97.7496 105.66 98.5783 104.42 99.1436 103.055C99.709 101.69 100 100.227 100 98.75V31.25C100 29.7726 99.709 28.3097 99.1436 26.9448C98.5783 25.5799 97.7496 24.3397 96.705 23.295C95.6603 22.2504 94.4201 21.4217 93.0552 20.8564C91.6903 20.291 90.2274 20 88.75 20H79.93C79.6225 17.2499 78.3123 14.7097 76.2498 12.8649C74.1873 11.02 71.5172 10.0001 68.75 10ZM51.25 17.5H68.75C69.7446 17.5 70.6984 17.8951 71.4016 18.5983C72.1049 19.3016 72.5 20.2554 72.5 21.25C72.5 22.2446 72.1049 23.1984 71.4016 23.9017C70.6984 24.6049 69.7446 25 68.75 25H51.25C50.2554 25 49.3016 24.6049 48.5984 23.9017C47.8951 23.1984 47.5 22.2446 47.5 21.25C47.5 20.2554 47.8951 19.3016 48.5984 18.5983C49.3016 17.8951 50.2554 17.5 51.25 17.5ZM62.5 51.25C62.5 50.2554 62.8951 49.3016 63.5984 48.5984C64.3016 47.8951 65.2554 47.5 66.25 47.5H83.75C84.7446 47.5 85.6984 47.8951 86.4017 48.5984C87.1049 49.3016 87.5 50.2554 87.5 51.25C87.5 52.2446 87.1049 53.1984 86.4017 53.9016C85.6984 54.6049 84.7446 55 83.75 55H66.25C65.2554 55 64.3016 54.6049 63.5984 53.9016C62.8951 53.1984 62.5 52.2446 62.5 51.25ZM66.25 75H83.75C84.7446 75 85.6984 75.3951 86.4017 76.0984C87.1049 76.8016 87.5 77.7554 87.5 78.75C87.5 79.7446 87.1049 80.6984 86.4017 81.4017C85.6984 82.1049 84.7446 82.5 83.75 82.5H66.25C65.2554 82.5 64.3016 82.1049 63.5984 81.4017C62.8951 80.6984 62.5 79.7446 62.5 78.75C62.5 77.7554 62.8951 76.8016 63.5984 76.0984C64.3016 75.3951 65.2554 75 66.25 75ZM53.9 48.9L43.9 58.9C43.1969 59.6023 42.2438 59.9967 41.25 59.9967C40.2562 59.9967 39.3031 59.6023 38.6 58.9L33.6 53.9C33.2316 53.5567 32.9361 53.1427 32.7311 52.6827C32.5261 52.2227 32.4159 51.7261 32.407 51.2226C32.3982 50.7191 32.4908 50.219 32.6794 49.752C32.868 49.2851 33.1487 48.8609 33.5048 48.5048C33.8609 48.1487 34.2851 47.868 34.752 47.6794C35.219 47.4908 35.7191 47.3982 36.2226 47.407C36.7261 47.4159 37.2227 47.5261 37.6827 47.7311C38.1427 47.9361 38.5567 48.2316 38.9 48.6L41.25 50.95L48.6 43.6C48.9433 43.2316 49.3573 42.9361 49.8173 42.7311C50.2773 42.5261 50.7739 42.4159 51.2774 42.407C51.7809 42.3982 52.281 42.4908 52.748 42.6794C53.2149 42.868 53.6391 43.1487 53.9952 43.5048C54.3513 43.8609 54.632 44.2851 54.8206 44.752C55.0092 45.219 55.1018 45.7191 55.093 46.2226C55.0841 46.7261 54.9739 47.2227 54.7689 47.6827C54.5639 48.1427 54.2684 48.5567 53.9 48.9ZM53.9 71.1C54.6023 71.8031 54.9967 72.7562 54.9967 73.75C54.9967 74.7438 54.6023 75.6969 53.9 76.4L43.9 86.4C43.1969 87.1023 42.2438 87.4967 41.25 87.4967C40.2562 87.4967 39.3031 87.1023 38.6 86.4L33.6 81.4C33.2316 81.0567 32.9361 80.6427 32.7311 80.1827C32.5261 79.7227 32.4159 79.2261 32.407 78.7226C32.3982 78.2191 32.4908 77.719 32.6794 77.252C32.868 76.7851 33.1487 76.3609 33.5048 76.0048C33.8609 75.6487 34.2851 75.368 34.752 75.1794C35.219 74.9908 35.7191 74.8982 36.2226 74.907C36.7261 74.9159 37.2227 75.0261 37.6827 75.2311C38.1427 75.4361 38.5567 75.7316 38.9 76.1L41.25 78.45L48.6 71.1C49.3031 70.3977 50.2562 70.0033 51.25 70.0033C52.2438 70.0033 53.1969 70.3977 53.9 71.1Z" fill="#0D80BB"/>
</svg>
