<svg width="120" height="120" viewBox="0 0 120 120" fill="none" xmlns="http://www.w3.org/2000/svg">
<path d="M15 12.5C13.6739 12.5 12.4021 13.0268 11.4645 13.9645C10.5268 14.9021 10 16.1739 10 17.5V45C10 53.705 13.07 61.28 18.55 66.685C22.915 70.985 28.6 73.715 35 74.645V78.75C35 87.038 38.2924 94.9866 44.1529 100.847C50.0134 106.708 57.962 110 66.25 110C74.538 110 82.4866 106.708 88.3471 100.847C94.2076 94.9866 97.5 87.038 97.5 78.75V75.465C101.173 74.2642 104.299 71.7943 106.316 68.4982C108.333 65.202 109.111 61.2951 108.509 57.4777C107.907 53.6604 105.966 50.1821 103.032 47.6666C100.098 45.151 96.3645 43.7625 92.5 43.75C88.627 43.7475 84.8806 45.1284 81.9356 47.6438C78.9907 50.1592 77.041 53.6437 76.4379 57.4694C75.8347 61.2951 76.6178 65.2104 78.646 68.5098C80.6742 71.8093 83.8141 74.2758 87.5 75.465V78.75C87.5 81.5406 86.9504 84.3039 85.8824 86.882C84.8145 89.4602 83.2493 91.8028 81.276 93.776C79.3028 95.7493 76.9602 97.3145 74.382 98.3824C71.8039 99.4504 69.0406 100 66.25 100C63.4594 100 60.6961 99.4504 58.118 98.3824C55.5398 97.3145 53.1972 95.7493 51.224 93.776C49.2507 91.8028 47.6855 89.4602 46.6176 86.882C45.5496 84.3039 45 81.5406 45 78.75V74.645C51.4 73.715 57.085 70.985 61.45 66.685C66.925 61.285 70 53.705 70 45V17.5C70 16.1739 69.4732 14.9021 68.5355 13.9645C67.5979 13.0268 66.3261 12.5 65 12.5H55.01C53.6839 12.5 52.4121 13.0268 51.4745 13.9645C50.5368 14.9021 50.01 16.1739 50.01 17.5C50.01 18.8261 50.5368 20.0979 51.4745 21.0355C52.4121 21.9732 53.6839 22.5 55.01 22.5H60V45C60 51.295 57.82 56.22 54.425 59.565C51.025 62.92 46.075 65 40 65C33.92 65 28.98 62.92 25.575 59.565C22.175 56.215 20 51.295 20 45V22.5H25C26.3261 22.5 27.5979 21.9732 28.5355 21.0355C29.4732 20.0979 30 18.8261 30 17.5C30 16.1739 29.4732 14.9021 28.5355 13.9645C27.5979 13.0268 26.3261 12.5 25 12.5H15ZM92.5 53.75C94.1576 53.75 95.7473 54.4085 96.9194 55.5806C98.0915 56.7527 98.75 58.3424 98.75 60C98.75 61.6576 98.0915 63.2473 96.9194 64.4194C95.7473 65.5915 94.1576 66.25 92.5 66.25C90.8424 66.25 89.2527 65.5915 88.0806 64.4194C86.9085 63.2473 86.25 61.6576 86.25 60C86.25 58.3424 86.9085 56.7527 88.0806 55.5806C89.2527 54.4085 90.8424 53.75 92.5 53.75Z" fill="#0D80BB"/>
</svg>
