<svg width="120" height="120" viewBox="0 0 120 120" fill="none" xmlns="http://www.w3.org/2000/svg">
<path d="M73.77 50C78.6 50 82.52 53.92 82.52 58.75V82.495C82.52 88.4637 80.1489 94.1879 75.9284 98.4084C71.7079 102.629 65.9837 105 60.015 105C54.0463 105 48.3221 102.629 44.1016 98.4084C39.8811 94.1879 37.51 88.4637 37.51 82.495V58.75C37.51 53.92 41.425 50 46.26 50H73.77ZM35.655 50C33.8483 52.1638 32.7643 54.8389 32.555 57.65L32.505 58.75V82.495C32.505 86.73 33.465 90.74 35.175 94.32C33.5217 94.77 31.7967 94.9967 30 95C27.3731 95 24.772 94.4825 22.3452 93.4771C19.9183 92.4717 17.7133 90.9981 15.8561 89.1404C13.9989 87.2827 12.5258 85.0773 11.521 82.6502C10.5162 80.2231 9.99934 77.6219 10 74.995V58.75C10.0001 56.5541 10.8259 54.4384 12.3134 52.823C13.8009 51.2077 15.8415 50.2107 18.03 50.03L18.75 50H35.655ZM84.375 50H101.25C106.08 50 110 53.92 110 58.75V75C110.001 78.0658 109.297 81.0908 107.942 83.8411C106.587 86.5914 104.619 88.9936 102.188 90.8618C99.757 92.7301 96.9292 94.0146 93.923 94.6159C90.9167 95.2173 87.8124 95.1194 84.85 94.33C86.35 91.19 87.27 87.73 87.475 84.07L87.52 82.495V58.75C87.52 55.425 86.345 52.375 84.375 50ZM60 15C63.9782 15 67.7936 16.5804 70.6066 19.3934C73.4196 22.2064 75 26.0218 75 30C75 33.9782 73.4196 37.7936 70.6066 40.6066C67.7936 43.4196 63.9782 45 60 45C56.0218 45 52.2064 43.4196 49.3934 40.6066C46.5804 37.7936 45 33.9782 45 30C45 26.0218 46.5804 22.2064 49.3934 19.3934C52.2064 16.5804 56.0218 15 60 15ZM92.5 20C95.8152 20 98.9946 21.317 101.339 23.6612C103.683 26.0054 105 29.1848 105 32.5C105 35.8152 103.683 38.9946 101.339 41.3388C98.9946 43.683 95.8152 45 92.5 45C89.1848 45 86.0054 43.683 83.6612 41.3388C81.317 38.9946 80 35.8152 80 32.5C80 29.1848 81.317 26.0054 83.6612 23.6612C86.0054 21.317 89.1848 20 92.5 20ZM27.5 20C30.8152 20 33.9946 21.317 36.3388 23.6612C38.683 26.0054 40 29.1848 40 32.5C40 35.8152 38.683 38.9946 36.3388 41.3388C33.9946 43.683 30.8152 45 27.5 45C24.1848 45 21.0054 43.683 18.6612 41.3388C16.317 38.9946 15 35.8152 15 32.5C15 29.1848 16.317 26.0054 18.6612 23.6612C21.0054 21.317 24.1848 20 27.5 20Z" fill="#0D80BB"/>
</svg>
