<svg width="120" height="120" viewBox="0 0 120 120" fill="none" xmlns="http://www.w3.org/2000/svg">
<path d="M60 10C32.385 10 10 32.385 10 60C10 87.615 32.385 110 60 110C87.615 110 110 87.615 110 60C110 32.385 87.615 10 60 10ZM41.22 21.865L56.26 30.865V41.83L42.305 51.97L32.085 48.435L29.15 30.765C32.614 27.1063 36.7009 24.0928 41.22 21.865ZM18.105 67.195L29.74 55.56L39.94 59.085L45.35 75.75L40.5 83.625L24.035 82.655C21.0639 77.9403 19.049 72.6873 18.105 67.195ZM52.65 101.865L46.73 87.82L51.545 79.985H68.405L72.965 87.89L67.765 101.79C62.7706 102.707 57.6532 102.733 52.65 101.865ZM94.46 84.88L79.34 83.93L74.65 75.81L80.085 59.085L90.15 55.605L101.71 68.205C100.525 74.2213 98.0513 79.9098 94.46 84.88ZM90.86 30.78L87.915 48.445L77.715 51.97L63.76 41.83V30.86L78.77 21.86C83.2978 24.0918 87.3917 27.1123 90.86 30.78Z" fill="#0D80BB"/>
</svg>
