<svg width="120" height="120" viewBox="0 0 120 120" fill="none" xmlns="http://www.w3.org/2000/svg">
<path d="M91.25 14.9805C94.8967 14.9805 98.3941 16.4291 100.973 19.0078C103.551 21.5864 105 25.0837 105 28.7305V91.2305C105 94.8772 103.551 98.3746 100.973 100.953C98.3941 103.532 94.8967 104.98 91.25 104.98H28.75C26.9443 104.98 25.1563 104.625 23.4881 103.934C21.8199 103.243 20.3041 102.23 19.0273 100.953C17.7505 99.6764 16.7377 98.1606 16.0467 96.4924C15.3557 94.8241 15 93.0361 15 91.2305V28.7305C15 25.0837 16.4487 21.5864 19.0273 19.0078C21.6059 16.4291 25.1033 14.9805 28.75 14.9805H91.25ZM38.75 45.0005C37.758 45.0005 36.8065 45.3935 36.1036 46.0935C35.4008 46.7935 35.004 47.7435 35 48.7355V81.2705C35 83.3305 36.68 85.0005 38.75 85.0005C40.82 85.0005 42.5 83.3305 42.5 81.2705V48.7305C42.4947 47.7394 42.0973 46.7907 41.3946 46.0917C40.6919 45.3928 39.7411 45.0005 38.75 45.0005ZM81.25 35.0005C80.7641 34.9939 80.2816 35.083 79.8302 35.2629C79.3788 35.4428 78.9672 35.7098 78.619 36.0487C78.2707 36.3877 77.9927 36.7919 77.8007 37.2383C77.6087 37.6847 77.5065 38.1646 77.5 38.6505V81.3555C77.5 83.3705 79.18 85.0055 81.25 85.0055C81.7359 85.0121 82.2183 84.9229 82.6698 84.7431C83.1212 84.5632 83.5328 84.2962 83.881 83.9572C84.2293 83.6183 84.5073 83.2141 84.6993 82.7676C84.8913 82.3212 84.9935 81.8414 85 81.3555V38.6455C84.9935 38.1596 84.8913 37.6797 84.6993 37.2333C84.5073 36.7869 84.2293 36.3827 83.881 36.0437C83.5328 35.7048 83.1212 35.4377 82.6698 35.2579C82.2183 35.078 81.7359 34.9939 81.25 35.0005ZM59.875 59.9805C58.9078 59.9871 57.9828 60.3773 57.3031 61.0654C56.6235 61.7535 56.2447 62.6833 56.25 63.6505L56.425 81.3855C56.4315 81.8648 56.5324 82.3382 56.7219 82.7785C56.9114 83.2189 57.1857 83.6176 57.5293 83.9519C57.8729 84.2862 58.279 84.5495 58.7243 84.7269C59.1697 84.9042 59.6457 84.9921 60.125 84.9855C61.0922 84.9789 62.0172 84.5886 62.6969 83.9005C63.3765 83.2124 63.7553 82.2827 63.75 81.3155L63.575 63.5755C63.5605 62.6083 63.1627 61.6864 62.4689 61.0123C61.7752 60.3382 60.8422 59.9671 59.875 59.9805Z" fill="#0D80BB"/>
</svg>
