<svg width="120" height="120" viewBox="0 0 120 120" fill="none" xmlns="http://www.w3.org/2000/svg">
<path d="M10 31.25V40H40.645C41.6392 39.9991 42.5924 39.6035 43.295 38.9L56.25 25.95L48.6 18.295C47.5553 17.2503 46.3151 16.4217 44.9502 15.8563C43.5853 15.291 42.1224 15 40.645 15H26.25C21.9402 15 17.807 16.712 14.7595 19.7595C11.712 22.807 10 26.9402 10 31.25ZM10 88.75V47.5H40.645C43.627 47.4987 46.4864 46.3136 48.595 44.205L65.31 27.5H93.755C98.0639 27.5013 102.196 29.214 105.242 32.2613C108.289 35.3086 110 39.4411 110 43.75V75H109.89C109.405 69.6898 107.387 64.6351 104.081 60.4512C100.776 56.2673 96.3248 53.1348 91.2707 51.4349C86.2167 49.735 80.7775 49.5411 75.6152 50.8768C70.453 52.2125 65.7904 55.0202 62.1951 58.9581C58.5998 62.896 56.2269 67.7941 55.3653 73.0563C54.5036 78.3185 55.1904 83.7177 57.3421 88.5966C59.4937 93.4755 63.0174 97.6236 67.484 100.536C71.9507 103.448 77.1677 104.999 82.5 105H26.25C21.9402 105 17.807 103.288 14.7595 100.24C11.712 97.193 10 93.0598 10 88.75ZM82.5 105C83.3433 105 84.1767 104.963 85 104.89V105H82.5ZM82.5 100C87.1715 100 91.7272 98.5462 95.535 95.84L108.6 108.9C108.943 109.268 109.357 109.564 109.817 109.769C110.277 109.974 110.774 110.084 111.277 110.093C111.781 110.102 112.281 110.009 112.748 109.821C113.215 109.632 113.639 109.351 113.995 108.995C114.351 108.639 114.632 108.215 114.821 107.748C115.009 107.281 115.102 106.781 115.093 106.277C115.084 105.774 114.974 105.277 114.769 104.817C114.564 104.357 114.268 103.943 113.9 103.6L100.84 90.535C103.762 86.4238 105.218 81.45 104.974 76.412C104.73 71.374 102.801 66.5641 99.4951 62.7544C96.1895 58.9447 91.6998 56.3561 86.7465 55.4043C81.7933 54.4524 76.6639 55.1925 72.1817 57.5057C67.6995 59.8189 64.1246 63.571 62.0307 68.1597C59.9369 72.7485 59.4456 77.9076 60.6358 82.8091C61.8259 87.7105 64.6285 92.0699 68.5935 95.1875C72.5586 98.305 77.4561 99.9999 82.5 100ZM82.5 92.5C78.5218 92.5 74.7064 90.9196 71.8934 88.1066C69.0804 85.2936 67.5 81.4782 67.5 77.5C67.5 73.5218 69.0804 69.7064 71.8934 66.8934C74.7064 64.0804 78.5218 62.5 82.5 62.5C86.4782 62.5 90.2936 64.0804 93.1066 66.8934C95.9196 69.7064 97.5 73.5218 97.5 77.5C97.5 81.4782 95.9196 85.2936 93.1066 88.1066C90.2936 90.9196 86.4782 92.5 82.5 92.5Z" fill="#0D80BB"/>
</svg>
