<svg width="120" height="120" viewBox="0 0 120 120" fill="none" xmlns="http://www.w3.org/2000/svg">
<path d="M67.5 10C62.422 9.9982 57.4427 11.4024 53.1139 14.0571C48.7851 16.7118 45.2758 20.5132 42.975 25.04C48.455 25.3106 53.7945 26.8658 58.5628 29.58C63.3311 32.2941 67.3944 36.0913 70.425 40.665C72.725 40.225 75.0833 40.0033 77.5 40H94.89C94.96 39.1767 94.9967 38.3433 95 37.5V17.2C95 15.2904 94.2414 13.4591 92.8912 12.1088C91.5409 10.7586 89.7096 10 87.8 10H67.5ZM42.13 89.985L41.25 90C33.2935 90 25.6629 86.8393 20.0368 81.2132C14.4107 75.5871 11.25 67.9565 11.25 60V37.57C11.25 33.39 14.64 30 18.82 30H41.25C51.08 30 59.81 34.73 65.28 42.035C57.0995 44.8623 50.1449 50.4252 45.59 57.785L37.65 49.85C36.9391 49.1876 35.9989 48.827 35.0274 48.8441C34.0559 48.8613 33.129 49.2548 32.4419 49.9419C31.7548 50.629 31.3613 51.5559 31.3441 52.5274C31.327 53.4989 31.6876 54.4391 32.35 55.15L42.15 64.95C40.7232 68.9802 39.996 73.2247 40 77.5C40 81.88 40.75 86.08 42.13 89.985ZM45 77.5C45 68.8805 48.4241 60.614 54.519 54.519C60.614 48.4241 68.8805 45 77.5 45H102.07C106.45 45 110 48.55 110 52.93V77.5C110 83.6081 108.279 89.5925 105.034 94.7672C101.788 99.9419 97.1507 104.097 91.6522 106.757C86.1536 109.417 80.0168 110.473 73.9454 109.805C67.874 109.137 62.1137 106.772 57.325 102.98L51.4 108.9C51.0567 109.268 50.6427 109.564 50.1827 109.769C49.7227 109.974 49.2261 110.084 48.7226 110.093C48.2191 110.102 47.719 110.009 47.252 109.821C46.7851 109.632 46.3609 109.351 46.0048 108.995C45.6487 108.639 45.368 108.215 45.1794 107.748C44.9908 107.281 44.8982 106.781 44.907 106.277C44.9159 105.774 45.0261 105.277 45.2311 104.817C45.4361 104.357 45.7316 103.943 46.1 103.6L52.02 97.675C47.4631 91.9389 44.9881 84.8259 45 77.5ZM60.885 99.415L83.9 76.4C84.2684 76.0567 84.5639 75.6427 84.7689 75.1827C84.9739 74.7227 85.0841 74.2261 85.093 73.7226C85.1018 73.2191 85.0092 72.719 84.8206 72.252C84.632 71.7851 84.3513 71.3609 83.9952 71.0048C83.6391 70.6487 83.2149 70.368 82.748 70.1794C82.281 69.9908 81.7809 69.8982 81.2774 69.907C80.7739 69.9159 80.2773 70.0261 79.8173 70.2311C79.3573 70.4361 78.9433 70.7316 78.6 71.1L55.585 94.115C57.1 96.115 58.885 97.9 60.885 99.415Z" fill="#0D80BB"/>
</svg>
