<svg width="120" height="120" viewBox="0 0 120 120" fill="none" xmlns="http://www.w3.org/2000/svg">
<path d="M53.75 25C52.7554 25 51.8016 25.3951 51.0984 26.0983C50.3951 26.8016 50 27.7554 50 28.75C50 29.7446 50.3951 30.6984 51.0984 31.4017C51.8016 32.1049 52.7554 32.5 53.75 32.5H66.25C67.2446 32.5 68.1984 32.1049 68.9016 31.4017C69.6049 30.6984 70 29.7446 70 28.75C70 27.7554 69.6049 26.8016 68.9016 26.0983C68.1984 25.3951 67.2446 25 66.25 25H53.75ZM20 28.75C20 23.7772 21.9754 19.0081 25.4917 15.4917C29.0081 11.9754 33.7772 10 38.75 10H81.25C86.2228 10 90.9919 11.9754 94.5083 15.4917C98.0246 19.0081 100 23.7772 100 28.75V47.5H106.135C107.13 47.5 108.083 47.8951 108.787 48.5984C109.49 49.3016 109.885 50.2554 109.885 51.25C109.885 52.2446 109.49 53.1984 108.787 53.9016C108.083 54.6049 107.13 55 106.135 55H100V98.75C100 101.071 99.0781 103.296 97.4372 104.937C95.7962 106.578 93.5706 107.5 91.25 107.5H83.75C81.4294 107.5 79.2038 106.578 77.5628 104.937C75.9219 103.296 75 101.071 75 98.75V92.5H45V98.75C45 101.071 44.0781 103.296 42.4372 104.937C40.7962 106.578 38.5706 107.5 36.25 107.5H28.75C26.4294 107.5 24.2038 106.578 22.5628 104.937C20.9219 103.296 20 101.071 20 98.75V55H13.75C12.7554 55 11.8016 54.6049 11.0983 53.9016C10.3951 53.1984 10 52.2446 10 51.25C10 50.2554 10.3951 49.3016 11.0983 48.5984C11.8016 47.8951 12.7554 47.5 13.75 47.5H20V28.75ZM82.5 92.5V98.75C82.5 99.44 83.06 100 83.75 100H91.25C91.5815 100 91.8995 99.8683 92.1339 99.6339C92.3683 99.3995 92.5 99.0815 92.5 98.75V92.5H82.5ZM27.5 92.5V98.75C27.5 99.44 28.06 100 28.75 100H36.25C36.5815 100 36.8995 99.8683 37.1339 99.6339C37.3683 99.3995 37.5 99.0815 37.5 98.75V92.5H27.5ZM38.75 17.5C35.7663 17.5 32.9048 18.6853 30.795 20.795C28.6853 22.9048 27.5 25.7663 27.5 28.75V60H92.5V28.75C92.5 25.7663 91.3147 22.9048 89.205 20.795C87.0952 18.6853 84.2337 17.5 81.25 17.5H38.75ZM45 75C45 73.6739 44.4732 72.4021 43.5355 71.4645C42.5979 70.5268 41.3261 70 40 70C38.6739 70 37.4021 70.5268 36.4645 71.4645C35.5268 72.4021 35 73.6739 35 75C35 76.3261 35.5268 77.5979 36.4645 78.5355C37.4021 79.4732 38.6739 80 40 80C41.3261 80 42.5979 79.4732 43.5355 78.5355C44.4732 77.5979 45 76.3261 45 75ZM80 80C81.3261 80 82.5979 79.4732 83.5355 78.5355C84.4732 77.5979 85 76.3261 85 75C85 73.6739 84.4732 72.4021 83.5355 71.4645C82.5979 70.5268 81.3261 70 80 70C78.6739 70 77.4021 70.5268 76.4645 71.4645C75.5268 72.4021 75 73.6739 75 75C75 76.3261 75.5268 77.5979 76.4645 78.5355C77.4021 79.4732 78.6739 80 80 80Z" fill="#0D80BB"/>
</svg>
