<svg width="120" height="120" viewBox="0 0 120 120" fill="none" xmlns="http://www.w3.org/2000/svg">
<path d="M54.381 43.305C56.316 44.385 58.621 45 61.231 45C65.466 45 69.006 43.465 71.466 40.78C73.871 38.15 74.981 34.7 74.981 31.25C74.981 30.2554 74.586 29.3016 73.8827 28.5983C73.1794 27.8951 72.2256 27.5 71.231 27.5C70.2365 27.5 69.2827 27.8951 68.5794 28.5983C67.8761 29.3016 67.481 30.2554 67.481 31.25C67.481 33.135 66.881 34.68 65.931 35.72C65.031 36.7 63.571 37.5 61.231 37.5C58.986 37.5 57.581 36.69 56.661 35.65C55.6777 34.4607 55.0965 32.9903 55.001 31.45V21.25C55.001 18.2663 56.1863 15.4048 58.2961 13.295C60.4059 11.1853 63.2674 10 66.251 10H82.176C84.721 10 87.211 10.705 89.376 12.04L103.216 20.555C103.762 20.8907 104.212 21.3606 104.525 21.92C104.837 22.4793 105.001 23.1093 105.001 23.75V31.25C105.001 34.2337 103.816 37.0952 101.706 39.205C99.5962 41.3147 96.7347 42.5 93.751 42.5H92.501V90.165C97.101 90.605 100.591 91.995 102.736 94.985C104.021 96.78 104.536 98.785 104.776 100.63C105.001 102.39 105.001 104.31 105.001 106.08V106.25C105.001 107.245 104.606 108.198 103.903 108.902C103.199 109.605 102.246 110 101.251 110H84.991V106.13C84.991 103.27 85.001 95.09 77.491 90.285V76.265C77.491 75.2704 77.096 74.3166 76.3927 73.6133C75.6894 72.9101 74.7356 72.515 73.741 72.515C72.7465 72.515 71.7927 72.9101 71.0894 73.6133C70.3861 74.3166 69.991 75.2704 69.991 76.265V87.595C68.8334 87.4773 67.6689 87.4405 66.506 87.485C66.3727 87.485 66.266 87.49 66.186 87.5H66.061L66.046 87.505C65.0528 87.5594 64.1219 88.0061 63.458 88.7468C62.7941 89.4876 62.4517 90.4618 62.506 91.455C62.5604 92.4482 63.0071 93.3792 63.7479 94.0431C64.4887 94.707 65.4628 95.0494 66.456 94.995H66.471L66.536 94.99L66.786 94.98C66.991 94.97 67.251 94.965 67.491 94.965C69.651 94.965 71.066 95.33 71.996 95.815L72.161 95.9C77.356 98.32 77.491 103.095 77.491 106.25V110H29.166C24.9706 110.004 20.89 108.631 17.5502 106.091C14.2104 103.552 11.7961 99.9873 10.6778 95.9437C9.55948 91.9001 9.7989 87.6012 11.3593 83.7068C12.9198 79.8124 15.715 76.5376 19.316 74.385C20.1694 73.8731 21.1911 73.7212 22.1564 73.9627C23.1218 74.2041 23.9517 74.8192 24.4635 75.6725C24.9754 76.5258 25.1273 77.5476 24.8859 78.5129C24.6444 79.4782 24.0294 80.3081 23.176 80.82C20.9834 82.1295 19.2811 84.1223 18.3304 86.4927C17.3797 88.863 17.2331 91.4799 17.9133 93.9416C18.5934 96.4032 20.0626 98.5737 22.0954 100.12C24.1282 101.666 26.6121 102.502 29.166 102.5C30.761 102.5 31.751 102.085 32.411 101.62C33.106 101.13 33.651 100.43 34.066 99.585C34.5932 98.5045 34.9105 97.3338 35.001 96.135V95.96L35.021 95.245C35.1666 91.5715 35.6012 87.9152 36.321 84.31C37.621 77.855 40.306 69.47 46.081 63.615C50.321 59.315 52.626 53.02 53.816 46.795C54.046 45.6017 54.2344 44.4383 54.381 43.305Z" fill="#0D80BB"/>
</svg>
