<svg width="120" height="120" viewBox="0 0 120 120" fill="none" xmlns="http://www.w3.org/2000/svg">
<path d="M67.25 12.6633C65.2212 10.9534 62.6533 10.0156 60 10.0156C57.3467 10.0156 54.7788 10.9534 52.75 12.6633L19 41.1383C17.7473 42.1941 16.7403 43.5107 16.0494 44.9962C15.3585 46.4816 15.0003 48.1 15 49.7383V96.2633C15 101.093 18.92 105.013 23.75 105.013H96.25C98.5706 105.013 100.796 104.091 102.437 102.45C104.078 100.81 105 98.5839 105 96.2633V49.7333C105 48.095 104.642 46.4766 103.951 44.9912C103.26 43.5057 102.253 42.1891 101 41.1333L67.25 12.6633ZM78.92 56.3983L56.4 78.9183C55.6969 79.6206 54.7438 80.015 53.75 80.015C52.7562 80.015 51.8031 79.6206 51.1 78.9183L41.1 68.9183C40.4376 68.2074 40.077 67.2672 40.0941 66.2957C40.1113 65.3242 40.5048 64.3973 41.1919 63.7102C41.879 63.0231 42.8059 62.6296 43.7774 62.6124C44.7489 62.5953 45.6891 62.9559 46.4 63.6183L53.75 70.9633L73.615 51.0983C73.9583 50.7299 74.3723 50.4344 74.8323 50.2294C75.2923 50.0244 75.7889 49.9142 76.2924 49.9053C76.7959 49.8965 77.296 49.9891 77.763 50.1777C78.2299 50.3663 78.6541 50.647 79.0102 51.0031C79.3663 51.3592 79.647 51.7834 79.8356 52.2503C80.0242 52.7173 80.1168 53.2174 80.108 53.7209C80.0991 54.2244 79.9889 54.721 79.7839 55.181C79.5789 55.641 79.2834 56.055 78.915 56.3983" fill="#0D80BB"/>
</svg>
