<svg width="120" height="120" viewBox="0 0 120 120" fill="none" xmlns="http://www.w3.org/2000/svg">
<path d="M69.7 25.0009L95.005 50.3009L45.315 100.001C43.9293 101.387 42.2058 102.386 40.315 102.901L14.74 109.876C14.1024 110.049 13.4305 110.05 12.7922 109.88C12.1539 109.71 11.5719 109.374 11.105 108.907C10.6381 108.44 10.303 107.857 10.1336 107.219C9.96412 106.58 9.96634 105.908 10.14 105.271L17.11 79.6909C17.6255 77.8019 18.6251 76.0802 20.01 74.6959L69.7 25.0009ZM32.63 55.0009L25.13 62.5009H13.75C12.7554 62.5009 11.8016 62.1059 11.0983 61.4026C10.3951 60.6993 10 59.7455 10 58.7509C10 57.7564 10.3951 56.8026 11.0983 56.0993C11.8016 55.396 12.7554 55.0009 13.75 55.0009H32.63ZM104.39 14.1309L105.155 14.8509L105.88 15.6159C108.91 19.0281 110.522 23.4686 110.387 28.0298C110.253 32.5911 108.381 36.9286 105.155 40.1559L100.305 45.0009L75 19.7009L79.85 14.8509C83.078 11.6256 87.4159 9.75481 91.9771 9.62099C96.5383 9.48716 100.978 11.1004 104.39 14.1309ZM52.63 35.0009L45.13 42.5009H13.75C12.7554 42.5009 11.8016 42.1059 11.0983 41.4026C10.3951 40.6993 10 39.7455 10 38.7509C10 37.7564 10.3951 36.8026 11.0983 36.0993C11.8016 35.396 12.7554 35.0009 13.75 35.0009H52.63ZM72.63 15.0009L65.13 22.5009H13.75C12.7554 22.5009 11.8016 22.1059 11.0983 21.4026C10.3951 20.6993 10 19.7455 10 18.7509C10 17.7564 10.3951 16.8026 11.0983 16.0993C11.8016 15.396 12.7554 15.0009 13.75 15.0009H72.63Z" fill="#0D80BB"/>
</svg>
