<svg width="120" height="120" viewBox="0 0 120 120" fill="none" xmlns="http://www.w3.org/2000/svg">
<path d="M42.5 62.5C41.1739 62.5 39.9021 63.0268 38.9645 63.9645C38.0268 64.9021 37.5 66.1739 37.5 67.5C37.5 68.8261 38.0268 70.0979 38.9645 71.0355C39.9021 71.9732 41.1739 72.5 42.5 72.5C43.8261 72.5 45.0979 71.9732 46.0355 71.0355C46.9732 70.0979 47.5 68.8261 47.5 67.5C47.5 66.1739 46.9732 64.9021 46.0355 63.9645C45.0979 63.0268 43.8261 62.5 42.5 62.5ZM37.5 50C37.5 51.3261 38.0268 52.5979 38.9645 53.5355C39.9021 54.4732 41.1739 55 42.5 55C43.8261 55 45.0979 54.4732 46.0355 53.5355C46.9732 52.5979 47.5 51.3261 47.5 50C47.5 48.6739 46.9732 47.4021 46.0355 46.4645C45.0979 45.5268 43.8261 45 42.5 45C41.1739 45 39.9021 45.5268 38.9645 46.4645C38.0268 47.4021 37.5 48.6739 37.5 50ZM60 27.5C58.6739 27.5 57.4021 28.0268 56.4645 28.9645C55.5268 29.9021 55 31.1739 55 32.5C55 33.8261 55.5268 35.0979 56.4645 36.0355C57.4021 36.9732 58.6739 37.5 60 37.5C61.3261 37.5 62.5979 36.9732 63.5355 36.0355C64.4732 35.0979 65 33.8261 65 32.5C65 31.1739 64.4732 29.9021 63.5355 28.9645C62.5979 28.0268 61.3261 27.5 60 27.5ZM20 21.25C20 18.2663 21.1853 15.4048 23.295 13.295C25.4048 11.1853 28.2663 10 31.25 10H71.25C74.2337 10 77.0952 11.1853 79.205 13.295C81.3147 15.4048 82.5 18.2663 82.5 21.25V47.5H88.765C90.2424 47.5 91.7053 47.791 93.0702 48.3564C94.4351 48.9217 95.6753 49.7504 96.72 50.795C97.7646 51.8397 98.5933 53.0799 99.1586 54.4448C99.724 55.8097 100.015 57.2726 100.015 58.75V65.515C97.815 66.13 95.84 67.285 94.24 68.82C93.0552 65.1336 90.5937 61.9911 87.2985 59.9578C84.0032 57.9245 80.0905 57.1338 76.2643 57.7281C72.4381 58.3224 68.9495 60.2627 66.4263 63.1997C63.9031 66.1368 62.5108 69.8779 62.5 73.75C62.5 78.135 64.235 82.115 67.06 85.035C59.72 85.6 55 92.485 55 99.375C55 102.095 55.505 104.875 56.62 107.5H23.75C22.7554 107.5 21.8016 107.105 21.0983 106.402C20.3951 105.698 20 104.745 20 103.75V21.25ZM42.5 27.5C41.1739 27.5 39.9021 28.0268 38.9645 28.9645C38.0268 29.9021 37.5 31.1739 37.5 32.5C37.5 33.8261 38.0268 35.0979 38.9645 36.0355C39.9021 36.9732 41.1739 37.5 42.5 37.5C43.8261 37.5 45.0979 36.9732 46.0355 36.0355C46.9732 35.0979 47.5 33.8261 47.5 32.5C47.5 31.1739 46.9732 29.9021 46.0355 28.9645C45.0979 28.0268 43.8261 27.5 42.5 27.5ZM55 50C55 51.3261 55.5268 52.5979 56.4645 53.5355C57.4021 54.4732 58.6739 55 60 55C61.3261 55 62.5979 54.4732 63.5355 53.5355C64.4732 52.5979 65 51.3261 65 50C65 48.6739 64.4732 47.4021 63.5355 46.4645C62.5979 45.5268 61.3261 45 60 45C58.6739 45 57.4021 45.5268 56.4645 46.4645C55.5268 47.4021 55 48.6739 55 50ZM90 73.75C90 76.7337 88.8147 79.5952 86.705 81.705C84.5952 83.8147 81.7337 85 78.75 85C75.7663 85 72.9048 83.8147 70.795 81.705C68.6853 79.5952 67.5 76.7337 67.5 73.75C67.5 70.7663 68.6853 67.9048 70.795 65.795C72.9048 63.6853 75.7663 62.5 78.75 62.5C81.7337 62.5 84.5952 63.6853 86.705 65.795C88.8147 67.9048 90 70.7663 90 73.75ZM97.5 99.375C97.5 107.155 92.145 115 78.75 115C65.355 115 60 107.185 60 99.375C60 94.2 63.6 90 68.035 90H89.465C93.9 90 97.5 94.2 97.5 99.375ZM103.75 87.5C106.071 87.5 108.296 86.5781 109.937 84.9372C111.578 83.2962 112.5 81.0706 112.5 78.75C112.5 76.4294 111.578 74.2038 109.937 72.5628C108.296 70.9219 106.071 70 103.75 70C101.429 70 99.2038 70.9219 97.5628 72.5628C95.9219 74.2038 95 76.4294 95 78.75C95 81.0706 95.9219 83.2962 97.5628 84.9372C99.2038 86.5781 101.429 87.5 103.75 87.5ZM102.49 99.375C102.517 103.115 101.51 106.791 99.58 109.995L100.02 110C110.735 110 115.02 104.51 115.02 99.065C115.02 95.44 112.145 92.5 108.59 92.5H100.89C101.93 94.62 102.49 97 102.49 99.375Z" fill="#0D80BB"/>
</svg>
