<svg width="46" height="46" viewBox="0 0 46 46" fill="none" xmlns="http://www.w3.org/2000/svg">
<path d="M9.20156 4.60156C7.98157 4.60156 6.81154 5.0862 5.94887 5.94887C5.0862 6.81154 4.60156 7.98157 4.60156 9.20156V29.9016C4.60156 31.1216 5.0862 32.2916 5.94887 33.1543C6.81154 34.0169 7.98157 34.5016 9.20156 34.5016H16.1016V39.1016H12.6516C12.3466 39.1016 12.0541 39.2227 11.8384 39.4384C11.6227 39.6541 11.5016 39.9466 11.5016 40.2516C11.5016 40.5566 11.6227 40.8491 11.8384 41.0647C12.0541 41.2804 12.3466 41.4016 12.6516 41.4016H33.3516C33.6566 41.4016 33.9491 41.2804 34.1647 41.0647C34.3804 40.8491 34.5016 40.5566 34.5016 40.2516C34.5016 39.9466 34.3804 39.6541 34.1647 39.4384C33.9491 39.2227 33.6566 39.1016 33.3516 39.1016H29.9016V34.5016H36.8016C38.0216 34.5016 39.1916 34.0169 40.0543 33.1543C40.9169 32.2916 41.4016 31.1216 41.4016 29.9016V9.20156C41.4016 7.98157 40.9169 6.81154 40.0543 5.94887C39.1916 5.0862 38.0216 4.60156 36.8016 4.60156H9.20156ZM27.6016 34.5016V39.1016H18.4016V34.5016H27.6016ZM6.90156 9.20156C6.90156 8.59156 7.14388 8.00655 7.57522 7.57522C8.00655 7.14388 8.59156 6.90156 9.20156 6.90156H36.8016C37.4116 6.90156 37.9966 7.14388 38.4279 7.57522C38.8592 8.00655 39.1016 8.59156 39.1016 9.20156V29.9016C39.1016 30.5116 38.8592 31.0966 38.4279 31.5279C37.9966 31.9592 37.4116 32.2016 36.8016 32.2016H9.20156C8.59156 32.2016 8.00655 31.9592 7.57522 31.5279C7.14388 31.0966 6.90156 30.5116 6.90156 29.9016V9.20156Z" fill="#0D80BB"/>
</svg>
