<svg width="38" height="38" viewBox="0 0 38 38" fill="none" xmlns="http://www.w3.org/2000/svg">
<path d="M20.5867 12.6786C25.6043 12.6786 28.4496 15.9988 28.8628 20.0094H28.9895C29.7562 20.0084 30.5157 20.1584 31.2244 20.4509C31.9332 20.7434 32.5774 21.1727 33.1203 21.7142C33.6631 22.2557 34.0939 22.8989 34.3882 23.6069C34.6824 24.315 34.8343 25.0741 34.8351 25.8408C34.8341 26.6074 34.6821 27.3664 34.3877 28.0742C34.0934 28.7821 33.6625 29.4251 33.1197 29.9664C32.5769 30.5078 31.9327 30.9369 31.2241 31.2293C30.5154 31.5217 29.7561 31.6717 28.9895 31.6706H12.184C11.4173 31.6717 10.658 31.5217 9.94935 31.2293C9.24069 30.9369 8.59656 30.5078 8.05373 29.9664C7.51091 29.4251 7.08004 28.7821 6.7857 28.0742C6.49137 27.3664 6.33934 26.6074 6.3383 25.8408C6.33913 25.0741 6.49101 24.315 6.78525 23.6069C7.07949 22.8989 7.51033 22.2557 8.05318 21.7142C8.59602 21.1727 9.24022 20.7434 9.94899 20.4509C10.6578 20.1584 11.4172 20.0084 12.184 20.0094H12.3106C12.7271 15.9719 15.5707 12.6786 20.5867 12.6786ZM20.5867 15.0504C17.3076 15.0504 14.4481 17.636 14.4481 21.208C14.4481 21.7732 13.9431 22.2181 13.3651 22.2181H12.2726C10.2761 22.2181 8.6563 23.8031 8.6563 25.7585C8.6563 27.7139 10.2761 29.2988 12.2726 29.2988H28.9008C30.899 29.2988 32.5171 27.7155 32.5171 25.7585C32.5171 23.8031 30.899 22.2181 28.9024 22.2181H27.8083C27.2304 22.2181 26.7253 21.7748 26.7253 21.208C26.7253 17.5901 23.8658 15.0488 20.5867 15.0488M6.91622 19.2557C7.02619 19.5211 7.03625 19.8173 6.94455 20.0895C6.85284 20.3617 6.66558 20.5914 6.41747 20.7361L6.27338 20.8074L4.80563 21.4154C4.52799 21.5286 4.21781 21.5325 3.93737 21.4265C3.65693 21.3204 3.42699 21.1122 3.29371 20.8436C3.16043 20.5751 3.13367 20.266 3.21881 19.9785C3.30395 19.691 3.49468 19.4464 3.75272 19.2937L3.8968 19.2209L5.36455 18.6145C5.65536 18.4938 5.98217 18.4936 6.27314 18.6139C6.56411 18.7341 6.79542 18.965 6.91622 19.2557ZM17.1873 11.6035L16.915 11.6953C16.0913 11.9835 15.3129 12.3876 14.6033 12.8955C13.841 12.6479 13.0205 12.6433 12.2555 12.8824C11.4904 13.1215 10.8186 13.5924 10.3329 14.2301C9.84723 14.8677 9.57173 15.6405 9.54453 16.4416C9.51732 17.2427 9.73976 18.0324 10.1811 18.7016C9.4087 18.9179 8.67739 19.2602 8.01663 19.7149C7.29094 18.4676 7.01987 17.0074 7.24956 15.5827C7.47924 14.158 8.19549 12.857 9.2764 11.9009C10.3573 10.9449 11.7361 10.3929 13.1782 10.339C14.6202 10.2851 16.0364 10.7325 17.1857 11.6051M4.65522 11.6541L4.82147 11.7096L6.28922 12.3176C6.56491 12.4331 6.78688 12.6484 6.9108 12.9205C7.03472 13.1925 7.05148 13.5013 6.95772 13.7852C6.86397 14.069 6.66661 14.3071 6.40504 14.4518C6.14346 14.5965 5.83693 14.6373 5.54663 14.5659L5.38355 14.5136L3.9158 13.9056C3.6401 13.7901 3.41814 13.5748 3.29422 13.3027C3.1703 13.0307 3.15354 12.7219 3.24729 12.4381C3.34105 12.1542 3.53841 11.9161 3.79998 11.7714C4.06156 11.6267 4.36809 11.5859 4.65838 11.6573M10.6988 6.92948L10.7701 7.07356L11.3781 8.54131C11.4912 8.81896 11.4952 9.12914 11.3891 9.40958C11.2831 9.69002 11.0748 9.91996 10.8063 10.0532C10.5377 10.1865 10.2287 10.2133 9.94118 10.1281C9.6537 10.043 9.40906 9.85227 9.25638 9.59423L9.18355 9.45015L8.57713 7.9824C8.46397 7.70475 8.46002 7.39457 8.56607 7.11413C8.67213 6.83369 8.88034 6.60375 9.14891 6.47047C9.41748 6.33719 9.72653 6.31043 10.014 6.39557C10.3015 6.48071 10.5461 6.67144 10.6988 6.92948ZM17.5926 6.4244C17.8555 6.53351 18.0705 6.7334 18.1983 6.98769C18.3262 7.24197 18.3585 7.53373 18.2893 7.80981L18.2339 7.97606L17.6275 9.44381C17.5137 9.72215 17.2985 9.94695 17.0254 10.0728C16.7523 10.1987 16.4417 10.2163 16.1561 10.1221C15.8706 10.0278 15.6314 9.82875 15.4869 9.56504C15.3424 9.30134 15.3033 8.99263 15.3776 8.70123L15.433 8.5334L16.041 7.06723C16.1006 6.92313 16.1881 6.79219 16.2984 6.68189C16.4086 6.57159 16.5396 6.4841 16.6836 6.42441C16.8277 6.36471 16.9822 6.33399 17.1381 6.33398C17.2941 6.33398 17.4485 6.36471 17.5926 6.4244Z" fill="white"/>
</svg>
