<svg width="32" height="32" viewBox="0 0 32 32" fill="none" xmlns="http://www.w3.org/2000/svg">
<circle cx="16" cy="16" r="16" fill="#0D80BB" fill-opacity="0.1"/>
<path d="M20.9225 19.9026L19.9729 20.8418C19.2731 21.5282 18.3649 22.4114 17.2481 23.4914C16.9124 23.8159 16.4638 23.9973 15.9969 23.9973C15.5299 23.9973 15.0813 23.8159 14.7457 23.4914L11.9529 20.7746C11.6014 20.43 11.3075 20.1394 11.0713 19.9026C10.0971 18.9284 9.43379 17.6872 9.16506 16.3361C8.89633 14.9849 9.0343 13.5844 9.56153 12.3116C10.0888 11.0388 10.9815 9.95097 12.127 9.1856C13.2725 8.42023 14.6192 8.01172 15.9969 8.01172C17.3745 8.01172 18.7212 8.42023 19.8667 9.1856C21.0122 9.95097 21.905 11.0388 22.4322 12.3116C22.9594 13.5844 23.0974 14.9849 22.8286 16.3361C22.5599 17.6872 21.8966 18.9284 20.9225 19.9026ZM17.9969 15.197C17.9969 14.6665 17.7861 14.1578 17.4111 13.7828C17.036 13.4077 16.5273 13.197 15.9969 13.197C15.4664 13.197 14.9577 13.4077 14.5826 13.7828C14.2076 14.1578 13.9969 14.6665 13.9969 15.197C13.9969 15.7274 14.2076 16.2361 14.5826 16.6112C14.9577 16.9863 15.4664 17.197 15.9969 17.197C16.5273 17.197 17.036 16.9863 17.4111 16.6112C17.7861 16.2361 17.9969 15.7274 17.9969 15.197Z" fill="#0D80BB"/>
</svg>
