<svg width="40" height="40" viewBox="0 0 40 40" fill="none" xmlns="http://www.w3.org/2000/svg">
<path d="M28.6872 3.7289C28.787 3.41574 28.7593 3.07591 28.6104 2.78296C28.4614 2.49002 28.203 2.26754 27.8912 2.16367C27.5794 2.05981 27.2392 2.08292 26.9443 2.22801C26.6495 2.3731 26.4236 2.62849 26.3156 2.9389L25.0656 6.68723C24.9659 7.00039 24.9935 7.34022 25.1425 7.63316C25.2914 7.92611 25.5498 8.14859 25.8616 8.25246C26.1734 8.35632 26.5136 8.3332 26.8085 8.18811C27.1034 8.04302 27.3293 7.78764 27.4372 7.47723L28.6872 3.7289ZM36.3006 3.70056C36.5347 3.93494 36.6661 4.25265 36.6661 4.5839C36.6661 4.91515 36.5347 5.23286 36.3006 5.46723L32.1339 9.6339C32.0195 9.75671 31.8815 9.85521 31.7281 9.92353C31.5748 9.99185 31.4093 10.0286 31.2414 10.0315C31.0736 10.0345 30.9069 10.0036 30.7513 9.94077C30.5956 9.8779 30.4542 9.78433 30.3355 9.66563C30.2168 9.54693 30.1232 9.40554 30.0604 9.24989C29.9975 9.09425 29.9666 8.92753 29.9696 8.75969C29.9726 8.59186 30.0093 8.42633 30.0776 8.273C30.1459 8.11967 30.2444 7.98167 30.3672 7.86723L34.5339 3.70056C34.7683 3.46648 35.086 3.335 35.4172 3.335C35.7485 3.335 36.0662 3.46648 36.3006 3.70056ZM15.1272 7.19723C15.4007 6.62938 15.8086 6.13681 16.3154 5.76222C16.8223 5.38762 17.4129 5.14233 18.036 5.04759C18.6591 4.95285 19.2959 5.01153 19.8912 5.21854C20.4865 5.42556 21.0224 5.77465 21.4522 6.23556L33.1289 18.7456C33.5505 19.1973 33.858 19.7434 34.0256 20.3382C34.1932 20.933 34.2162 21.5592 34.0926 22.1647C33.9689 22.7701 33.7023 23.3372 33.3149 23.8187C32.9275 24.3001 32.4306 24.6819 31.8656 24.9322L26.1656 27.4589C26.8588 29.0716 26.888 30.8926 26.2468 32.5267C25.6056 34.1607 24.3459 35.476 22.7409 36.187C21.136 36.8979 19.3154 36.9472 17.6744 36.3241C16.0333 35.7011 14.7042 34.4559 13.9756 32.8589L11.6139 33.9056C11.0738 34.1449 10.475 34.2194 9.89269 34.1198C9.31037 34.0202 8.77043 33.7508 8.34058 33.3456L5.94225 31.0839C5.47855 30.6468 5.16607 30.0734 5.0501 29.4468C4.93413 28.8202 5.0207 28.173 5.29725 27.5989L15.1272 7.19723ZM16.2639 31.8456C16.7344 32.8189 17.5648 33.5712 18.5797 33.9437C19.5945 34.3162 20.7144 34.2796 21.7029 33.8418C22.6913 33.4039 23.4709 32.599 23.8769 31.5971C24.2829 30.5952 24.2837 29.4747 23.8789 28.4722L16.2639 31.8456ZM19.6239 7.94223C19.4714 7.77886 19.2815 7.65511 19.0704 7.58169C18.8593 7.50828 18.6336 7.48741 18.4126 7.52089C18.1917 7.55438 17.9822 7.64121 17.8024 7.77387C17.6226 7.90653 17.4778 8.08102 17.3806 8.28223L7.55058 28.6839C7.50419 28.7796 7.48952 28.8876 7.5087 28.9922C7.52789 29.0968 7.57992 29.1926 7.65725 29.2656L10.0556 31.5256C10.1272 31.593 10.2171 31.6378 10.314 31.6544C10.4109 31.671 10.5106 31.6587 10.6006 31.6189L30.8522 22.6472C31.0528 22.5586 31.2293 22.4232 31.3669 22.2525C31.5045 22.0818 31.5993 21.8806 31.6433 21.6658C31.6873 21.451 31.6794 21.2287 31.62 21.0176C31.5607 20.8065 31.4517 20.6127 31.3022 20.4522L19.6239 7.94223ZM31.6672 13.7489C31.6672 13.4174 31.7989 13.0994 32.0334 12.865C32.2678 12.6306 32.5857 12.4989 32.9172 12.4989H36.2506C36.5821 12.4989 36.9 12.6306 37.1345 12.865C37.3689 13.0994 37.5006 13.4174 37.5006 13.7489C37.5006 14.0804 37.3689 14.3984 37.1345 14.6328C36.9 14.8672 36.5821 14.9989 36.2506 14.9989H32.9172C32.5857 14.9989 32.2678 14.8672 32.0334 14.6328C31.7989 14.3984 31.6672 14.0804 31.6672 13.7489Z" fill="white"/>
</svg>
