<svg width="30" height="30" viewBox="0 0 30 30" fill="none" xmlns="http://www.w3.org/2000/svg">
<path d="M5.27417 10.5874C5.44996 10.4119 5.68824 10.3133 5.93668 10.3133C6.18511 10.3133 6.42339 10.4119 6.59918 10.5874L14.9992 18.9874L23.3992 10.5874C23.485 10.4953 23.5885 10.4215 23.7035 10.3702C23.8185 10.319 23.9426 10.2914 24.0685 10.2892C24.1944 10.287 24.3194 10.3101 24.4362 10.3573C24.5529 10.4044 24.6589 10.4746 24.748 10.5637C24.837 10.6527 24.9072 10.7587 24.9543 10.8755C25.0015 10.9922 25.0246 11.1172 25.0224 11.2431C25.0202 11.369 24.9926 11.4931 24.9414 11.6081C24.8902 11.7231 24.8163 11.8266 24.7242 11.9124L15.6617 20.9749C15.4859 21.1505 15.2476 21.2491 14.9992 21.2491C14.7507 21.2491 14.5125 21.1505 14.3367 20.9749L5.27417 11.9124C5.09861 11.7367 5 11.4984 5 11.2499C5 11.0015 5.09861 10.7632 5.27417 10.5874Z" fill="white"/>
</svg>
