<svg width="40" height="40" viewBox="0 0 40 40" fill="none" xmlns="http://www.w3.org/2000/svg">
<path d="M29.5833 5C31.0199 5 32.3977 5.57068 33.4135 6.5865C34.4293 7.60233 35 8.98008 35 10.4167V29.5833C35 31.0199 34.4293 32.3977 33.4135 33.4135C32.3977 34.4293 31.0199 35 29.5833 35H10.4167C8.98008 35 7.60233 34.4293 6.5865 33.4135C5.57068 32.3977 5 31.0199 5 29.5833V10.4167C5 8.98008 5.57068 7.60233 6.5865 6.5865C7.60233 5.57068 8.98008 5 10.4167 5H29.5833ZM32.5 14.1667H7.5V29.5833C7.5 31.1933 8.80667 32.5 10.4167 32.5H29.5833C30.3569 32.5 31.0987 32.1927 31.6457 31.6457C32.1927 31.0987 32.5 30.3569 32.5 29.5833V14.1667ZM12.9167 24.1667C13.4692 24.1667 13.9991 24.3862 14.3898 24.7769C14.7805 25.1676 15 25.6975 15 26.25C15 26.8025 14.7805 27.3324 14.3898 27.7231C13.9991 28.1138 13.4692 28.3333 12.9167 28.3333C12.3641 28.3333 11.8342 28.1138 11.4435 27.7231C11.0528 27.3324 10.8333 26.8025 10.8333 26.25C10.8333 25.6975 11.0528 25.1676 11.4435 24.7769C11.8342 24.3862 12.3641 24.1667 12.9167 24.1667ZM20 24.1667C20.5525 24.1667 21.0824 24.3862 21.4731 24.7769C21.8638 25.1676 22.0833 25.6975 22.0833 26.25C22.0833 26.8025 21.8638 27.3324 21.4731 27.7231C21.0824 28.1138 20.5525 28.3333 20 28.3333C19.4475 28.3333 18.9176 28.1138 18.5269 27.7231C18.1362 27.3324 17.9167 26.8025 17.9167 26.25C17.9167 25.6975 18.1362 25.1676 18.5269 24.7769C18.9176 24.3862 19.4475 24.1667 20 24.1667ZM12.9167 17.5C13.4692 17.5 13.9991 17.7195 14.3898 18.1102C14.7805 18.5009 15 19.0308 15 19.5833C15 20.1359 14.7805 20.6658 14.3898 21.0565C13.9991 21.4472 13.4692 21.6667 12.9167 21.6667C12.3641 21.6667 11.8342 21.4472 11.4435 21.0565C11.0528 20.6658 10.8333 20.1359 10.8333 19.5833C10.8333 19.0308 11.0528 18.5009 11.4435 18.1102C11.8342 17.7195 12.3641 17.5 12.9167 17.5ZM20 17.5C20.5525 17.5 21.0824 17.7195 21.4731 18.1102C21.8638 18.5009 22.0833 19.0308 22.0833 19.5833C22.0833 20.1359 21.8638 20.6658 21.4731 21.0565C21.0824 21.4472 20.5525 21.6667 20 21.6667C19.4475 21.6667 18.9176 21.4472 18.5269 21.0565C18.1362 20.6658 17.9167 20.1359 17.9167 19.5833C17.9167 19.0308 18.1362 18.5009 18.5269 18.1102C18.9176 17.7195 19.4475 17.5 20 17.5ZM27.0833 17.5C27.6359 17.5 28.1658 17.7195 28.5565 18.1102C28.9472 18.5009 29.1667 19.0308 29.1667 19.5833C29.1667 20.1359 28.9472 20.6658 28.5565 21.0565C28.1658 21.4472 27.6359 21.6667 27.0833 21.6667C26.5308 21.6667 26.0009 21.4472 25.6102 21.0565C25.2195 20.6658 25 20.1359 25 19.5833C25 19.0308 25.2195 18.5009 25.6102 18.1102C26.0009 17.7195 26.5308 17.5 27.0833 17.5ZM29.5833 7.5H10.4167C9.64312 7.5 8.90125 7.80729 8.35427 8.35427C7.80729 8.90125 7.5 9.64312 7.5 10.4167V11.6667H32.5V10.4167C32.5 9.64312 32.1927 8.90125 31.6457 8.35427C31.0987 7.80729 30.3569 7.5 29.5833 7.5Z" fill="white"/>
</svg>
