<svg width="32" height="32" viewBox="0 0 32 32" fill="none" xmlns="http://www.w3.org/2000/svg">
<path d="M29.3332 16.0013V25.3346C29.3332 26.3549 28.9434 27.3367 28.2435 28.079C27.5435 28.8213 26.5864 29.2681 25.5678 29.328L25.3332 29.3346H21.3332C21.0066 29.3346 20.6914 29.2147 20.4473 28.9977C20.2033 28.7807 20.0474 28.4816 20.0092 28.1573L19.9998 28.0013V20.0013C19.9999 19.6747 20.1198 19.3595 20.3368 19.1155C20.5538 18.8714 20.8528 18.7155 21.1772 18.6773L21.3332 18.668H27.3332V16.0013C27.3332 12.9955 26.1391 10.1128 24.0137 7.98743C21.8883 5.86201 19.0056 4.66797 15.9998 4.66797C12.994 4.66797 10.1114 5.86201 7.98596 7.98743C5.86055 10.1128 4.6665 12.9955 4.6665 16.0013V18.668H10.6665C11.0201 18.668 11.3593 18.8084 11.6093 19.0585C11.8594 19.3085 11.9998 19.6477 11.9998 20.0013V28.0013C11.9998 28.3549 11.8594 28.6941 11.6093 28.9441C11.3593 29.1942 11.0201 29.3346 10.6665 29.3346H6.6665C5.60564 29.3346 4.58822 28.9132 3.83808 28.1631C3.08793 27.4129 2.6665 26.3955 2.6665 25.3346V16.0013C2.6665 8.6373 8.63584 2.66797 15.9998 2.66797C23.3638 2.66797 29.3332 8.6373 29.3332 16.0013ZM9.99984 20.668H4.6665V25.3346C4.6665 25.8651 4.87722 26.3738 5.25229 26.7488C5.62736 27.1239 6.13607 27.3346 6.6665 27.3346H9.99984V20.668ZM27.3332 20.668H21.9998V27.3346H25.3332C25.8301 27.3346 26.3093 27.1496 26.6773 26.8156C27.0453 26.4816 27.2758 26.0226 27.3238 25.528L27.3332 25.3346V20.668Z" fill="#0D80BB"/>
</svg>
