<svg width="32" height="32" viewBox="0 0 32 32" fill="none" xmlns="http://www.w3.org/2000/svg">
<path d="M29.3327 16.0013V25.3346C29.3327 26.3549 28.9429 27.3367 28.243 28.079C27.543 28.8213 26.5859 29.2681 25.5673 29.328L25.3327 29.3346H21.3327C21.0061 29.3346 20.6909 29.2147 20.4469 28.9977C20.2028 28.7807 20.0469 28.4816 20.0087 28.1573L19.9993 28.0013V20.0013C19.9994 19.6747 20.1193 19.3595 20.3363 19.1155C20.5533 18.8714 20.8523 18.7155 21.1767 18.6773L21.3327 18.668H27.3327V16.0013C27.3327 12.9955 26.1386 10.1128 24.0132 7.98743C21.8878 5.86201 19.0051 4.66797 15.9993 4.66797C12.9936 4.66797 10.1109 5.86201 7.98547 7.98743C5.86006 10.1128 4.66602 12.9955 4.66602 16.0013V18.668H10.666C11.0196 18.668 11.3588 18.8084 11.6088 19.0585C11.8589 19.3085 11.9993 19.6477 11.9993 20.0013V28.0013C11.9993 28.3549 11.8589 28.6941 11.6088 28.9441C11.3588 29.1942 11.0196 29.3346 10.666 29.3346H6.66602C5.60515 29.3346 4.58773 28.9132 3.83759 28.1631C3.08744 27.4129 2.66602 26.3955 2.66602 25.3346V16.0013C2.66602 8.6373 8.63535 2.66797 15.9993 2.66797C23.3633 2.66797 29.3327 8.6373 29.3327 16.0013ZM9.99935 20.668H4.66602V25.3346C4.66602 25.8651 4.87673 26.3738 5.2518 26.7488C5.62687 27.1239 6.13558 27.3346 6.66602 27.3346H9.99935V20.668ZM27.3327 20.668H21.9993V27.3346H25.3327C25.8296 27.3346 26.3088 27.1496 26.6768 26.8156C27.0448 26.4816 27.2753 26.0226 27.3233 25.528L27.3327 25.3346V20.668Z" fill="white"/>
</svg>
