<svg width="29" height="29" viewBox="0 0 29 29" fill="none" xmlns="http://www.w3.org/2000/svg">
<path d="M4.22949 14.5013C4.22949 11.7773 5.31159 9.16488 7.23775 7.23873C9.16391 5.31257 11.7763 4.23047 14.5003 4.23047C17.2243 4.23047 19.8367 5.31257 21.7629 7.23873C23.6891 9.16488 24.7712 11.7773 24.7712 14.5013C24.7712 17.2253 23.6891 19.8377 21.7629 21.7639C19.8367 23.69 17.2243 24.7721 14.5003 24.7721C11.7763 24.7721 9.16391 23.69 7.23775 21.7639C5.31159 19.8377 4.22949 17.2253 4.22949 14.5013ZM14.5003 2.41797C7.8267 2.41797 2.41699 7.82768 2.41699 14.5013C2.41699 21.1749 7.8267 26.5846 14.5003 26.5846C21.174 26.5846 26.5837 21.1749 26.5837 14.5013C26.5837 7.82768 21.174 2.41797 14.5003 2.41797ZM14.4919 8.0343C14.4606 7.80683 14.3441 7.59973 14.166 7.45482C13.9879 7.30993 13.7614 7.23804 13.5323 7.25369C13.3032 7.26934 13.0886 7.37136 12.9319 7.53914C12.7751 7.70692 12.6879 7.92794 12.6878 8.15755V15.4076L12.6963 15.5308C12.7261 15.7478 12.8334 15.9466 12.9985 16.0905C13.1635 16.2345 13.3751 16.3138 13.5941 16.3138H18.4274L18.5507 16.3053C18.7781 16.274 18.9852 16.1576 19.1301 15.9795C19.275 15.8013 19.3469 15.5749 19.3313 15.3458C19.3156 15.1167 19.2136 14.9021 19.0458 14.7454C18.878 14.5886 18.657 14.5014 18.4274 14.5013H14.5003V8.15755L14.4919 8.0343Z" fill="#0D80BB"/>
</svg>
