<svg width="24" height="24" viewBox="0 0 24 24" fill="none" xmlns="http://www.w3.org/2000/svg">
<path d="M6.75 22C6.55998 21.9999 6.37706 21.9278 6.23821 21.798C6.09936 21.6683 6.01493 21.4907 6.00197 21.3011C5.98902 21.1115 6.04852 20.9241 6.16843 20.7767C6.28835 20.6293 6.45975 20.5329 6.648 20.507L6.75 20.5H8.499V18.002H4.25C3.67987 18.0021 3.13098 17.7857 2.71425 17.3966C2.29751 17.0076 2.04402 16.4748 2.005 15.906L2 15.752V5.25C1.99993 4.67987 2.2163 4.13098 2.60537 3.71425C2.99444 3.29751 3.52721 3.04402 4.096 3.005L4.25 3H19.749C20.3191 2.99993 20.868 3.2163 21.2848 3.60537C21.7015 3.99444 21.955 4.52721 21.994 5.096L21.999 5.25V15.752C21.9991 16.3221 21.7827 16.871 21.3936 17.2878C21.0046 17.7045 20.4718 17.958 19.903 17.997L19.749 18.002H15.499V20.5H17.25C17.4414 20.4981 17.6263 20.5693 17.7668 20.6993C17.9073 20.8292 17.9928 21.0079 18.0059 21.1989C18.0189 21.3898 17.9585 21.5785 17.8369 21.7263C17.7153 21.8742 17.5419 21.9699 17.352 21.994L17.25 22H6.75ZM13.998 18.002H9.998L9.999 20.5H13.999L13.998 18.002ZM19.748 4.5H4.25C4.06876 4.50001 3.89366 4.56564 3.75707 4.68477C3.62048 4.80389 3.53165 4.96845 3.507 5.148L3.5 5.25V15.752C3.5 16.132 3.782 16.446 4.148 16.495L4.25 16.502H19.749C19.9302 16.502 20.1053 16.4364 20.2419 16.3172C20.3785 16.1981 20.4674 16.0336 20.492 15.854L20.499 15.752V5.25C20.499 5.06876 20.4334 4.89366 20.3142 4.75707C20.1951 4.62048 20.0306 4.53165 19.851 4.507L19.748 4.5Z" fill="white"/>
</svg>
