<svg width="24" height="24" viewBox="0 0 24 24" fill="none" xmlns="http://www.w3.org/2000/svg">
<path d="M12 2C17.523 2 22 6.477 22 12C22 17.523 17.523 22 12 22C6.477 22 2 17.523 2 12C2 6.477 6.477 2 12 2ZM12 3.5C9.74566 3.5 7.58365 4.39553 5.98959 5.98959C4.39553 7.58365 3.5 9.74566 3.5 12C3.5 14.2543 4.39553 16.4163 5.98959 18.0104C7.58365 19.6045 9.74566 20.5 12 20.5C14.2543 20.5 16.4163 19.6045 18.0104 18.0104C19.6045 16.4163 20.5 14.2543 20.5 12C20.5 9.74566 19.6045 7.58365 18.0104 5.98959C16.4163 4.39553 14.2543 3.5 12 3.5ZM7.47 9.97C7.61063 9.82955 7.80125 9.75066 8 9.75066C8.19875 9.75066 8.38937 9.82955 8.53 9.97L12 13.44L15.47 9.97C15.5387 9.89631 15.6215 9.83721 15.7135 9.79622C15.8055 9.75523 15.9048 9.73318 16.0055 9.73141C16.1062 9.72963 16.2062 9.74816 16.2996 9.78588C16.393 9.8236 16.4778 9.87974 16.549 9.95096C16.6203 10.0222 16.6764 10.107 16.7141 10.2004C16.7518 10.2938 16.7704 10.3938 16.7686 10.4945C16.7668 10.5952 16.7448 10.6945 16.7038 10.7865C16.6628 10.8785 16.6037 10.9613 16.53 11.03L12.53 15.03C12.3894 15.1705 12.1988 15.2493 12 15.2493C11.8012 15.2493 11.6106 15.1705 11.47 15.03L7.47 11.03C7.32955 10.8894 7.25066 10.6988 7.25066 10.5C7.25066 10.3012 7.32955 10.1106 7.47 9.97Z" fill="white"/>
</svg>
