<svg width="48" height="48" viewBox="0 0 48 48" fill="none" xmlns="http://www.w3.org/2000/svg">
<path d="M31.0597 8.43868C31.3406 8.71993 31.4984 9.10118 31.4984 9.49868C31.4984 9.89618 31.3406 10.2774 31.0597 10.5587L17.6197 23.9987L31.0597 37.4387C31.2071 37.576 31.3253 37.7416 31.4073 37.9256C31.4892 38.1096 31.5333 38.3082 31.5369 38.5096C31.5404 38.711 31.5034 38.9111 31.4279 39.0979C31.3525 39.2847 31.2402 39.4543 31.0978 39.5968C30.9553 39.7392 30.7857 39.8515 30.5989 39.9269C30.4121 40.0024 30.2121 40.0394 30.0106 40.0359C29.8092 40.0323 29.6106 39.9882 29.4266 39.9062C29.2426 39.8243 29.077 39.7061 28.9397 39.5587L14.4397 25.0587C14.1588 24.7774 14.001 24.3962 14.001 23.9987C14.001 23.6012 14.1588 23.2199 14.4397 22.9387L28.9397 8.43868C29.2209 8.15778 29.6022 8 29.9997 8C30.3972 8 30.7784 8.15778 31.0597 8.43868Z" fill="#323232"/>
</svg>
