<svg width="48" height="48" viewBox="0 0 48 48" fill="none" xmlns="http://www.w3.org/2000/svg">
<path d="M16.9403 8.43868C16.6594 8.71993 16.5016 9.10118 16.5016 9.49868C16.5016 9.89618 16.6594 10.2774 16.9403 10.5587L30.3803 23.9987L16.9403 37.4387C16.7929 37.576 16.6747 37.7416 16.5927 37.9256C16.5108 38.1096 16.4667 38.3082 16.4631 38.5096C16.4596 38.711 16.4966 38.9111 16.5721 39.0979C16.6475 39.2847 16.7598 39.4543 16.9022 39.5968C17.0447 39.7392 17.2143 39.8515 17.4011 39.9269C17.5879 40.0024 17.7879 40.0394 17.9894 40.0359C18.1908 40.0323 18.3894 39.9882 18.5734 39.9062C18.7574 39.8243 18.923 39.7061 19.0603 39.5587L33.5603 25.0587C33.8412 24.7774 33.999 24.3962 33.999 23.9987C33.999 23.6012 33.8412 23.2199 33.5603 22.9387L19.0603 8.43868C18.7791 8.15778 18.3978 8 18.0003 8C17.6028 8 17.2216 8.15778 16.9403 8.43868Z" fill="#323232"/>
</svg>
