<svg width="32" height="32" viewBox="0 0 32 32" fill="none" xmlns="http://www.w3.org/2000/svg">
<path d="M13.5392 19.6964L13.5272 19.6684C13.347 19.6191 13.1682 19.5644 12.9912 19.5044L12.9779 19.4991C11.136 18.8689 9.5372 17.6785 8.40538 16.0946C7.27357 14.5107 6.66536 12.6125 6.66589 10.6657C6.6653 8.27655 7.58096 5.97811 9.22428 4.24383C10.8676 2.50955 13.1134 1.4715 15.4992 1.34349C17.8849 1.21549 20.2289 2.00728 22.0484 3.55577C23.8678 5.10426 25.0242 7.29154 25.2792 9.66708C25.3379 10.2164 24.8846 10.6657 24.3326 10.6657C23.7806 10.6657 23.3392 10.2151 23.2659 9.66841C23.0885 8.3781 22.5708 7.15829 21.7659 6.13434C20.961 5.11039 19.898 4.31923 18.686 3.84218C17.4741 3.36513 16.157 3.21939 14.8701 3.41994C13.5832 3.6205 12.3729 4.16011 11.3636 4.98332C10.3543 5.80654 9.58245 6.88365 9.12731 8.10397C8.67216 9.3243 8.55017 10.6438 8.77386 11.9269C8.99756 13.21 9.55888 14.4103 10.4001 15.4046C11.2414 16.399 12.3322 17.1513 13.5606 17.5844C13.808 17.0251 14.2402 16.5679 14.7846 16.2893C15.3291 16.0107 15.9528 15.9278 16.5511 16.0544C17.1495 16.181 17.6861 16.5094 18.0711 16.9845C18.4562 17.4597 18.6661 18.0528 18.6659 18.6644C18.6659 19.4617 18.3166 20.1764 17.7632 20.6644C17.2762 21.0945 16.649 21.3321 15.9992 21.3324C15.4732 21.3343 14.9585 21.1798 14.5205 20.8885C14.0825 20.5972 13.7409 20.1822 13.5392 19.6964ZM10.6619 20.6657C9.67918 20.1406 8.77928 19.4734 7.99122 18.6857C7.26074 18.7707 6.58692 19.1211 6.09777 19.6702C5.60861 20.2193 5.33819 20.929 5.33789 21.6644V22.4351C5.33789 23.6244 5.76189 24.7764 6.53522 25.6817C8.62322 28.1271 11.8046 29.3351 15.9992 29.3351C20.1939 29.3351 23.3766 28.1271 25.4686 25.6817C26.2437 24.776 26.6698 23.6232 26.6699 22.4311V21.6644C26.6699 20.8692 26.3542 20.1066 25.7922 19.544C25.2301 18.9815 24.4677 18.6651 23.6726 18.6644H20.6659C20.6659 19.3817 20.5059 20.0591 20.2166 20.6644H23.6726C23.9373 20.6651 24.191 20.7708 24.3779 20.9582C24.5649 21.1457 24.6699 21.3997 24.6699 21.6644V22.4311C24.6701 23.1463 24.4148 23.8381 23.9499 24.3817C22.2739 26.3391 19.6512 27.3337 15.9992 27.3337C12.3472 27.3337 9.72722 26.3391 8.05656 24.3831C7.59199 23.8398 7.33666 23.1485 7.33656 22.4337V21.6644C7.33656 21.3992 7.44191 21.1448 7.62945 20.9573C7.81699 20.7698 8.07134 20.6644 8.33656 20.6644L10.6619 20.6657ZM10.6659 10.6657C10.6661 9.74581 10.9043 8.84158 11.3573 8.04091C11.8103 7.24024 12.4627 6.57036 13.2511 6.09634C14.0395 5.62233 14.9371 5.3603 15.8567 5.33573C16.7763 5.31115 17.6867 5.52486 18.4993 5.95608C19.3119 6.38731 19.9991 7.02139 20.4942 7.79672C20.9893 8.57205 21.2755 9.46227 21.3249 10.3809C21.3742 11.2995 21.1852 12.2152 20.776 13.0392C20.3669 13.8631 19.7516 14.5672 18.9899 15.0831C18.1507 14.3826 17.0923 13.999 15.9992 13.9991C16.8833 13.9991 17.7311 13.6479 18.3562 13.0228C18.9814 12.3976 19.3326 11.5498 19.3326 10.6657C19.3326 9.78169 18.9814 8.93384 18.3562 8.30872C17.7311 7.6836 16.8833 7.33241 15.9992 7.33241C15.1152 7.33241 14.2673 7.6836 13.6422 8.30872C13.0171 8.93384 12.6659 9.78169 12.6659 10.6657C12.6659 11.5498 13.0171 12.3976 13.6422 13.0228C14.2673 13.6479 15.1152 13.9991 15.9992 13.9991C14.8606 13.9991 13.8179 14.4071 13.0099 15.0831C12.2871 14.5953 11.6953 13.9373 11.2865 13.167C10.8778 12.3967 10.6646 11.5378 10.6659 10.6657Z" fill="white"/>
</svg>
