<svg width="40" height="40" viewBox="0 0 40 40" fill="none" xmlns="http://www.w3.org/2000/svg">
<path d="M20.0007 3.33203C29.2057 3.33203 36.6673 10.7937 36.6673 19.9987C36.6673 29.2037 29.2057 36.6654 20.0007 36.6654C17.3406 36.669 14.7187 36.0334 12.3557 34.812L5.979 36.5904C5.62323 36.6896 5.24747 36.6926 4.89021 36.5988C4.53294 36.5051 4.20702 36.318 3.94585 36.0568C3.68467 35.7957 3.49763 35.4698 3.40388 35.1125C3.31013 34.7552 3.31305 34.3795 3.41233 34.0237L5.19233 27.652C3.96792 25.2869 3.33054 22.6619 3.334 19.9987C3.334 10.7937 10.7957 3.33203 20.0007 3.33203ZM20.0007 5.83203C16.2434 5.83203 12.6401 7.32459 9.98332 9.98135C7.32655 12.6381 5.834 16.2415 5.834 19.9987C5.834 22.4487 6.45567 24.8037 7.62233 26.8937L7.87233 27.3437L6.019 33.9837L12.664 32.1304L13.114 32.3804C15.0046 33.4315 17.1109 34.0357 19.2712 34.1467C21.4316 34.2577 23.5887 33.8724 25.5771 33.0205C27.5655 32.1686 29.3323 30.8727 30.7422 29.232C32.1521 27.5914 33.1676 25.6497 33.7108 23.5558C34.2539 21.4619 34.3104 19.2714 33.8757 17.1523C33.4411 15.0333 32.527 13.0418 31.2034 11.3308C29.8798 9.61977 28.182 8.23456 26.2401 7.2814C24.2982 6.32824 22.1639 5.83245 20.0007 5.83203ZM14.584 21.6654H22.0807C22.3974 21.6655 22.7022 21.7858 22.9337 22.002C23.1651 22.2182 23.3058 22.5142 23.3274 22.8302C23.349 23.1461 23.2498 23.4585 23.0499 23.7042C22.8501 23.9499 22.5644 24.1105 22.2507 24.1537L22.0807 24.1654H14.584C14.2673 24.1653 13.9624 24.045 13.731 23.8287C13.4996 23.6125 13.3589 23.3165 13.3373 23.0006C13.3157 22.6846 13.4149 22.3722 13.6147 22.1265C13.8146 21.8809 14.1002 21.7202 14.414 21.677L14.584 21.6654ZM14.584 15.832H25.4257C25.7422 15.8325 26.0468 15.9532 26.2779 16.1695C26.509 16.3858 26.6494 16.6818 26.6708 16.9977C26.6921 17.3135 26.5929 17.6257 26.393 17.8712C26.1932 18.1167 25.9076 18.2772 25.594 18.3204L25.4257 18.332H14.584C14.2673 18.3319 13.9624 18.2116 13.731 17.9954C13.4996 17.7792 13.3589 17.4832 13.3373 17.1672C13.3157 16.8513 13.4149 16.5389 13.6147 16.2932C13.8146 16.0475 14.1002 15.8869 14.414 15.8437L14.584 15.832Z" fill="white"/>
</svg>
