<svg width="24" height="24" viewBox="0 0 24 24" fill="none" xmlns="http://www.w3.org/2000/svg">
<path d="M13.45 2.53344C13.0442 2.19146 12.5307 2.00391 12 2.00391C11.4693 2.00391 10.9558 2.19146 10.55 2.53344L3.8 8.22844C3.54946 8.4396 3.34806 8.70292 3.20988 9.00001C3.0717 9.2971 3.00007 9.62079 3 9.94844V19.2534C3 20.2194 3.784 21.0034 4.75 21.0034H7.75C8.21413 21.0034 8.65925 20.8191 8.98744 20.4909C9.31563 20.1627 9.5 19.7176 9.5 19.2534V15.2504C9.5 14.5704 10.042 14.0184 10.717 14.0004H13.283C13.6088 14.009 13.9183 14.1445 14.1456 14.378C14.373 14.6115 14.5001 14.9246 14.5 15.2504V19.2534C14.5 20.2194 15.284 21.0034 16.25 21.0034H19.25C19.7141 21.0034 20.1592 20.8191 20.4874 20.4909C20.8156 20.1627 21 19.7176 21 19.2534V9.94744C20.9999 9.61979 20.9283 9.2961 20.7901 8.99901C20.6519 8.70192 20.4505 8.4386 20.2 8.22744L13.45 2.53344Z" fill="white"/>
</svg>
