<svg width="24" height="24" viewBox="0 0 24 24" fill="none" xmlns="http://www.w3.org/2000/svg">
<path d="M4 4C4 3.46957 4.21071 2.96086 4.58579 2.58579C4.96086 2.21071 5.46957 2 6 2H12.172C12.7024 2.00011 13.211 2.2109 13.586 2.586L18.696 7.695C18.5895 7.77713 18.4886 7.86633 18.394 7.962L16.356 10H14C13.4696 10 12.9609 9.78929 12.5858 9.41421C12.2107 9.03914 12 8.53043 12 8V3.5H6C5.86739 3.5 5.74021 3.55268 5.64645 3.64645C5.55268 3.74021 5.5 3.86739 5.5 4V20C5.5 20.1326 5.55268 20.2598 5.64645 20.3536C5.74021 20.4473 5.86739 20.5 6 20.5H18C18.1326 20.5 18.2598 20.4473 18.3536 20.3536C18.4473 20.2598 18.5 20.1326 18.5 20V17.15L20 15.65V20C20 20.5304 19.7893 21.0391 19.4142 21.4142C19.0391 21.7893 18.5304 22 18 22H6C5.46957 22 4.96086 21.7893 4.58579 21.4142C4.21071 21.0391 4 20.5304 4 20V4ZM14 8.5H17.38L13.5 4.62V8C13.5 8.13261 13.5527 8.25979 13.6464 8.35355C13.7402 8.44732 13.8674 8.5 14 8.5ZM13.197 14.572L19.1 8.669C19.3111 8.45133 19.5633 8.27781 19.8421 8.15856C20.1208 8.03931 20.4205 7.97671 20.7237 7.97439C21.0269 7.97208 21.3275 8.0301 21.6081 8.14508C21.8886 8.26006 22.1435 8.4297 22.3579 8.64413C22.5722 8.85856 22.7418 9.11348 22.8567 9.39407C22.9716 9.67466 23.0295 9.9753 23.0271 10.2785C23.0247 10.5817 22.962 10.8814 22.8427 11.1601C22.7233 11.4388 22.5497 11.691 22.332 11.902L16.43 17.804C16.0854 18.1479 15.6541 18.3922 15.182 18.511L13.352 18.968C13.2372 18.9976 13.1183 19.0084 13 19H7.75C7.55109 19 7.36032 18.921 7.21967 18.7803C7.07902 18.6397 7 18.4489 7 18.25C7 18.0511 7.07902 17.8603 7.21967 17.7197C7.36032 17.579 7.55109 17.5 7.75 17.5H12.071L12.491 15.82C12.609 15.347 12.853 14.916 13.197 14.572Z" fill="white"/>
</svg>
