<svg width="24" height="24" viewBox="0 0 24 24" fill="none" xmlns="http://www.w3.org/2000/svg">
<path d="M24 12C24 5.3724 18.6276 -9.53674e-07 12 -9.53674e-07C5.3724 -9.53674e-07 -9.53674e-07 5.3724 -9.53674e-07 12C-9.53674e-07 18.6276 5.3724 24 12 24C18.6276 24 24 18.6276 24 12ZM14.436 17.436C14.2672 17.6045 14.0385 17.6992 13.8 17.6992C13.5615 17.6992 13.3328 17.6045 13.164 17.436L8.364 12.636C8.19546 12.4672 8.10079 12.2385 8.10079 12C8.10079 11.7615 8.19546 11.5328 8.364 11.364L13.164 6.564C13.2464 6.47557 13.3458 6.40465 13.4562 6.35546C13.5666 6.30627 13.6857 6.27982 13.8066 6.27769C13.9274 6.27556 14.0475 6.29779 14.1595 6.34305C14.2716 6.38832 14.3734 6.45569 14.4588 6.54115C14.5443 6.62662 14.6117 6.72842 14.6569 6.84048C14.7022 6.95255 14.7244 7.07258 14.7223 7.19343C14.7202 7.31427 14.6937 7.43345 14.6445 7.54385C14.5953 7.65424 14.5244 7.7536 14.436 7.836L10.272 12L14.436 16.164C14.6045 16.3328 14.6992 16.5615 14.6992 16.8C14.6992 17.0385 14.6045 17.2672 14.436 17.436Z" fill="white"/>
</svg>
