<svg width="32" height="32" viewBox="0 0 32 32" fill="none" xmlns="http://www.w3.org/2000/svg">
<path d="M7.79121 6.09182C9.96847 3.91457 12.9215 2.69141 16.0005 2.69141C19.0796 2.69141 22.0326 3.91457 24.2099 6.09182C26.3871 8.26907 27.6103 11.2221 27.6103 14.3012C27.6103 17.3803 26.3871 20.3332 24.2099 22.5105L22.6272 24.0758C21.461 25.2198 19.9472 26.6918 18.0859 28.4918C17.5264 29.0327 16.7787 29.3351 16.0005 29.3351C15.2224 29.3351 14.4746 29.0327 13.9152 28.4918L9.26055 23.9638C8.67477 23.3896 8.18499 22.9052 7.79121 22.5105C6.7131 21.4325 5.85789 20.1526 5.27441 18.744C4.69094 17.3355 4.39062 15.8258 4.39062 14.3012C4.39063 12.7765 4.69094 11.2668 5.27441 9.85826C5.85789 8.4497 6.7131 7.16986 7.79121 6.09182ZM22.7952 7.50516C21.9028 6.61278 20.8433 5.90493 19.6772 5.42201C18.5112 4.93909 17.2615 4.69057 15.9994 4.69063C14.7373 4.69069 13.4876 4.93934 12.3217 5.42237C11.1557 5.9054 10.0963 6.61336 9.20388 7.50582C8.31151 8.39829 7.60365 9.45778 7.12073 10.6238C6.63782 11.7898 6.3893 13.0396 6.38936 14.3016C6.38942 15.5637 6.63806 16.8134 7.1211 17.9794C7.60413 19.1454 8.31208 20.2048 9.20455 21.0972L11.1885 23.0545C12.2801 24.122 13.6525 25.4554 15.3059 27.0545C15.4923 27.2345 15.7414 27.3352 16.0005 27.3352C16.2597 27.3352 16.5088 27.2345 16.6952 27.0545L21.2219 22.6545C21.8485 22.0403 22.373 21.5212 22.7952 21.0972C24.5972 19.2951 25.6096 16.851 25.6096 14.3025C25.6096 11.754 24.5972 9.30991 22.7952 7.50782M16.0005 10.6665C16.5262 10.6665 17.0467 10.77 17.5323 10.9712C18.0179 11.1723 18.4592 11.4672 18.8309 11.8388C19.2025 12.2105 19.4974 12.6518 19.6985 13.1374C19.8997 13.623 20.0032 14.1435 20.0032 14.6692C20.0032 15.1948 19.8997 15.7153 19.6985 16.2009C19.4974 16.6865 19.2025 17.1278 18.8309 17.4995C18.4592 17.8712 18.0179 18.166 17.5323 18.3671C17.0467 18.5683 16.5262 18.6718 16.0005 18.6718C14.9518 18.6527 13.9525 18.2226 13.2176 17.4742C12.4827 16.7258 12.0709 15.7187 12.0709 14.6698C12.0709 13.6209 12.4827 12.6139 13.2176 11.8655C13.9525 11.117 14.9518 10.687 16.0005 10.6678M16.0005 12.6678C15.4694 12.6678 14.96 12.8788 14.5844 13.2544C14.2089 13.63 13.9979 14.1393 13.9979 14.6705C13.9979 15.2016 14.2089 15.711 14.5844 16.0866C14.96 16.4622 15.4694 16.6732 16.0005 16.6732C16.5226 16.6597 17.0187 16.4428 17.3831 16.0689C17.7476 15.6949 17.9515 15.1933 17.9515 14.6712C17.9515 14.149 17.7476 13.6474 17.3831 13.2734C17.0187 12.8995 16.5226 12.6826 16.0005 12.6692" fill="white"/>
</svg>
