<svg width="32" height="32" viewBox="0 0 32 32" fill="none" xmlns="http://www.w3.org/2000/svg">
<path d="M7.79073 6.09182C9.96798 3.91457 12.921 2.69141 16.0001 2.69141C19.0792 2.69141 22.0321 3.91457 24.2094 6.09182C26.3866 8.26907 27.6098 11.2221 27.6098 14.3012C27.6098 17.3803 26.3866 20.3332 24.2094 22.5105L22.6267 24.0758C21.4605 25.2198 19.9467 26.6918 18.0854 28.4918C17.526 29.0327 16.7782 29.3351 16.0001 29.3351C15.2219 29.3351 14.4742 29.0327 13.9147 28.4918L9.26006 23.9638C8.67428 23.3896 8.1845 22.9052 7.79073 22.5105C6.71261 21.4325 5.8574 20.1526 5.27392 18.744C4.69045 17.3355 4.39014 15.8258 4.39014 14.3012C4.39014 12.7765 4.69045 11.2668 5.27392 9.85826C5.8574 8.4497 6.71261 7.16986 7.79073 6.09182ZM22.7947 7.50516C21.9023 6.61278 20.8428 5.90493 19.6767 5.42201C18.5107 4.93909 17.261 4.69057 15.9989 4.69063C14.7368 4.69069 13.4871 4.93934 12.3212 5.42237C11.1552 5.9054 10.0958 6.61336 9.20339 7.50582C8.31102 8.39829 7.60316 9.45778 7.12025 10.6238C6.63733 11.7898 6.38881 13.0396 6.38887 14.3016C6.38893 15.5637 6.63758 16.8134 7.12061 17.9794C7.60364 19.1454 8.3116 20.2048 9.20406 21.0972L11.1881 23.0545C12.2796 24.122 13.6521 25.4554 15.3054 27.0545C15.4918 27.2345 15.7409 27.3352 16.0001 27.3352C16.2592 27.3352 16.5083 27.2345 16.6947 27.0545L21.2214 22.6545C21.8481 22.0403 22.3725 21.5212 22.7947 21.0972C24.5967 19.2951 25.6091 16.851 25.6091 14.3025C25.6091 11.754 24.5967 9.30991 22.7947 7.50782M16.0001 10.6665C16.5257 10.6665 17.0462 10.77 17.5318 10.9712C18.0174 11.1723 18.4587 11.4672 18.8304 11.8388C19.2021 12.2105 19.4969 12.6518 19.698 13.1374C19.8992 13.623 20.0027 14.1435 20.0027 14.6692C20.0027 15.1948 19.8992 15.7153 19.698 16.2009C19.4969 16.6865 19.2021 17.1278 18.8304 17.4995C18.4587 17.8712 18.0174 18.166 17.5318 18.3671C17.0462 18.5683 16.5257 18.6718 16.0001 18.6718C14.9513 18.6527 13.952 18.2226 13.2171 17.4742C12.4822 16.7258 12.0704 15.7187 12.0704 14.6698C12.0704 13.6209 12.4822 12.6139 13.2171 11.8655C13.952 11.117 14.9513 10.687 16.0001 10.6678M16.0001 12.6678C15.4689 12.6678 14.9595 12.8788 14.584 13.2544C14.2084 13.63 13.9974 14.1393 13.9974 14.6705C13.9974 15.2016 14.2084 15.711 14.584 16.0866C14.9595 16.4622 15.4689 16.6732 16.0001 16.6732C16.5221 16.6597 17.0182 16.4428 17.3826 16.0689C17.7471 15.6949 17.9511 15.1933 17.9511 14.6712C17.9511 14.149 17.7471 13.6474 17.3826 13.2734C17.0182 12.8995 16.5221 12.6826 16.0001 12.6692" fill="#0D80BB"/>
</svg>
