<svg width="24" height="24" viewBox="0 0 24 24" fill="none" xmlns="http://www.w3.org/2000/svg">
<path d="M12.8196 5.57998L11.9996 6.40198L11.1756 5.57798C10.1675 4.57003 8.80028 4.00382 7.37472 4.00391C5.94916 4.00401 4.58203 4.5704 3.57407 5.57848C2.56612 6.58657 1.99991 7.95378 2 9.37934C2.00009 10.8049 2.56648 12.172 3.57457 13.18L11.4696 21.075C11.6102 21.2154 11.8008 21.2943 11.9996 21.2943C12.1983 21.2943 12.3889 21.2154 12.5296 21.075L20.4316 13.178C21.4385 12.1698 22.0039 10.8031 22.0038 9.37828C22.0036 7.95341 21.4377 6.58689 20.4306 5.57898C19.9309 5.07903 19.3377 4.68242 18.6847 4.41182C18.0318 4.14123 17.3319 4.00195 16.6251 4.00195C15.9183 4.00195 15.2184 4.14123 14.5654 4.41182C13.9124 4.68242 13.3192 5.08003 12.8196 5.57998ZM19.3676 12.119L11.9996 19.485L4.63457 12.12C4.2716 11.7609 3.98319 11.3335 3.78591 10.8626C3.58863 10.3916 3.48637 9.88632 3.48501 9.37572C3.48365 8.86511 3.58322 8.35927 3.77799 7.88727C3.97277 7.41527 4.2589 6.98642 4.61996 6.62537C4.98101 6.26431 5.40986 5.97818 5.88186 5.7834C6.35386 5.58863 6.8597 5.48906 7.3703 5.49042C7.88091 5.49178 8.38621 5.59404 8.85717 5.79132C9.32812 5.9886 9.75544 6.27702 10.1146 6.63998L11.4726 7.99698C11.5432 8.06772 11.6273 8.12362 11.7199 8.16139C11.8124 8.19915 11.9116 8.21804 12.0116 8.21692C12.1116 8.2158 12.2103 8.1947 12.302 8.15487C12.3937 8.11504 12.4765 8.05728 12.5456 7.98498L13.8796 6.63998C14.6149 5.95556 15.587 5.583 16.5914 5.60067C17.5958 5.61834 18.5542 6.02487 19.2649 6.73474C19.9757 7.44461 20.3835 8.40249 20.4024 9.40686C20.4214 10.4112 20.0501 11.3838 19.3666 12.12" fill="white"/>
</svg>
