<svg width="32" height="32" viewBox="0 0 32 32" fill="none" xmlns="http://www.w3.org/2000/svg">
<path d="M6.99984 5.33203H24.9998C26.1067 5.33196 27.1716 5.75544 27.9761 6.51559C28.7807 7.27575 29.2638 8.31496 29.3265 9.42003L29.3332 9.66536V22.332C29.3332 23.4389 28.9098 24.5038 28.1496 25.3083C27.3894 26.1129 26.3502 26.596 25.2452 26.6587L24.9998 26.6654H6.99984C5.89299 26.6654 4.82807 26.242 4.02353 25.4818C3.21899 24.7216 2.73584 23.6824 2.67317 22.5774L2.6665 22.332V9.66536C2.66643 8.55851 3.08991 7.49359 3.85007 6.68906C4.61022 5.88452 5.64943 5.40136 6.7545 5.3387L6.99984 5.33203ZM27.3332 12.496L16.4665 18.216C16.3438 18.2809 16.209 18.3194 16.0705 18.3293C15.9321 18.3392 15.7932 18.3201 15.6625 18.2734L15.5345 18.2174L4.6665 12.4974V22.332C4.66653 22.9176 4.88673 23.4818 5.28341 23.9126C5.68009 24.3433 6.22424 24.6092 6.80784 24.6574L6.99984 24.6654H24.9998C25.5856 24.6653 26.15 24.4449 26.5808 24.048C27.0116 23.651 27.2773 23.1065 27.3252 22.5227L27.3332 22.332V12.496ZM24.9998 7.33203H6.99984C6.41425 7.33205 5.85008 7.55226 5.41932 7.94894C4.98855 8.34562 4.72269 8.88976 4.6745 9.47336L4.6665 9.66536V10.2374L15.9998 16.2027L27.3332 10.236V9.66536C27.3331 9.07957 27.1127 8.51522 26.7158 8.08442C26.3188 7.65362 25.7743 7.3879 25.1905 7.34003L24.9998 7.33203Z" fill="#0D80BB"/>
</svg>
