<svg width="32" height="32" viewBox="0 0 32 32" fill="none" xmlns="http://www.w3.org/2000/svg">
<path d="M6.99935 5.33203H24.9993C26.1062 5.33196 27.1711 5.75544 27.9757 6.51559C28.7802 7.27575 29.2634 8.31496 29.326 9.42003L29.3327 9.66536V22.332C29.3328 23.4389 28.9093 24.5038 28.1491 25.3083C27.389 26.1129 26.3498 26.596 25.2447 26.6587L24.9993 26.6654H6.99935C5.8925 26.6654 4.82758 26.242 4.02304 25.4818C3.2185 24.7216 2.73535 23.6824 2.67268 22.5774L2.66602 22.332V9.66536C2.66594 8.55851 3.08942 7.49359 3.84958 6.68906C4.60973 5.88452 5.64894 5.40136 6.75402 5.3387L6.99935 5.33203ZM27.3327 12.496L16.466 18.216C16.3433 18.2809 16.2085 18.3194 16.07 18.3293C15.9316 18.3392 15.7927 18.3201 15.662 18.2734L15.534 18.2174L4.66602 12.4974V22.332C4.66604 22.9176 4.88624 23.4818 5.28292 23.9126C5.6796 24.3433 6.22375 24.6092 6.80735 24.6574L6.99935 24.6654H24.9993C25.5851 24.6653 26.1495 24.4449 26.5803 24.048C27.0111 23.651 27.2768 23.1065 27.3247 22.5227L27.3327 22.332V12.496ZM24.9993 7.33203H6.99935C6.41376 7.33205 5.84959 7.55226 5.41883 7.94894C4.98806 8.34562 4.7222 8.88976 4.67402 9.47336L4.66602 9.66536V10.2374L15.9993 16.2027L27.3327 10.236V9.66536C27.3326 9.07957 27.1122 8.51522 26.7153 8.08442C26.3183 7.65362 25.7739 7.3879 25.19 7.34003L24.9993 7.33203Z" fill="white"/>
</svg>
