<svg width="32" height="32" viewBox="0 0 32 32" fill="none" xmlns="http://www.w3.org/2000/svg">
<circle cx="16" cy="16" r="16" fill="#0D80BB" fill-opacity="0.1"/>
<path d="M24 13.2841V19.7977C24 20.4618 23.746 21.1007 23.2899 21.5834C22.8338 22.0662 22.2102 22.3561 21.5472 22.3937L21.4 22.3977H10.6C9.93589 22.3977 9.29694 22.1436 8.81422 21.6875C8.33149 21.2314 8.0416 20.6079 8.004 19.9449L8 19.7977V13.2841L15.7216 17.3289C15.8075 17.3739 15.903 17.3974 16 17.3974C16.097 17.3974 16.1925 17.3739 16.2784 17.3289L24 13.2841ZM10.6 9.59766H21.4C22.0445 9.59758 22.666 9.83685 23.144 10.2691C23.6221 10.7013 23.9226 11.2956 23.9872 11.9369L16 16.1209L8.0128 11.9369C8.07482 11.3211 8.35444 10.7477 8.8014 10.3196C9.24836 9.89158 9.83335 9.63701 10.4512 9.60166L10.6 9.59766Z" fill="#0D80BB"/>
</svg>
