<svg width="40" height="40" viewBox="0 0 40 40" fill="none" xmlns="http://www.w3.org/2000/svg">
<path d="M31.2507 33.3327H8.75065C7.36709 33.3328 6.03594 32.8034 5.03027 31.8532C4.0246 30.903 3.42065 29.604 3.34232 28.2227L3.33398 27.916V10.416C3.33387 9.4658 3.69448 8.55098 4.34293 7.85643C4.99139 7.16187 5.87934 6.73939 6.82732 6.67435L7.08398 6.66602H27.9173C28.8675 6.6659 29.7824 7.02651 30.4769 7.67496C31.1715 8.32342 31.5939 9.21137 31.659 10.1593L31.6673 10.416V11.666H32.9173C33.8675 11.6659 34.7824 12.0265 35.4769 12.675C36.1715 13.3234 36.5939 14.2114 36.659 15.1593L36.6673 15.416V27.916C36.6674 29.2996 36.1381 30.6307 35.1879 31.6364C34.2377 32.6421 32.9387 33.246 31.5573 33.3244L31.2507 33.3327ZM8.75065 30.8327H31.2507C31.9829 30.8326 32.6883 30.5571 33.2268 30.0609C33.7653 29.5647 34.0975 28.8841 34.1573 28.1543L34.1673 27.916V15.416C34.1673 15.114 34.0579 14.8221 33.8594 14.5945C33.6608 14.3668 33.3866 14.2188 33.0873 14.1777L32.9173 14.166H31.6673V27.0827C31.6673 27.3847 31.5579 27.6766 31.3594 27.9042C31.1608 28.1319 30.8866 28.2799 30.5873 28.321L30.4173 28.3327C30.1153 28.3327 29.8234 28.2233 29.5958 28.0247C29.3681 27.8262 29.2201 27.5519 29.179 27.2527L29.1673 27.0827V10.416C29.1673 10.114 29.0579 9.82211 28.8594 9.59447C28.6608 9.36682 28.3866 9.21876 28.0873 9.17768L27.9173 9.16602H7.08398C6.78192 9.16603 6.49008 9.27542 6.26243 9.47396C6.03479 9.6725 5.88673 9.94676 5.84565 10.246L5.83398 10.416V27.916C5.83401 28.648 6.10927 29.3532 6.60512 29.8917C7.10097 30.4301 7.78115 30.7625 8.51065 30.8227L8.75065 30.8327ZM20.4107 24.166H25.4207C25.7374 24.1661 26.0422 24.2864 26.2736 24.5026C26.5051 24.7189 26.6458 25.0148 26.6674 25.3308C26.6889 25.6468 26.5898 25.9592 26.3899 26.2048C26.1901 26.4505 25.9044 26.6112 25.5907 26.6543L25.4207 26.666H20.4107C20.0939 26.6659 19.7891 26.5456 19.5577 26.3294C19.3262 26.1132 19.1855 25.8172 19.1639 25.5012C19.1424 25.1852 19.2415 24.8729 19.4414 24.6272C19.6412 24.3815 19.9269 24.2209 20.2407 24.1777L20.4107 24.166ZM15.4057 18.341C15.7372 18.341 16.0551 18.4727 16.2895 18.7071C16.524 18.9416 16.6557 19.2595 16.6557 19.591V25.416C16.6557 25.7475 16.524 26.0655 16.2895 26.2999C16.0551 26.5343 15.7372 26.666 15.4057 26.666H9.58065C9.24913 26.666 8.93119 26.5343 8.69677 26.2999C8.46235 26.0655 8.33065 25.7475 8.33065 25.416V19.591C8.33065 19.2595 8.46235 18.9416 8.69677 18.7071C8.93119 18.4727 9.24913 18.341 9.58065 18.341H15.4057ZM14.1557 20.841H10.8307V24.166H14.1557V20.841ZM20.4107 18.341H25.4207C25.7374 18.3411 26.0422 18.4614 26.2736 18.6776C26.5051 18.8939 26.6458 19.1898 26.6674 19.5058C26.6889 19.8218 26.5898 20.1342 26.3899 20.3798C26.1901 20.6255 25.9044 20.7862 25.5907 20.8293L25.4207 20.841H20.4107C20.0917 20.8443 19.7836 20.7254 19.5493 20.5089C19.3151 20.2924 19.1726 19.9945 19.1508 19.6762C19.1291 19.358 19.2299 19.0435 19.4325 18.7971C19.6351 18.5507 19.9242 18.3912 20.2407 18.351L20.4107 18.341ZM9.58065 12.5027H25.4207C25.7396 12.4994 26.0477 12.6183 26.282 12.8348C26.5162 13.0513 26.6587 13.3492 26.6805 13.6675C26.7022 13.9857 26.6014 14.3002 26.3988 14.5466C26.1962 14.793 25.9071 14.9525 25.5907 14.9927L25.4207 15.0027H9.58065C9.26395 15.0026 8.95908 14.8823 8.72766 14.6661C8.49625 14.4498 8.35553 14.1539 8.33394 13.8379C8.31235 13.5219 8.41151 13.2095 8.61137 12.9639C8.81123 12.7182 9.0969 12.5575 9.41065 12.5143L9.58065 12.5027Z" fill="white"/>
</svg>
