<svg width="32" height="32" viewBox="0 0 32 32" fill="none" xmlns="http://www.w3.org/2000/svg">
<path d="M9.4092 3.2257L10.9652 2.7577C11.8176 2.50067 12.7344 2.56254 13.5445 2.93178C14.3546 3.30102 15.0027 3.9524 15.3679 4.76437L16.5705 7.43903C16.8845 8.13744 16.9719 8.9166 16.8205 9.66722C16.6692 10.4178 16.2866 11.1022 15.7265 11.6244L13.7332 13.4817C13.675 13.536 13.6381 13.6093 13.6292 13.6884C13.5705 14.2177 13.9292 15.2484 14.7572 16.6817C15.3572 17.723 15.9025 18.455 16.3652 18.8644C16.6892 19.151 16.8665 19.2124 16.9425 19.191L19.6225 18.371C20.3544 18.1472 21.138 18.1579 21.8635 18.4018C22.5889 18.6457 23.2199 19.1105 23.6679 19.731L25.3745 22.099C25.8941 22.819 26.1348 23.703 26.0519 24.587C25.969 25.471 25.5682 26.2949 24.9239 26.9057L23.7412 28.0257C23.1142 28.6194 22.3442 29.0407 21.506 29.2484C20.6679 29.4561 19.7902 29.4433 18.9585 29.211C15.2865 28.1857 11.9945 25.087 9.0452 19.979C6.0932 14.8644 5.05586 10.459 6.0132 6.7617C6.2281 5.93015 6.65358 5.16797 7.24863 4.54863C7.84368 3.92929 8.5869 3.47368 9.4092 3.2257ZM9.98786 5.1417C9.49438 5.29011 9.04745 5.56313 8.69014 5.93445C8.33283 6.30578 8.07719 6.76288 7.94786 7.2617C7.1452 10.371 8.06386 14.2764 10.7785 18.979C13.4905 23.675 16.4092 26.423 19.4985 27.2857C19.9976 27.4249 20.5242 27.4325 21.027 27.3077C21.5298 27.1829 21.9918 26.93 22.3679 26.5737L23.5492 25.4537C23.8423 25.1761 24.0246 24.8015 24.0624 24.3996C24.1002 23.9977 23.9908 23.5957 23.7545 23.2684L22.0479 20.9017C21.8442 20.6193 21.5572 20.4078 21.2272 20.2968C20.8972 20.1859 20.5408 20.181 20.2079 20.283L17.5212 21.1057C15.9612 21.5697 14.5465 20.315 13.0265 17.6817C11.9999 15.9084 11.5225 14.535 11.6425 13.467C11.7039 12.9124 11.9625 12.4004 12.3692 12.019L14.3625 10.1617C14.617 9.92423 14.7907 9.61304 14.8594 9.27181C14.928 8.93058 14.8881 8.57642 14.7452 8.25903L13.5439 5.58437C13.3779 5.21529 13.0832 4.91921 12.715 4.7514C12.3467 4.58358 11.93 4.55549 11.5425 4.67237L9.98786 5.1417Z" fill="#0D80BB"/>
</svg>
