<svg width="32" height="32" viewBox="0 0 32 32" fill="none" xmlns="http://www.w3.org/2000/svg">
<path d="M9.40968 3.2257L10.9657 2.7577C11.8181 2.50067 12.7349 2.56254 13.545 2.93178C14.3551 3.30102 15.0032 3.9524 15.3684 4.76437L16.571 7.43903C16.885 8.13744 16.9724 8.9166 16.821 9.66722C16.6697 10.4178 16.2871 11.1022 15.727 11.6244L13.7337 13.4817C13.6755 13.536 13.6386 13.6093 13.6297 13.6884C13.571 14.2177 13.9297 15.2484 14.7577 16.6817C15.3577 17.723 15.903 18.455 16.3657 18.8644C16.6897 19.151 16.867 19.2124 16.943 19.191L19.623 18.371C20.3549 18.1472 21.1385 18.1579 21.8639 18.4018C22.5894 18.6457 23.2203 19.1105 23.6684 19.731L25.375 22.099C25.8946 22.819 26.1353 23.703 26.0524 24.587C25.9695 25.471 25.5687 26.2949 24.9244 26.9057L23.7417 28.0257C23.1147 28.6194 22.3446 29.0407 21.5065 29.2484C20.6684 29.4561 19.7907 29.4433 18.959 29.211C15.287 28.1857 11.995 25.087 9.04568 19.979C6.09368 14.8644 5.05635 10.459 6.01368 6.7617C6.22858 5.93015 6.65406 5.16797 7.24912 4.54863C7.84417 3.92929 8.58739 3.47368 9.40968 3.2257ZM9.98835 5.1417C9.49487 5.29011 9.04793 5.56313 8.69062 5.93445C8.33331 6.30578 8.07768 6.76288 7.94835 7.2617C7.14568 10.371 8.06435 14.2764 10.779 18.979C13.491 23.675 16.4097 26.423 19.499 27.2857C19.9981 27.4249 20.5246 27.4325 21.0275 27.3077C21.5303 27.1829 21.9923 26.93 22.3684 26.5737L23.5497 25.4537C23.8428 25.1761 24.0251 24.8015 24.0629 24.3996C24.1007 23.9977 23.9913 23.5957 23.755 23.2684L22.0484 20.9017C21.8447 20.6193 21.5577 20.4078 21.2277 20.2968C20.8977 20.1859 20.5412 20.181 20.2084 20.283L17.5217 21.1057C15.9617 21.5697 14.547 20.315 13.027 17.6817C12.0004 15.9084 11.523 14.535 11.643 13.467C11.7044 12.9124 11.963 12.4004 12.3697 12.019L14.363 10.1617C14.6175 9.92423 14.7912 9.61304 14.8599 9.27181C14.9285 8.93058 14.8886 8.57642 14.7457 8.25903L13.5444 5.58437C13.3783 5.21529 13.0837 4.91921 12.7155 4.7514C12.3472 4.58358 11.9305 4.55549 11.543 4.67237L9.98835 5.1417Z" fill="white"/>
</svg>
