<svg width="32" height="32" viewBox="0 0 32 32" fill="none" xmlns="http://www.w3.org/2000/svg">
<circle cx="16" cy="16" r="16" fill="#0D80BB" fill-opacity="0.1"/>
<path d="M12.6161 8.35105L13.4777 8.07585C14.2841 7.81825 15.1465 8.23505 15.4921 9.04945L16.1801 10.6718C16.4801 11.3782 16.3137 12.2094 15.7689 12.7262L14.2545 14.1646C14.3478 15.0254 14.6369 15.8726 15.1217 16.7062C15.5827 17.5125 16.2004 18.2184 16.9385 18.7822L18.7593 18.1742C19.4489 17.9446 20.2001 18.2094 20.6233 18.831L21.6089 20.279C22.1017 21.0022 22.0129 21.999 21.4025 22.6118L20.7481 23.2686C20.0969 23.9222 19.1673 24.1598 18.3065 23.891C16.2755 23.2574 14.4081 21.3766 12.7041 18.2486C10.9979 15.1153 10.3958 12.4572 10.8977 10.2742C11.1089 9.35585 11.7633 8.62385 12.6177 8.35105" fill="#0D80BB"/>
</svg>
