<svg width="24" height="24" viewBox="0 0 24 24" fill="none" xmlns="http://www.w3.org/2000/svg">
<path d="M0 12C0 5.3724 5.3724 -9.53674e-07 12 -9.53674e-07C18.6276 -9.53674e-07 24 5.3724 24 12C24 18.6276 18.6276 24 12 24C5.3724 24 0 18.6276 0 12ZM9.564 17.436C9.73275 17.6045 9.9615 17.6992 10.2 17.6992C10.4385 17.6992 10.6672 17.6045 10.836 17.436L15.636 12.636C15.8045 12.4672 15.8992 12.2385 15.8992 12C15.8992 11.7615 15.8045 11.5328 15.636 11.364L10.836 6.564C10.7536 6.47557 10.6542 6.40465 10.5438 6.35546C10.4334 6.30627 10.3143 6.27982 10.1934 6.27769C10.0726 6.27556 9.95255 6.29779 9.84048 6.34305C9.72842 6.38832 9.62662 6.45569 9.54115 6.54115C9.45569 6.62662 9.38832 6.72842 9.34305 6.84048C9.29779 6.95255 9.27556 7.07258 9.27769 7.19343C9.27982 7.31427 9.30627 7.43345 9.35546 7.54385C9.40465 7.65424 9.47558 7.7536 9.564 7.836L13.728 12L9.564 16.164C9.39546 16.3328 9.30079 16.5615 9.30079 16.8C9.30079 17.0385 9.39546 17.2672 9.564 17.436Z" fill="white"/>
</svg>
