<svg width="40" height="40" viewBox="0 0 40 40" fill="none" xmlns="http://www.w3.org/2000/svg">
<path d="M21.708 26.708L27.708 20.708C27.8011 20.6151 27.875 20.5048 27.9254 20.3833C27.9758 20.2618 28.0018 20.1315 28.0018 20C28.0018 19.8685 27.9758 19.7382 27.9254 19.6167C27.875 19.4952 27.8011 19.3849 27.708 19.292L21.708 13.292C21.5202 13.1042 21.2656 12.9987 21 12.9987C20.7344 12.9987 20.4798 13.1042 20.292 13.292C20.1042 13.4798 19.9987 13.7344 19.9987 14C19.9987 14.2656 20.1042 14.5202 20.292 14.708L24.586 19H13C12.7348 19 12.4804 19.1054 12.2929 19.2929C12.1054 19.4804 12 19.7348 12 20C12 20.2652 12.1054 20.5196 12.2929 20.7071C12.4804 20.8946 12.7348 21 13 21H24.586L20.292 25.292C20.1042 25.4798 19.9987 25.7344 19.9987 26C19.9987 26.2656 20.1042 26.5202 20.292 26.708C20.4798 26.8958 20.7344 27.0013 21 27.0013C21.2656 27.0013 21.5202 26.8958 21.708 26.708ZM36 20C36 24.2435 34.3143 28.3131 31.3137 31.3137C28.3131 34.3143 24.2435 36 20 36C15.7565 36 11.6869 34.3143 8.68629 31.3137C5.68571 28.3131 4 24.2435 4 20C4 15.7565 5.68571 11.6869 8.68629 8.68629C11.6869 5.68571 15.7565 4 20 4C24.2435 4 28.3131 5.68571 31.3137 8.68629C34.3143 11.6869 36 15.7565 36 20ZM20 34C21.8385 34 23.659 33.6379 25.3576 32.9343C27.0561 32.2307 28.5995 31.1995 29.8995 29.8995C31.1995 28.5995 32.2307 27.0561 32.9343 25.3576C33.6379 23.659 34 21.8385 34 20C34 18.1615 33.6379 16.341 32.9343 14.6424C32.2307 12.9439 31.1995 11.4005 29.8995 10.1005C28.5995 8.80048 27.0561 7.76925 25.3576 7.06569C23.659 6.36212 21.8385 6 20 6C16.287 6 12.726 7.475 10.1005 10.1005C7.475 12.726 6 16.287 6 20C6 23.713 7.475 27.274 10.1005 29.8995C12.726 32.525 16.287 34 20 34Z" fill="#0D80BB"/>
</svg>
