<svg width="20" height="20" viewBox="0 0 20 20" fill="none" xmlns="http://www.w3.org/2000/svg">
<path d="M16.6599 13.1186L16.6601 13.1184C16.824 12.9543 16.916 12.7319 16.916 12.5C16.916 12.2682 16.824 12.0458 16.6601 11.8817L16.66 11.8816L10.6183 5.83992L10.6182 5.83981C10.4542 5.67595 10.2318 5.58392 9.9999 5.58392C9.76802 5.58392 9.54563 5.67595 9.38157 5.83981L9.38146 5.83992L3.34264 11.8787C3.25829 11.9582 3.19056 12.0536 3.14339 12.1595C3.09557 12.2668 3.06985 12.3827 3.06778 12.5002C3.06571 12.6177 3.08732 12.7344 3.13133 12.8433C3.17533 12.9523 3.24084 13.0513 3.32392 13.1343C3.40701 13.2174 3.50599 13.2829 3.61494 13.3269C3.72389 13.3709 3.84059 13.3926 3.95808 13.3905C4.07556 13.3884 4.19143 13.3627 4.29876 13.3149C4.40464 13.2677 4.50008 13.2 4.57954 13.1156L9.9999 7.69525L15.4231 13.1185L15.4232 13.1186C15.5873 13.2824 15.8097 13.3745 16.0416 13.3745C16.2734 13.3745 16.4958 13.2824 16.6599 13.1186L16.6599 13.1186Z" fill="white" stroke="white" stroke-width="0.5"/>
</svg>
