<svg width="21" height="11" viewBox="0 0 21 11" fill="none" xmlns="http://www.w3.org/2000/svg">
<path d="M0.274175 0.298386C0.449957 0.122823 0.688237 0.0242107 0.936675 0.0242107C1.18511 0.0242107 1.42339 0.122823 1.59918 0.298386L9.99918 8.69839L18.3992 0.298386C18.485 0.206278 18.5885 0.132399 18.7035 0.0811593C18.8185 0.0299194 18.9426 0.00236688 19.0685 0.0001459C19.1944 -0.00207508 19.3194 0.021081 19.4362 0.0682323C19.5529 0.115384 19.6589 0.185565 19.748 0.274588C19.837 0.363612 19.9072 0.469653 19.9543 0.586389C20.0015 0.703124 20.0246 0.82816 20.0224 0.954038C20.0202 1.07992 19.9926 1.20406 19.9414 1.31906C19.8902 1.43406 19.8163 1.53756 19.7242 1.62339L10.6617 10.6859C10.4859 10.8615 10.2476 10.9601 9.99918 10.9601C9.75074 10.9601 9.51246 10.8615 9.33668 10.6859L0.274175 1.62339C0.0986117 1.4476 0 1.20932 0 0.960886C0 0.712447 0.0986117 0.474168 0.274175 0.298386Z" fill="white"/>
</svg>
